<svg width="187" height="187" viewBox="0 0 187 187" fill="none" xmlns="http://www.w3.org/2000/svg">
<path d="M91.195 27.4219C91.3111 27.1897 91.4271 26.3772 90.0343 25.9129C88.6414 25.4487 88.1771 25.5647 87.945 25.5647C87.8289 25.5647 87.8289 25.3326 87.1325 25.1004C86.4361 24.9844 85.5075 24.7522 85.1593 24.7522C85.1593 24.7522 84.8111 24.5201 84.4629 24.5201C84.1147 24.5201 82.8379 24.1719 82.6057 24.1719C82.2575 24.1719 82.0254 24.5201 82.0254 24.7522C82.0254 24.9844 82.2575 25.3326 83.1861 25.5647C84.1147 25.7969 84.695 26.1451 84.695 26.029C84.8111 25.9129 84.695 26.029 85.1593 26.2611C85.5075 26.4933 87.1325 27.0736 87.4807 26.9576C87.5968 26.9576 87.7129 27.3058 88.8736 27.4219C90.1503 27.7701 91.0789 28.0022 91.195 27.4219Z" fill="#00AEEF"/>
<path d="M87.8279 33.1091C87.944 32.8769 87.5957 32.1805 87.1315 31.8323C86.5511 31.4841 86.435 31.1359 86.0868 31.4841C86.0868 31.4841 86.2029 31.2519 85.8547 30.9037C85.5065 30.5555 84.4618 29.9752 84.2297 29.743C83.9975 29.5109 83.7654 29.5109 83.4172 29.6269C83.4172 29.6269 83.4172 29.2787 83.1851 29.0466C82.9529 28.8144 82.2565 28.118 82.1404 27.8859C82.0243 27.7698 81.444 27.7698 81.2118 27.8859C80.9797 28.002 80.9797 28.4662 81.0958 28.5823C81.0958 28.6984 81.6761 29.5109 82.0243 29.743C82.2565 29.9752 82.7208 30.3234 82.8368 30.4394C82.9529 30.5555 83.8815 31.368 84.2297 31.6001C84.5779 31.8323 85.0422 32.0644 85.0422 32.0644C85.0422 32.0644 85.2743 32.1805 85.3904 32.4126C85.5065 32.6448 86.5511 33.4573 87.0154 33.4573C87.4797 33.6894 87.7118 33.4573 87.8279 33.1091Z" fill="#00AEEF"/>
<path d="M82.3726 37.4038C82.6048 37.2877 83.069 36.8234 82.7208 36.127C82.3726 35.4306 81.328 34.3859 81.2119 34.502C81.2119 34.502 81.328 34.0377 80.7476 33.3413C79.9351 32.2967 79.8191 32.4127 79.703 32.2967C79.703 32.2967 79.703 31.7163 79.4708 31.3681C79.2387 31.0199 78.7744 30.3235 78.3101 30.2074C77.8459 30.0913 77.6137 30.2074 77.4976 30.6717C77.3816 31.136 78.1941 32.2967 78.3101 32.6449C78.4262 32.7609 78.5423 32.877 78.5423 32.877C78.5423 32.877 78.5423 32.9931 78.7744 33.6895C79.1226 34.2699 79.4708 34.8502 79.4708 34.9663C79.703 35.3145 80.0512 35.5467 80.0512 35.5467C80.0512 35.5467 80.6316 36.8234 81.328 37.2877C82.3726 37.5199 82.3726 37.4038 82.3726 37.4038Z" fill="#00AEEF"/>
<path d="M75.0595 31.9485C75.0595 31.9485 74.9434 31.6003 74.7113 31.2521C74.5952 30.9039 74.0148 30.4396 73.8988 30.3235C73.7827 30.2075 73.3184 30.4396 73.4345 30.9039C73.6666 32.4128 73.8988 32.6449 73.8988 32.6449C73.8988 32.6449 73.7827 32.8771 74.247 34.1539C74.3631 34.5021 74.5952 34.7342 74.5952 34.7342C74.5952 34.7342 74.7113 34.9664 74.9434 35.4306C75.0595 35.7789 75.6398 36.5914 76.2202 36.8235C76.8005 37.0556 77.3809 37.2878 77.497 36.7074C77.613 36.2431 76.9166 35.4306 76.6845 35.0824C76.4523 34.7342 76.1041 34.386 76.1041 34.386C76.1041 34.386 76.1041 34.1539 75.872 33.8056C75.7559 33.4574 75.2916 32.5289 75.2916 32.5289C75.2916 32.5289 75.2916 32.4128 75.0595 31.9485Z" fill="#00AEEF"/>
<path d="M77.6142 19.2968C77.7303 19.645 78.891 20.5736 78.0785 21.7343C77.7303 22.1986 77.0339 23.0111 76.4535 23.2432C76.1053 23.3593 74.9446 22.5468 74.1321 22.4307C73.0875 22.3146 72.0428 22.6629 72.0428 23.2432C72.1589 23.7075 72.1589 24.2878 72.5071 24.8682C73.0875 25.7968 74.1321 26.7253 74.7125 26.145C75.641 25.3325 76.6857 23.5914 78.3107 22.5468C79.9357 21.5021 82.0249 23.1271 80.9803 24.4039C80.7482 24.6361 80.6321 26.8414 79.8196 27.0735C78.891 27.3057 78.5428 27.6539 78.1946 28.0021C77.8464 28.4664 78.1946 28.6985 77.3821 29.2789C77.0339 29.511 74.4803 29.511 74.016 29.7432C73.5518 29.9753 72.1589 29.6271 71.2303 28.0021C70.3018 26.3771 69.4893 25.9128 68.9089 25.1003C68.3286 24.4039 67.6321 22.6629 68.3286 21.5021C68.9089 20.3414 69.8375 19.5289 70.3018 19.5289C70.7661 19.645 71.2303 19.7611 71.3464 19.0647C71.4625 18.3682 73.2036 17.3236 74.4803 17.2075C75.1768 17.3236 77.0339 17.9039 77.6142 19.2968Z" fill="#00AEEF"/>
<path d="M83.9976 19.877C83.5333 20.2252 82.7208 20.2252 81.9083 19.877C81.3279 19.6449 81.2119 19.2967 81.0958 19.4127C80.9797 19.5288 80.8637 19.5288 80.7476 19.4127C80.1672 19.2967 79.5869 19.2967 79.2387 19.0645C79.1226 19.0645 79.0065 18.9484 78.8905 18.9484C78.7744 18.9484 78.6583 18.9484 78.6583 18.9484C77.4976 18.4842 77.4976 17.9038 78.194 17.7877C79.0065 17.5556 79.703 18.0199 80.3994 17.9038C81.5601 17.7877 82.1404 17.6717 82.7208 17.6717C83.1851 17.5556 83.6494 17.7877 83.9976 17.7877C85.0422 18.252 84.8101 19.1806 83.9976 19.877Z" fill="#00AEEF"/>
<path d="M3.79415 101.591C4.02629 101.126 5.07093 99.3853 8.08877 100.894C11.1066 102.403 11.803 103.216 12.2673 103.68C12.3834 103.796 12.9637 103.564 14.4727 104.26C15.9816 104.957 17.9548 106.117 18.4191 106.814C18.4191 106.814 19.2316 106.93 19.928 107.51C20.6244 108.091 23.0619 109.483 23.6423 109.948C24.2226 110.412 23.9905 111.573 23.6423 111.805C23.2941 112.037 22.4816 112.385 20.5084 111.341C18.5351 110.296 17.0262 109.948 17.0262 109.6C17.0262 109.019 16.9102 109.483 15.9816 109.251C15.053 109.019 11.2227 107.394 10.8745 106.93C10.6423 106.582 10.062 107.162 7.62448 105.537C5.187 104.028 3.32986 102.867 3.79415 101.591Z" fill="#EB1D66"/>
<path d="M0.426626 116.912C0.658768 116.332 2.28376 115.751 3.79268 115.984C5.3016 116.216 6.23017 115.984 6.23017 117.028C6.23017 117.028 6.34624 116.448 7.50695 116.448C8.66766 116.448 11.4534 117.028 12.2659 117.144C13.0784 117.26 13.5426 117.376 13.7748 118.189C13.7748 118.189 14.2391 117.609 15.0516 117.609C15.9801 117.609 18.1855 117.376 18.7658 117.376C19.3462 117.376 20.1587 118.189 20.5069 118.885C20.8551 119.582 19.9265 120.162 19.5783 120.394C19.2301 120.626 17.1408 120.975 15.9801 120.975C15.2837 120.975 13.7748 120.859 13.5426 120.859C13.1944 120.859 10.1766 120.859 9.24801 120.626C8.31945 120.394 7.27481 120.046 7.27481 120.046C7.27481 120.046 6.81052 119.93 5.99803 120.046C5.3016 120.278 2.28376 119.93 1.35519 119.234C0.194485 118.421 0.0784135 117.725 0.426626 116.912Z" fill="#EB1D66"/>
<path d="M2.98078 132.93C2.86471 132.35 2.63257 130.841 4.4897 130.028C6.34684 129.332 9.59682 129.216 9.71289 129.796C9.71289 129.796 10.2932 128.752 12.2665 128.403C15.2843 127.939 15.5164 128.287 15.8646 128.287C15.8646 128.287 16.6771 127.359 17.7218 127.01C18.7664 126.662 20.6236 126.314 21.4361 126.894C22.2485 127.475 22.8289 128.055 22.0164 128.868C21.32 129.68 18.1861 130.609 17.3736 130.957C17.0254 131.073 16.6771 130.957 16.6771 130.957C16.6771 130.957 16.445 131.305 14.9361 131.885C13.4272 132.466 11.9182 132.814 11.6861 132.814C10.7575 132.93 9.82896 132.93 9.82896 132.93C9.82896 132.93 6.69505 134.323 4.83792 133.859C2.86471 133.394 2.98078 132.93 2.98078 132.93Z" fill="#EB1D66"/>
<path d="M24.453 135.367C24.453 135.367 25.2655 135.019 26.078 134.671C26.8905 134.322 28.5155 134.322 28.9798 134.439C29.4441 134.555 29.7923 135.483 28.8637 136.18C26.078 138.501 25.3816 138.385 25.3816 138.385C25.3816 138.385 25.2655 139.197 22.2477 140.474C21.4352 140.822 20.7388 140.822 20.7388 140.822C20.7388 140.822 20.0423 141.055 19.1138 141.519C18.1852 141.983 16.0959 142.331 14.587 141.867C13.1942 141.403 11.8013 140.706 12.4977 139.662C13.1942 138.733 15.6317 138.385 16.6763 138.037C17.4888 137.805 18.8816 137.921 18.8816 137.921C18.8816 137.921 19.2298 137.689 20.0423 137.224C20.9709 136.76 23.0602 136.064 23.0602 136.064C23.0602 136.064 23.4084 135.831 24.453 135.367Z" fill="#EB1D66"/>
<path d="M40.5876 109.484C39.7751 109.948 36.4091 109.716 35.8287 112.734C35.5966 114.01 35.4805 116.68 36.293 117.957C36.6412 118.537 40.1233 119.118 41.6322 120.278C43.6054 121.787 44.8822 124.109 43.8376 125.037C43.0251 125.734 42.0965 126.662 40.4715 127.01C37.918 127.707 34.668 127.359 34.4358 125.734C34.0876 122.948 35.0162 118.189 33.9716 113.662C32.9269 109.135 26.6591 108.671 26.3109 112.502C26.1948 113.198 22.9448 117.377 24.1055 118.885C25.4984 120.743 25.4984 122.019 25.3823 123.064C25.2663 124.341 24.1055 124.225 24.802 126.662C25.0341 127.707 29.5609 131.653 29.793 132.814C30.0252 133.975 33.1591 135.484 37.3376 134.323C41.5162 133.162 43.7215 133.51 45.9269 133.162C48.1322 132.814 52.0786 130.957 52.775 127.939C53.4715 125.037 53.4715 122.135 52.5429 121.439C51.6143 120.743 50.4536 120.278 51.3822 119.002C52.3108 117.725 50.9179 112.966 48.8286 110.76C47.784 109.832 43.6054 107.975 40.5876 109.484Z" fill="#EB1D66"/>
<path d="M28.4004 100.082C28.6326 101.475 29.9094 102.752 31.9986 103.332C33.2754 103.796 34.0879 103.68 34.204 103.912C34.3201 104.144 34.4361 104.377 34.6683 104.609C35.829 105.421 36.8736 106.118 37.8022 106.582C38.0343 106.698 38.2665 106.698 38.4986 106.93C38.7308 107.046 38.8468 107.278 38.9629 107.278C41.7486 108.439 42.6772 107.394 41.6325 106.118C41.6325 106.118 41.6325 106.002 41.5165 106.002C40.4718 104.377 38.6147 103.912 37.57 102.752C35.7129 100.662 34.7843 99.5016 33.9719 98.457C33.3915 97.6445 32.2308 96.948 31.6504 96.7159C29.329 95.6713 28.0522 97.7605 28.4004 100.082Z" fill="#EB1D66"/>
<path d="M30.4908 18.1356C30.7229 18.0195 31.7675 17.7873 32.464 19.5284C33.1604 21.2695 33.0443 21.8498 33.1604 22.198C33.1604 22.3141 33.5086 22.4302 33.8568 23.2427C34.205 24.0552 34.5532 25.3319 34.4372 25.7962C34.4372 25.7962 34.7854 26.1444 34.7854 26.7248C34.7854 27.1891 35.2497 28.698 35.3657 29.1623C35.3657 29.5105 34.9014 29.9748 34.6693 29.8587C34.4372 29.8587 33.9729 29.6266 33.6247 28.4659C33.2765 27.3052 32.8122 26.6087 32.9282 26.4927C33.1604 26.2605 32.9282 26.3766 32.58 25.9123C32.2318 25.448 31.3033 23.3587 31.4193 23.0105C31.4193 22.7784 31.0711 22.7784 30.6068 21.2695C30.1425 19.5284 29.9104 18.3677 30.4908 18.1356Z" fill="#FEBF29"/>
<path d="M23.4084 22.8948C23.7567 22.7787 24.5692 23.1269 25.1495 23.7073C25.7299 24.4037 26.0781 24.6359 25.7299 25.1001C25.7299 25.1001 25.962 24.868 26.4263 25.3323C26.8906 25.7966 27.8191 27.0733 28.0513 27.4216C28.2834 27.7698 28.3995 28.0019 28.2834 28.3501C28.2834 28.3501 28.6316 28.2341 29.0959 28.5823C29.4441 28.9305 30.3727 29.6269 30.6048 29.8591C30.837 30.0912 30.837 30.7876 30.7209 31.1358C30.6048 31.484 30.0245 31.484 29.7923 31.368C29.5602 31.368 28.6316 30.6715 28.1674 30.2073C27.9352 29.9751 27.3549 29.2787 27.2388 29.2787C27.1227 29.1626 25.8459 28.0019 25.6138 27.5376C25.2656 27.0733 25.0334 26.493 25.0334 26.493C25.0334 26.493 24.9174 26.2609 24.5692 26.0287C24.2209 25.7966 23.1763 24.5198 23.0602 23.9394C22.712 23.4752 22.9442 23.1269 23.4084 22.8948Z" fill="#FEBF29"/>
<path d="M18.3041 30.439C18.4202 30.2068 19.0006 29.3944 19.9291 29.8586C20.9738 30.2068 22.2505 31.4836 22.1345 31.7158C22.1345 31.7158 22.8309 31.4836 23.6434 32.1801C25.0362 33.1086 24.9202 33.3408 25.1523 33.4568C25.1523 33.4568 25.8487 33.3408 26.313 33.689C26.7773 33.9211 27.7059 34.5015 27.8219 35.0818C27.938 35.6622 27.938 36.0104 27.3577 36.1265C26.7773 36.1265 25.1523 35.43 24.688 35.1979C24.4559 35.0818 24.3398 34.9658 24.3398 34.9658C24.3398 34.9658 24.1077 35.0818 23.2952 34.6175C22.4827 34.2693 21.7863 33.805 21.6702 33.805C21.2059 33.4568 20.8577 33.1086 20.8577 33.1086C20.8577 33.1086 19.1166 32.5283 18.5363 31.5997C18.072 30.5551 18.3041 30.439 18.3041 30.439Z" fill="#FEBF29"/>
<path d="M26.0812 39.6085C26.0812 39.6085 26.5455 39.7246 27.0098 39.9567C27.4741 40.0728 28.1705 40.7692 28.2866 41.0014C28.4027 41.2335 28.2866 41.6978 27.5902 41.6978C25.617 41.5817 25.3848 41.2335 25.3848 41.2335C25.3848 41.2335 25.0366 41.4656 23.2955 40.8853C22.8313 40.7692 22.5991 40.421 22.5991 40.421C22.5991 40.421 22.2509 40.3049 21.6706 40.0728C21.2063 39.9567 20.1616 39.2603 19.6973 38.4478C19.2331 37.7514 19.0009 36.9389 19.6973 36.8228C20.2777 36.7067 21.4384 37.5192 22.0188 37.7514C22.483 37.9835 22.9473 38.5639 22.9473 38.5639C22.9473 38.5639 23.1795 38.5639 23.6438 38.796C24.108 39.0281 25.2687 39.4924 25.2687 39.4924C25.2687 39.4924 25.3848 39.3764 26.0812 39.6085Z" fill="#FEBF29"/>
<path d="M42.3301 35.1978C41.8659 35.0817 40.5891 33.6889 39.1962 34.7335C38.6159 35.1978 37.5712 36.2424 37.3391 36.9389C37.223 37.2871 38.3837 38.9121 38.6159 39.9567C38.848 41.3495 38.4998 42.7424 37.6873 42.7424C37.1069 42.7424 36.4105 42.7424 35.598 42.2781C34.3212 41.5817 33.1605 40.1888 33.6248 39.4924C34.5534 38.2156 36.7587 36.7067 38.0355 34.5014C39.3123 32.296 36.9909 29.7425 35.3659 31.1353C35.0177 31.3675 32.1159 31.8317 31.9998 32.8764C31.8838 34.1532 31.4195 34.6174 30.9552 34.9657C30.3748 35.4299 30.0266 34.9657 29.3302 36.1264C28.982 36.7067 29.3302 39.9567 28.982 40.5371C28.6338 41.1174 29.3302 42.8585 31.4195 44.0192C33.5088 45.1799 34.3212 46.1085 35.3659 46.8049C36.4105 47.5013 38.7319 48.1977 40.1248 47.2692C41.5176 46.3406 42.5623 45.1799 42.4462 44.4835C42.3301 43.9031 42.098 43.2067 42.9105 43.0906C43.723 42.9745 44.9998 40.5371 44.9998 38.796C45.1158 38.0996 44.1873 35.7781 42.3301 35.1978Z" fill="#FEBF29"/>
<path d="M41.0521 26.841C40.5878 27.5374 40.7039 28.466 41.2843 29.5106C41.6325 30.207 41.9807 30.4392 41.9807 30.5552C41.8646 30.6713 41.8646 30.7874 41.9807 31.0195C42.0967 31.832 42.3289 32.5284 42.445 32.9927C42.445 33.1088 42.561 33.2249 42.561 33.3409C42.561 33.457 42.561 33.5731 42.561 33.6891C43.2575 35.1981 43.9539 35.1981 44.0699 34.2695C44.0699 34.2695 44.0699 34.2695 44.0699 34.1534C44.3021 33.1088 43.7217 32.2963 43.7217 31.3677C43.7217 29.8588 43.8378 29.0463 43.8378 28.2338C43.8378 27.6535 43.7217 26.957 43.6057 26.6088C43.1414 25.4481 41.7485 25.7963 41.0521 26.841Z" fill="#FEBF29"/>
<path d="M153.059 80.6979C153.987 79.4212 154.916 78.7247 156.425 78.3765C158.282 78.0283 160.835 77.7962 162.112 76.2872C163.157 75.0105 162.692 72.9212 160.719 72.573C158.398 72.2248 153.523 74.6623 153.059 80.6979Z" fill="#FEBF29"/>
<path d="M21.2038 67.4661C14.7038 65.7251 7.85565 73.2697 3.21282 72.3411C-0.15324 71.7608 -0.849665 67.4661 1.00747 65.1447C5.53423 59.4572 15.4003 61.6626 21.2038 67.4661Z" fill="#00AEEF"/>
<path d="M58.1128 11.6361C59.97 10.4754 61.595 8.3861 62.4075 6.18075C62.9878 4.43969 63.336 1.88613 61.711 0.609352C60.4342 -0.435286 58.1128 -0.0870731 57.1843 1.30578C56.2557 2.69863 56.9521 4.55576 57.4164 6.06468C57.9968 8.03789 58.5771 9.77895 58.1128 11.6361Z" fill="#FEBF29"/>
<path d="M54.2847 58.645C57.4186 48.3146 64.615 51.6807 66.8204 46.4575C68.7936 41.6986 60.2043 37.9843 55.9097 48.895C54.749 51.7968 54.0526 55.6271 54.2847 58.645Z" fill="#EB1D66"/>
<path d="M79.3573 130.028C77.6163 128.751 75.6431 127.707 73.4377 127.591C71.3485 127.475 69.027 128.751 67.1699 127.591C64.6163 125.966 66.2413 122.716 68.7949 122.135C71.3485 121.671 73.902 122.6 75.7591 124.108C77.8484 125.733 78.8931 128.055 79.8216 130.492" fill="#00AEEF"/>
<path d="M117.657 15.2339C116.148 12.6803 114.872 10.591 110.693 9.66247C107.791 8.96604 103.381 10.2428 101.291 7.80533C97.5771 3.39464 106.631 -1.59641 113.479 6.41248C115.568 8.84997 116.845 11.8678 117.657 15.2339Z" fill="#EB1D66"/>
<path d="M67.7494 152.082C68.678 152.43 70.6512 152.662 72.7404 153.359C74.0172 153.823 75.0619 154.287 75.8744 154.519L75.6422 154.752C75.6422 154.752 74.0172 160.787 71.3476 163.341L70.9994 164.153C69.1422 163.805 66.7048 162.064 63.803 159.859C61.2494 157.885 57.5352 152.082 57.5352 152.082C57.5352 152.082 62.4101 149.993 67.7494 152.082Z" fill="#F9A01B"/>
<g opacity="0.2">
<path d="M70.1872 153.01C70.9997 153.359 72.8568 153.475 74.5979 154.171C75.7586 154.519 76.6871 154.984 77.3836 155.216L77.1514 155.448C77.1514 155.448 75.7586 161.019 73.3211 163.341L73.0889 164.153C71.464 163.805 69.1425 162.18 66.4729 160.207C64.1515 158.466 61.0176 153.01 61.0176 153.01C61.0176 153.01 65.5443 151.153 70.1872 153.01Z" fill="white"/>
</g>
<path d="M105.471 148.832C103.498 148.6 101.525 148.832 100.132 148.948C98.9713 149.064 96.4177 149.528 96.1856 151.501C95.8374 154.635 98.2749 159.626 101.177 158.466C104.078 157.305 107.328 152.778 107.909 149.644" fill="#F9A01B"/>
<g opacity="0.2">
<path d="M106.631 150.805C104.89 150.573 103.149 150.805 101.872 150.921C100.828 151.037 98.5063 151.501 98.3902 153.242C98.042 156.028 100.363 160.555 102.917 159.51C105.471 158.466 108.488 154.403 108.953 151.617" fill="white"/>
</g>
<path d="M121.605 167.867C119.167 168.332 116.033 167.635 114.06 167.287C107.212 166.126 103.381 160.671 103.381 160.671C103.381 160.671 100.015 163.805 97.5779 164.617C95.0243 165.43 93.0511 164.733 90.7297 166.01L89.4529 168.332C88.9886 170.885 90.7297 175.992 92.5868 177.849C94.444 179.707 98.2743 183.537 100.247 183.537C101.408 183.537 107.908 180.751 109.185 180.171C119.051 175.992 123.113 170.769 123.113 170.537C122.417 173.323 123.694 174.483 125.435 175.18C127.408 175.992 131.122 175.992 132.747 174.948C134.372 173.903 138.203 171.233 139.828 168.099C141.221 165.198 141.801 157.189 143.542 154.635C136.926 163.921 128.685 166.591 121.605 167.867Z" fill="#00AEEF"/>
<g opacity="0.4">
<path d="M124.041 167.983C121.836 168.331 119.05 167.751 117.425 167.403C111.39 166.358 107.908 161.599 107.908 161.599C107.908 161.599 105.006 164.385 102.684 165.081C100.479 165.778 98.738 165.197 96.6487 166.358L95.488 168.447C95.1398 170.653 96.6487 175.179 98.2737 176.804C99.8987 178.429 103.265 181.912 105.122 181.912C106.167 181.912 111.97 179.474 113.015 179.01C121.72 175.296 125.434 170.653 125.318 170.421C124.738 172.858 125.899 173.903 127.407 174.599C129.149 175.296 132.515 175.412 133.907 174.367C135.416 173.438 138.782 171.117 140.175 168.331C141.452 165.778 141.916 158.697 143.541 156.376C137.622 164.501 130.309 166.938 124.041 167.983Z" fill="#AEC7BA"/>
</g>
<path d="M96.8822 109.251C94.7929 109.948 92.7037 110.644 91.1947 112.153C89.6858 113.662 88.8733 117.608 89.918 119.465C95.9536 121.439 101.641 123.992 107.213 127.01C108.954 127.939 109.302 129.099 110.114 130.956C110.695 132.233 112.087 135.251 112.204 136.644C112.436 140.706 112.668 143.144 112.204 147.206C111.739 151.385 109.07 154.983 106.516 158.233C113.829 166.822 128.686 164.617 137.043 158.697C139.132 157.188 142.614 155.331 143.427 152.894C144.007 151.269 144.007 146.394 144.123 144.653C144.239 138.733 144.239 132.581 142.498 126.894C141.337 123.064 139.364 119.349 139.712 115.403C140.061 111.457 142.614 109.599 144.471 106.001C147.721 99.5012 148.186 99.153 143.078 93.2334C142.15 92.1888 139.248 91.4924 137.971 91.9566C137.159 92.1888 136.462 94.3941 135.998 95.0906C131.82 99.9655 131.123 103.448 126.596 107.858C121.141 113.082 112.552 114.823 105.588 112.037C102.802 110.992 100.132 109.251 97.1144 109.367" fill="#EB1D66"/>
<g opacity="0.2">
<path d="M102.337 112.85C100.48 113.43 98.6226 114.127 97.2297 115.404C95.8369 116.68 96.6494 118.77 97.5779 120.395C102.917 122.136 106.515 124.457 111.39 127.127C112.899 127.939 113.248 130.493 113.944 132.118C114.408 133.279 115.685 135.948 115.801 137.109C116.033 140.707 116.265 142.912 115.801 146.511C115.337 150.225 113.015 153.359 110.694 156.261C117.194 163.805 130.426 160.439 137.738 155.216C139.596 153.939 142.613 150.689 143.426 148.6C144.006 147.091 144.006 144.305 144.006 142.796C144.122 137.457 144.122 133.627 142.613 128.52C141.569 125.154 139.828 121.788 140.176 118.305C140.524 114.823 142.73 113.082 144.355 109.948C147.256 104.261 147.721 103.797 143.078 98.5734C142.265 97.6448 139.712 97.0645 138.551 97.4127C137.855 97.6448 137.274 99.502 136.81 100.198C133.096 104.609 132.515 107.627 128.453 111.573C123.694 116.216 116.033 117.725 109.765 115.288C107.328 114.359 104.89 112.734 102.221 112.966" fill="#F09BA7"/>
</g>
<path d="M119.051 56.7876C127.175 63.4036 135.3 73.85 135.068 84.1803C134.836 94.5106 127.292 104.377 117.193 106.698C110.577 108.207 103.729 106.582 97.4613 104.145C92.5863 102.287 86.2024 98.2249 82.4882 94.5106C78.7739 90.7964 76.3364 85.5732 76.8007 80.2339C77.4971 72.6893 83.765 66.8858 90.4971 63.4036C99.0863 58.5287 109.184 56.3233 119.051 56.7876Z" fill="#FFE1BD"/>
<path d="M127.873 65.8407C131.587 71.7603 135.301 77.796 135.533 84.9924C135.882 93.2334 131.123 100.662 124.275 104.957C113.132 112.037 99.6676 108.439 88.9891 102.403C88.2926 101.939 87.5962 102.983 88.0605 103.564C92.3551 108.323 101.176 110.412 107.328 110.876C114.525 111.34 121.953 109.599 127.757 104.957C140.641 94.6263 138.9 76.8674 127.989 65.7246C127.873 65.7246 127.757 65.8407 127.873 65.8407Z" fill="black"/>
<path d="M104.659 76.8681C101.409 73.8502 94.2128 74.4306 93.2842 79.6538C93.1681 80.2341 93.2842 81.2788 94.0967 81.3949C95.1413 81.5109 95.3735 80.2341 95.7217 79.5377C97.3467 76.4038 101.061 76.752 103.847 77.9127C104.543 78.0288 105.24 77.3324 104.659 76.8681Z" fill="black"/>
<path d="M116.613 74.5468C117.542 73.7343 117.89 72.8057 119.399 72.5736C120.559 72.4575 121.72 72.8057 122.649 73.5022C123.809 74.1986 124.854 72.4575 123.693 71.645C122.184 70.7165 120.327 70.2522 118.47 70.9486C117.077 71.4129 115.452 72.6897 115.684 74.3146C115.8 74.7789 116.381 74.7789 116.613 74.5468Z" fill="black"/>
<path d="M94.0977 87.5466C94.5619 88.3591 101.062 98.4573 110.696 98.6894C114.526 98.8055 117.892 97.2966 118.821 96.8323C120.562 96.0198 123.812 94.5109 124.16 91.9573C124.276 91.1448 124.044 90.4484 123.812 89.8681C123.231 88.0109 122.419 85.2252 121.955 81.2788" fill="white"/>
<path d="M121.837 80.6987C117.659 79.8862 113.248 81.8594 109.418 83.3683C107.212 84.1808 105.007 85.1093 102.802 85.6897C100.016 86.3861 97.2303 86.154 94.5607 86.8504C94.2125 86.9665 94.0964 87.5468 94.4446 87.779C98.0428 89.6361 102.686 87.8951 106.284 86.6183C111.507 84.6451 116.614 83.0201 121.837 81.3951C122.069 81.1629 122.069 80.6987 121.837 80.6987Z" fill="black"/>
<path d="M93.7476 87.6626C95.0244 91.2608 97.5779 94.5108 100.712 96.7162C103.381 98.5733 107.676 100.547 110.81 98.9215C111.042 98.8054 110.926 98.4572 110.694 98.3412C107.444 97.1804 104.426 97.4126 101.408 95.4394C98.3904 93.3501 96.4172 90.3323 94.444 87.4305C94.2119 87.0823 93.6315 87.1983 93.7476 87.6626Z" fill="black"/>
<path d="M118.818 96.9479C120.095 96.4836 121.604 96.3676 122.765 95.5551C123.926 94.7426 124.738 93.5819 124.854 92.189C124.97 91.2604 123.693 91.2604 123.345 91.9569C122.881 93.1176 122.417 93.9301 121.372 94.6265C120.443 95.3229 119.631 96.0194 118.702 96.5997C118.586 96.8318 118.702 96.9479 118.818 96.9479Z" fill="black"/>
<path d="M123.927 89.8678C124.276 88.7071 123.927 87.3143 123.695 86.1536C123.347 84.5286 122.883 82.9036 122.767 81.1625C122.651 80.0018 120.793 80.0018 120.91 81.1625C121.026 82.7875 121.374 84.1804 121.954 85.6893C122.418 87.0821 122.883 88.5911 123.579 89.8678C123.695 90.1 123.927 90.1 123.927 89.8678Z" fill="black"/>
<path d="M121.953 99.5015C120.444 100.662 118.587 101.359 116.73 101.823C115.569 102.055 113.596 101.939 112.899 102.984C112.783 103.1 112.899 103.332 112.899 103.448C113.944 104.725 116.73 103.796 117.89 103.332C119.747 102.635 121.256 101.475 122.069 99.7336C122.185 99.6175 122.069 99.5015 121.953 99.5015Z" fill="black"/>
<path d="M95.4877 86.3853C94.9074 86.2693 94.327 86.2693 93.7466 86.5014C93.1663 86.7335 92.5859 87.1978 92.5859 87.8942C92.5859 88.4746 93.1663 88.8228 93.6306 88.4746C93.9788 88.2425 94.0949 87.8943 94.4431 87.7782C94.7913 87.6621 95.1395 87.546 95.4877 87.43C96.0681 87.3139 96.0681 86.5014 95.4877 86.3853Z" fill="black"/>
<path d="M127.292 64.3325C125.435 57.8325 118.935 52.6094 112.667 50.6361C112.319 50.5201 112.203 50.9844 112.435 51.1004C115.221 52.9576 118.123 54.5826 120.676 56.7879C123.23 58.9932 125.203 61.6629 127.06 64.4486C127.176 64.5647 127.408 64.5647 127.292 64.3325Z" fill="black"/>
<path d="M152.483 6.41258C151.902 6.41258 149.929 6.76079 150.277 10.2429C150.509 13.609 151.09 14.5375 151.322 15.234C151.438 15.4661 150.858 15.8143 151.09 17.5554C151.206 19.1804 151.554 21.5018 152.018 22.1982C152.018 22.1982 151.786 23.0107 152.134 23.9393C152.483 24.7518 152.831 27.6535 153.063 28.35C153.295 29.0464 154.456 29.2785 154.804 29.0464C155.152 28.8143 155.849 28.1178 155.5 25.9125C155.268 23.7071 155.5 22.1982 155.152 22.0821C154.688 21.85 155.036 21.9661 155.268 20.9214C155.384 19.8768 155.268 15.6982 154.92 15.234C154.688 14.8857 155.384 14.5375 154.804 11.6358C154.224 8.50185 153.875 6.29651 152.483 6.41258Z" fill="#EC1E66"/>
<path d="M168.034 8.73438C167.337 8.73438 166.293 10.0112 165.828 11.5201C165.48 13.029 164.9 13.8415 165.944 14.1897C165.944 14.1897 165.364 14.0736 164.9 15.1183C164.552 16.1629 163.971 19.0647 163.739 19.8772C163.507 20.6897 163.507 21.154 164.087 21.6182C164.087 21.6182 163.391 21.8504 163.043 22.6629C162.694 23.4754 161.766 25.4486 161.534 26.0289C161.302 26.4932 161.766 27.6539 162.346 28.2343C162.81 28.8146 163.739 28.2343 164.087 28.0021C164.435 27.77 165.48 25.9129 165.944 24.8682C166.177 24.2879 166.641 22.779 166.757 22.5468C166.873 22.3147 168.034 19.4129 168.15 18.3683C168.266 17.4397 168.382 16.279 168.382 16.279C168.382 16.279 168.382 15.6986 168.846 15.1183C169.31 14.5379 170.123 11.5201 169.775 10.4754C169.543 9.19866 168.962 8.73438 168.034 8.73438Z" fill="#EC1E66"/>
<path d="M182.194 17.0911C181.729 16.859 180.337 15.9304 178.944 17.4393C177.551 18.8322 176.39 21.9661 176.738 22.1983C176.738 22.1983 175.578 22.4304 174.533 24.1715C172.908 26.8411 173.256 27.1893 173.024 27.5375C173.024 27.5375 171.747 27.8857 171.167 28.8143C170.47 29.6268 169.426 31.2518 169.658 32.2964C169.89 33.3411 170.238 34.0375 171.283 33.5732C172.328 33.225 174.417 30.6714 174.997 29.975C175.229 29.6268 175.229 29.2786 175.229 29.2786C175.229 29.2786 175.694 29.2786 176.738 28.0018C177.783 26.725 178.712 25.5643 178.828 25.3322C179.292 24.5197 179.64 23.5911 179.64 23.5911C179.64 23.5911 182.078 21.1536 182.426 19.1804C182.658 17.2072 182.194 17.0911 182.194 17.0911Z" fill="#EC1E66"/>
<path d="M176.508 38.216C176.508 38.216 175.927 38.9125 175.231 39.4928C174.65 40.0732 173.954 41.5821 173.954 42.1624C173.838 42.6267 174.534 43.3231 175.695 42.7428C178.829 41.0017 179.061 40.3053 179.061 40.3053C179.061 40.3053 179.874 40.4214 182.195 38.216C182.891 37.5196 183.124 36.9392 183.124 36.9392C183.124 36.9392 183.588 36.3589 184.284 35.6625C184.981 34.966 186.141 33.1089 186.257 31.6C186.374 30.0911 186.141 28.5821 184.981 28.8143C183.82 29.0464 182.543 31.3678 181.963 32.0643C181.383 32.7607 181.034 34.0375 181.034 34.0375C181.034 34.0375 180.686 34.2696 179.99 34.966C179.293 35.6625 177.784 37.4035 177.784 37.4035C177.784 37.4035 177.436 37.4035 176.508 38.216Z" fill="#EC1E66"/>
<path d="M146.329 43.7876C147.025 43.2072 148.07 39.9572 151.088 40.5376C152.365 40.7697 154.918 41.6983 155.847 42.859C156.311 43.4394 155.615 46.9215 156.079 48.7786C156.775 51.2161 158.516 53.3054 159.793 52.609C160.722 52.0286 161.999 51.5643 162.927 50.1715C164.552 47.9661 165.481 44.8322 163.856 44.0197C161.418 42.7429 156.543 41.8144 152.713 39.1447C148.883 36.4751 150.74 30.4394 154.454 31.4841C155.15 31.7162 160.258 30.2073 161.302 31.7162C162.463 33.6894 163.74 34.1537 164.784 34.3858C166.061 34.734 166.293 33.6894 168.382 35.1983C169.311 35.8948 171.284 41.4662 172.329 42.1626C173.374 42.859 173.606 46.3411 170.936 49.8233C168.266 53.3054 167.802 55.6268 166.641 57.4839C165.481 59.4571 162.231 62.3589 159.213 62.0107C156.195 61.5464 153.525 60.5018 153.177 59.3411C152.945 58.1804 152.829 57.0197 151.32 57.3679C149.811 57.7161 145.865 54.6982 144.472 51.9125C143.892 50.7518 143.659 46.109 146.329 43.7876Z" fill="#EC1E66"/>
<path d="M141.919 28.93C143.195 29.6265 143.776 31.3675 143.66 33.4568C143.544 34.8496 143.195 35.5461 143.428 35.7782C143.66 36.0104 143.776 36.1264 143.892 36.4746C144.24 37.8675 144.472 39.1443 144.588 40.1889C144.588 40.421 144.588 40.6532 144.588 41.0014C144.588 41.2335 144.82 41.4657 144.82 41.5818C144.936 44.7157 143.544 45.0639 142.731 43.671C142.731 43.671 142.731 43.555 142.615 43.555C141.454 41.93 141.803 40.0728 140.99 38.5639C139.829 36.0104 139.017 34.7336 138.32 33.5729C137.856 32.7604 137.624 31.3675 137.508 30.6711C137.392 28.2336 139.829 27.7693 141.919 28.93Z" fill="#EC1E66"/>
<path d="M140.525 91.3763C140.989 83.5996 138.668 75.9389 135.998 68.7425C133.561 62.0104 130.891 53.7694 126.48 48.0819C126.132 47.7337 125.668 48.0819 125.784 48.5462C127.293 55.6265 131.703 62.4747 134.257 69.2068C136.927 76.4032 138.9 83.7156 139.712 91.2603C139.828 91.9567 140.525 91.9567 140.525 91.3763Z" fill="black"/>
<path d="M91.079 109.832C85.0433 106.582 79.1237 103.1 72.972 99.8501C67.8649 97.2965 61.0167 92.6537 55.0971 92.8858C54.7488 92.8858 54.6328 93.3501 54.8649 93.5823C61.2488 96.6001 67.7488 99.0376 74.0166 102.288C79.4719 105.189 84.9273 108.323 90.7308 110.413C91.1951 110.761 91.5433 110.064 91.079 109.832Z" fill="black"/>
<path d="M96.766 106.698C93.6321 106.466 90.1499 108.904 88.2928 111.109C86.3196 113.431 84.2303 118.886 87.8285 120.743C88.0607 120.859 88.2928 120.743 88.2928 120.511C88.641 119.002 88.0607 117.493 88.2928 115.984C88.525 114.359 89.4535 112.966 90.4982 111.806C92.2392 110.065 94.5606 108.672 96.8821 108.091C97.6946 107.859 97.4624 106.698 96.766 106.698Z" fill="black"/>
<path d="M135.418 92.1891C137.739 91.9569 139.597 91.9569 141.686 93.0016C142.731 93.5819 143.659 94.1623 144.472 95.0908C145.052 95.6712 145.516 96.3676 146.213 96.5998C146.445 96.7158 146.793 96.5998 146.909 96.3676C147.606 94.0462 143.775 91.8409 142.034 91.1444C139.945 90.3319 136.579 89.5194 135.186 91.7248C135.07 91.9569 135.302 92.1891 135.418 92.1891Z" fill="black"/>
<path d="M107.676 130.144C110.81 138.966 110.229 150.573 103.033 156.841C102.685 157.073 102.917 157.769 103.381 157.769C108.14 157.305 110.113 151.037 110.694 146.975C111.622 141.171 110.81 135.251 108.14 130.028C107.908 129.68 107.56 129.912 107.676 130.144Z" fill="black"/>
<path d="M139.016 114.359C145.632 126.778 146.56 139.198 143.427 152.778C143.31 153.126 143.891 153.475 144.123 153.01C150.739 140.475 146.444 125.385 139.248 114.127C139.248 114.011 138.9 114.127 139.016 114.359Z" fill="black"/>
<path d="M144.24 152.778C138.32 158.581 131.356 164.037 122.767 164.849C119.517 165.197 116.267 164.965 113.133 163.921C108.606 162.528 106.981 159.626 103.499 156.84C103.267 156.724 102.803 156.724 102.919 157.072C103.847 164.733 115.106 166.938 121.374 166.59C131.008 166.126 139.017 160.555 144.24 152.778C144.356 152.894 144.24 152.778 144.24 152.778Z" fill="black"/>
<path d="M146.909 97.0641C148.301 104.493 142.498 110.296 140.177 116.796C140.06 117.144 140.525 117.377 140.757 117.144C144.935 113.082 150.507 102.752 146.909 97.0641C146.909 96.948 146.909 96.948 146.909 97.0641Z" fill="black"/>
<path d="M88.294 123.18C89.3386 123.76 90.7315 123.876 91.8922 124.225C94.2136 124.921 96.4189 125.733 98.6243 126.778C101.526 128.055 104.776 130.144 107.91 130.492C108.258 130.492 108.374 130.144 108.142 129.912C105.589 127.242 101.178 125.85 97.8118 124.573C95.2582 123.528 90.9636 121.207 88.294 122.483C87.9458 122.483 88.0618 122.948 88.294 123.18Z" fill="black"/>
<path d="M123.694 170.653C118.471 177.733 108.489 182.608 100.364 184.813C99.8996 184.929 99.8996 185.626 100.364 185.742C105.007 187.019 110.578 183.304 114.292 180.867C118.239 178.313 122.185 175.179 123.926 170.653C123.81 170.653 123.694 170.537 123.694 170.653Z" fill="black"/>
<path d="M98.0432 183.189C96.186 181.912 94.2128 180.984 92.7039 179.242C91.4271 177.734 90.4986 176.109 89.8022 174.367C89.2218 172.975 88.7575 171.35 88.7575 169.841C88.7575 168.1 89.57 167.171 90.3825 165.778C90.4986 165.546 90.3825 165.198 90.1504 165.082C85.1593 163.573 86.4361 171.93 87.1325 174.251C88.6414 178.662 92.5879 184.698 98.0432 183.885C98.2753 184.001 98.2753 183.421 98.0432 183.189Z" fill="black"/>
<path d="M91.0778 165.082C93.2832 165.546 95.9528 164.385 97.926 163.457C99.6671 162.644 102.569 161.483 102.917 159.394C102.917 159.162 102.801 158.814 102.453 158.93C101.524 159.162 100.828 159.742 100.131 160.207C98.9707 161.019 97.6939 161.599 96.301 162.064C94.56 162.76 92.2386 163.224 90.8457 164.501C90.8457 164.849 90.9618 165.082 91.0778 165.082Z" fill="black"/>
<path d="M144.006 154.751C142.846 157.537 142.614 160.555 141.801 163.457C141.453 164.966 140.989 166.475 140.176 167.751C139.48 169.028 138.899 169.26 138.783 170.653C138.783 170.769 138.899 170.885 139.015 170.885C141.453 170.653 142.381 167.171 142.962 165.198C143.89 161.832 144.122 158.234 144.006 154.751C144.122 154.751 144.006 154.751 144.006 154.751Z" fill="black"/>
<path d="M138.203 171.814C133.328 175.18 127.292 179.01 122.534 173.555C121.953 172.858 121.025 173.787 121.373 174.483C124.623 181.099 135.417 176.689 138.435 171.93C138.435 171.814 138.319 171.698 138.203 171.814Z" fill="black"/>
<path d="M89.9183 177.501C88.0611 177.037 86.204 177.385 84.3469 177.037C82.1415 176.573 80.1683 175.296 78.4272 173.903C75.2933 171.233 74.3648 168.099 72.5076 164.617C72.2755 164.269 71.6951 164.269 71.5791 164.733C70.6505 168.912 74.4808 173.555 77.4987 175.876C80.5165 178.198 86.6683 181.099 90.0343 177.965C90.2665 177.849 90.1504 177.501 89.9183 177.501Z" fill="black"/>
<path d="M71.926 165.314C73.8992 165.198 75.5242 162.644 76.3367 160.903C77.3813 158.814 77.7295 156.493 77.0331 154.171C76.917 153.939 76.5688 153.939 76.4527 154.171C75.7563 156.144 75.5242 158.234 74.5956 160.207C74.2474 161.019 73.667 161.832 73.0867 162.644C72.5063 163.457 71.8099 163.805 71.5777 164.734C71.4617 165.082 71.6938 165.314 71.926 165.314Z" fill="black"/>
<path d="M71.6948 165.546C70.418 164.617 68.6769 164.385 67.2841 163.573C65.6591 162.76 64.2662 161.715 62.8734 160.555C61.3645 159.162 59.9716 157.769 58.8109 156.028C57.7663 154.403 57.1859 152.546 56.1413 151.037C55.9091 150.689 55.3288 150.805 55.3288 151.269C54.8645 155.68 59.2752 160.555 62.5252 163.108C64.3823 164.501 69.6055 168.331 71.6948 165.778C71.8108 165.662 71.6948 165.662 71.6948 165.546Z" fill="black"/>
<path d="M76.5705 154.171C71.9277 148.368 61.8295 147.671 55.5617 150.689C55.0974 150.921 55.3295 151.618 55.7938 151.618C63.1063 150.689 69.8384 150.805 76.4544 154.287C76.5705 154.403 76.6866 154.287 76.5705 154.171Z" fill="black"/>
<path d="M109.301 149.993C109.417 144.653 95.1401 146.046 94.3276 150.457C94.2115 151.269 95.024 151.734 95.7204 151.269C97.5775 149.644 99.5507 149.064 101.988 148.832C103.961 148.716 106.863 148.484 108.14 150.341C108.372 150.921 109.301 150.689 109.301 149.993Z" fill="black"/>
<path d="M94.2132 151.27C93.6329 153.011 94.7936 155.564 95.6061 157.073C96.5346 158.93 97.9275 160.903 100.017 161.368C100.945 161.6 101.642 160.091 100.713 159.743C98.8561 158.93 97.6954 157.537 96.7668 155.796C95.9543 154.287 95.7222 152.662 95.1418 151.153C95.0257 150.689 94.3293 150.805 94.2132 151.27Z" fill="black"/>
<path d="M100.246 68.7427C98.7374 67.9302 96.7642 67.6981 95.0231 68.2784C93.6303 68.7427 91.7732 69.5552 91.541 71.1802C91.541 71.4123 91.8892 71.6445 92.0053 71.5284C93.166 70.7159 93.9785 69.9034 95.4874 69.4391C96.9963 69.0909 98.5053 68.8588 99.8981 69.4391C100.362 69.5552 100.595 68.9749 100.246 68.7427Z" fill="black"/>
<path d="M110.926 66.1892C111.855 65.1446 113.364 64.4482 114.757 64.1C115.569 63.8678 116.382 63.8678 117.194 63.9839C117.774 64.1 118.239 64.3321 118.819 64.3321C119.051 64.3321 119.283 64.1 119.167 63.8678C118.471 62.2428 115.917 62.475 114.524 62.7071C112.667 63.0553 110.81 64.1 110.578 65.9571C110.462 66.1892 110.81 66.4214 110.926 66.1892Z" fill="black"/>
<path d="M85.3921 99.7335C85.0438 99.5014 84.8117 99.2693 84.5796 98.9211C84.2314 98.3407 83.1867 98.9211 83.5349 99.5014C83.8831 99.9657 84.2314 100.43 84.8117 100.662C85.5081 101.126 86.0885 100.082 85.3921 99.7335Z" fill="black"/>
<path d="M80.6317 97.8765C81.3281 97.8765 81.3281 96.7158 80.6317 96.7158C79.9353 96.7158 79.9353 97.8765 80.6317 97.8765Z" fill="black"/>
<path d="M106.401 52.8414C102.571 50.7521 98.3923 49.8236 94.0977 49.1271C92.4727 48.895 90.8477 48.6629 89.1067 49.0111C86.2049 49.5914 84.2317 51.5646 80.8656 50.4039C79.821 50.0557 79.3567 51.6807 80.4013 52.0289C83.7674 53.1896 86.2049 51.3325 89.4549 50.7521C94.3298 49.9396 101.062 51.9128 105.357 54.2343C106.517 54.8146 107.33 53.3057 106.401 52.8414Z" fill="black"/>
<path d="M116.15 53.0735C115.569 51.7967 114.757 51.2164 113.364 50.8682C111.042 50.4039 110.578 51.4485 108.141 48.6628C107.676 48.1985 107.444 47.386 106.98 46.9217C103.962 43.5557 99.7836 47.0378 96.3015 45.0646C95.3729 44.4843 94.4443 45.9932 95.3729 46.5735C99.0872 48.7789 103.15 45.2968 106.284 49.1271C107.096 50.0557 107.444 51.2164 108.605 51.9128C110.462 52.9574 113.596 51.5646 114.525 53.886C115.105 55.0467 116.498 54.1181 116.15 53.0735Z" fill="black"/>
<path d="M92.4709 56.2074C86.2031 55.0467 82.3728 59.8056 76.3371 59.3413C73.2032 59.1092 69.9532 58.761 68.5603 62.127C68.096 63.1717 69.605 63.9842 70.0692 63.0556C71.8103 58.877 77.7299 62.127 81.096 61.0824C85.1585 59.8056 87.1317 57.0199 92.0066 57.9485C93.0513 58.0645 93.5156 56.3235 92.4709 56.2074Z" fill="black"/>
<path d="M81.3281 63.8679C79.3549 63.0555 77.0334 62.0108 74.8281 62.7072C72.2745 63.5197 71.6942 66.1894 69.6049 67.5822C66.3549 69.6715 58.6942 68.7429 59.8549 74.8947C60.0871 75.9393 61.7121 75.475 61.4799 74.4304C61.2478 73.1536 63.9174 71.1804 64.9621 70.8322C65.6585 70.6001 66.5871 70.6001 67.2835 70.484C68.5603 70.2518 69.837 70.0197 70.8817 69.2072C71.8102 68.5108 72.1585 67.8144 72.7388 67.0019C74.712 63.984 76.8013 63.8679 80.2834 65.3769C81.4441 65.8412 82.3727 64.3322 81.3281 63.8679Z" fill="black"/>
<path d="M73.2044 73.9662C70.6509 79.3055 60.5527 75.7073 59.9723 83.1358C59.8563 84.2965 61.5973 84.1804 61.7134 83.1358C62.0616 78.9572 67.633 79.3055 70.5348 78.2608C72.3919 77.6805 73.9009 76.5198 74.7134 74.7787C75.1776 73.8501 73.6687 73.0376 73.2044 73.9662Z" fill="black"/>
<path d="M72.043 82.3231C70.1858 82.091 68.5608 82.5553 67.0519 83.8321C64.8466 85.6892 62.5252 90.7963 58.927 89.1713C57.8823 88.707 57.0698 90.216 57.9984 90.6802C59.9716 91.4927 61.8287 91.2606 63.5698 89.9838C66.1234 88.1267 67.8644 83.4838 71.5787 83.9481C72.7394 84.0642 73.2037 82.4392 72.043 82.3231Z" fill="black"/>
<path d="M75.8745 90.3321C74.0173 91.6089 71.6959 91.8411 69.6066 90.7964C68.562 90.3321 67.7495 91.8411 68.6781 92.3053C71.3477 93.5821 74.2495 93.4661 76.687 91.8411C77.6155 91.1446 76.803 89.6357 75.8745 90.3321Z" fill="black"/>
<path d="M39.4272 70.5998C39.6593 70.4837 40.5879 70.1355 41.2843 71.6444C41.9807 73.1534 42.3289 74.0819 42.6771 74.7783C43.0254 75.4748 43.7218 77.2158 43.7218 77.6801C43.7218 78.1444 44.3021 79.4212 44.4182 79.7694C44.5343 80.1176 44.07 80.4658 43.8379 80.4658C43.6057 80.4658 43.2575 80.3498 42.7932 79.3051C42.3289 78.3765 41.9807 77.564 41.7486 77.2158C41.4004 76.8676 40.1236 74.6623 39.7754 73.2694C39.195 71.8766 38.8468 70.948 39.4272 70.5998Z" fill="black"/>
<path d="M33.6253 75.243C33.8575 75.1269 34.67 75.359 35.1343 75.8233C35.5985 76.4037 35.9468 76.7519 36.295 77.1001C36.7593 77.4483 37.5717 78.4929 37.92 78.7251C38.1521 78.9572 38.5003 79.4215 38.8485 79.7697C39.1967 80.0019 40.5896 81.5108 40.4735 81.859C40.3574 82.2072 39.8932 82.2072 39.661 82.2072C39.5449 82.2072 38.6164 81.7429 38.1521 81.2786C37.92 81.0465 37.3396 80.5822 37.2235 80.4661C37.1075 80.3501 35.9468 79.4215 35.7146 79.0733C35.4825 78.7251 33.2771 76.7519 33.1611 76.2876C33.045 75.8233 33.2771 75.4751 33.6253 75.243Z" fill="black"/>
<path d="M29.7939 82.0906C29.91 81.8585 30.2582 81.1621 31.1868 81.5103C32.1153 81.7424 33.7403 82.7871 34.5528 83.2513C35.8296 83.9478 36.526 84.1799 36.9903 84.296C37.4546 84.5281 38.2671 84.8763 38.3831 85.3406C38.4992 85.8049 36.0617 85.8049 35.7135 85.6888C35.4814 85.5728 35.2492 85.5728 34.5528 85.2245C33.8564 84.9924 33.16 84.6442 33.0439 84.6442C32.6957 84.412 30.7225 83.7156 30.1421 82.9031C29.5618 82.2067 29.7939 82.0906 29.7939 82.0906Z" fill="black"/>
<path d="M37.1068 89.4036C37.1068 89.4036 37.5711 89.5196 37.9193 89.6357C38.2675 89.7518 38.9639 90.2161 39.08 90.4482C39.1961 90.6803 39.08 91.0286 38.4996 91.0286C36.7586 91.0286 36.2943 91.0286 34.7854 90.6803C34.3211 90.5643 33.7407 90.2161 33.2765 90.1C32.8122 89.9839 31.8836 89.5196 31.4193 88.9393C30.955 88.3589 30.7229 87.6625 31.3033 87.5464C31.8836 87.4304 32.9282 88.0107 33.2765 88.2429C33.6247 88.3589 34.3211 88.8232 34.7854 88.9393C35.2497 89.0554 36.2943 89.4036 36.2943 89.4036C36.2943 89.4036 36.5264 89.2875 37.1068 89.4036Z" fill="black"/>
<path d="M50.8005 84.5286C50.3362 84.4125 49.1755 83.3679 48.0148 84.2964C47.5505 84.6446 46.738 85.6893 46.6219 86.3857C46.6219 86.7339 46.0416 86.1536 46.9702 84.0643C47.8987 82.0911 45.6934 80.0018 44.4166 81.2786C44.1845 81.5107 41.747 82.0911 41.6309 83.0196C41.6309 84.0643 41.1666 84.6446 40.8184 84.9928C40.3541 85.4571 40.0059 85.1089 39.5416 86.1536C39.3095 86.6178 39.7738 89.4035 39.5416 89.9839C39.3095 90.4482 40.0059 91.9571 41.9791 92.7696C43.9523 93.5821 44.6487 94.3946 45.5773 94.9749C46.5059 95.4392 48.5952 96.0196 49.6398 95.091C50.8005 94.1624 51.613 93.1178 51.4969 92.5375C51.3809 91.9571 51.1487 91.4928 51.8451 91.2607C52.5416 91.0285 53.4701 88.8232 53.3541 87.4303C53.4701 86.85 52.4255 84.8768 50.8005 84.5286Z" fill="black"/>
<path d="M49.1763 77.4479C48.8281 78.0283 48.9442 78.8407 49.5246 79.7693C49.8728 80.3497 50.1049 80.93 50.221 81.0461C50.4531 81.7425 51.0335 83.2514 51.0335 83.3675C51.7299 84.6443 52.3103 84.5282 52.4263 83.7157C52.5424 82.7872 51.846 79.305 51.846 78.6086C51.846 78.1443 51.6138 77.564 51.4978 77.2157C50.8013 76.055 49.7567 76.4033 49.1763 77.4479Z" fill="black"/>
<path d="M110.463 29.279C110.346 29.395 109.766 30.0915 110.811 31.02C111.855 31.9486 112.552 32.5289 113.016 32.9932C113.48 33.4575 114.757 34.5021 115.105 34.6182C115.454 34.7343 116.382 35.5468 116.614 35.6629C116.846 35.7789 117.311 35.5468 117.311 35.4307C117.311 35.3146 117.311 34.8504 116.614 34.27C115.918 33.6896 115.454 33.1093 115.221 32.7611C114.989 32.4129 113.48 30.7879 112.552 30.0914C111.507 29.5111 110.811 28.9307 110.463 29.279Z" fill="black"/>
<path d="M115.918 25.7969C115.686 26.029 115.686 26.7255 116.034 27.1898C116.382 27.7701 116.614 28.1183 116.73 28.5826C116.962 29.0469 117.543 30.0915 117.659 30.3237C117.775 30.6719 118.123 31.0201 118.239 31.3683C118.355 31.7165 119.284 33.2254 119.516 33.2254C119.864 33.2254 119.98 32.7612 119.98 32.6451C119.98 32.529 119.864 31.6004 119.632 31.1362C119.516 30.904 119.284 30.3237 119.284 30.2076C119.284 30.0915 118.819 28.9308 118.587 28.5826C118.355 28.2344 117.311 25.913 116.962 25.6808C116.498 25.4487 116.15 25.4487 115.918 25.7969Z" fill="black"/>
<path d="M122.534 24.404C122.302 24.404 121.605 24.5201 121.605 25.3326C121.605 26.1451 121.954 27.7701 122.07 28.5826C122.302 29.8593 122.302 30.4397 122.302 30.904C122.302 31.3683 122.418 32.1808 122.766 32.4129C123.114 32.645 123.347 32.7611 123.579 32.4129C123.811 31.9486 123.695 30.6718 123.695 30.3236C123.695 30.0915 123.695 29.8593 123.695 29.1629C123.695 28.4665 123.579 27.8861 123.579 27.7701C123.463 27.4218 123.463 25.5647 122.998 24.8683C122.65 24.2879 122.534 24.404 122.534 24.404Z" fill="black"/>
<path d="M126.595 32.4129C126.595 32.4129 126.595 32.7611 126.595 33.1093C126.595 33.4576 126.828 34.154 126.944 34.2701C127.06 34.5022 127.408 34.5022 127.64 33.9218C128.104 32.529 128.22 32.0647 128.336 30.7879C128.336 30.4397 128.22 29.8594 128.22 29.3951C128.22 28.9308 128.104 28.1183 127.756 27.5379C127.408 27.0737 126.828 26.6094 126.595 27.0737C126.363 27.4219 126.595 28.4665 126.595 28.9308C126.595 29.279 126.828 29.9754 126.711 30.3236C126.595 30.904 126.595 31.9486 126.595 32.4129Z" fill="black"/>
<path d="M118.82 42.5105C118.82 42.1623 118.356 40.8855 119.401 40.1891C119.865 39.9569 121.374 39.0284 119.517 39.2605C117.66 39.4926 116.499 37.1712 117.892 36.4748C118.124 36.3587 119.285 34.5016 120.097 34.6177C121.026 34.8498 121.49 34.7337 121.838 34.5016C122.303 34.2695 122.07 33.8052 123.115 33.8052C123.579 33.8052 125.785 34.9659 126.249 34.8498C126.713 34.7337 127.758 35.7784 127.874 37.6355C127.99 39.4926 128.57 40.3051 128.686 41.1176C128.919 42.0462 128.686 43.7873 127.642 44.4837C126.597 45.1801 125.436 45.6444 125.088 45.2962C124.74 44.948 122.999 46.2248 120.445 45.4123C119.981 45.2962 118.704 43.9033 118.82 42.5105Z" fill="black"/>
<path d="M113.48 39.1446C114.061 39.0285 114.757 39.3767 115.221 40.0731C115.57 40.5374 116.962 41.582 117.311 41.9303C117.427 41.9303 117.659 42.2785 117.775 42.2785C118.704 43.207 118.355 43.6713 117.775 43.4392C116.962 43.3231 116.614 42.6267 115.918 42.3945C114.873 41.9303 114.293 41.8142 113.713 41.582C113.364 41.466 112.9 41.1178 112.668 40.8856C111.855 40.1892 112.436 39.3767 113.48 39.1446Z" fill="black"/>
</svg>
