<svg width="25" height="25" viewBox="0 0 25 25" fill="none" xmlns="http://www.w3.org/2000/svg">
<path d="M7.64416 0.494834C7.3546 0.494834 6.37011 0.647172 6.54384 2.17056C6.65967 3.64316 6.94922 4.0494 7.06504 4.35408C7.12296 4.45564 6.8334 4.60797 6.94922 5.36967C7.00713 6.08058 7.18087 7.09617 7.41252 7.40085C7.41252 7.40085 7.29669 7.75631 7.47042 8.16254C7.64416 8.518 7.81789 9.78749 7.93372 10.0922C8.04954 10.3968 8.62865 10.4984 8.80239 10.3968C8.97612 10.2953 9.3236 9.9906 9.14986 9.02579C9.03404 8.06098 9.14986 7.40085 8.97612 7.35007C8.74448 7.24851 8.91821 7.29929 9.03403 6.84227C9.09194 6.38526 9.03404 4.5572 8.8603 4.35408C8.74448 4.20174 9.09195 4.0494 8.80239 2.77991C8.51283 1.40887 8.3391 0.444054 7.64416 0.494834Z" fill="currentColor"/>
<path d="M15.4063 1.51074C15.0588 1.51074 14.5376 2.06932 14.306 2.72945C14.1323 3.38959 13.8427 3.74504 14.3639 3.89738C14.3639 3.89738 14.0743 3.8466 13.8427 4.30362C13.669 4.76063 13.3794 6.03012 13.2636 6.38558C13.1478 6.74103 13.1478 6.94415 13.4373 7.14727C13.4373 7.14727 13.0899 7.24883 12.9161 7.60429C12.7424 7.95974 12.2791 8.823 12.1633 9.07689C12.0474 9.28001 12.2791 9.78781 12.5687 10.0417C12.8003 10.2956 13.2636 10.0417 13.4373 9.94014C13.6111 9.83858 14.1323 9.02611 14.3639 8.5691C14.4797 8.3152 14.7114 7.65507 14.7693 7.55351C14.8272 7.45195 15.4063 6.18246 15.4642 5.72544C15.5221 5.31921 15.58 4.81141 15.58 4.81141C15.58 4.81141 15.58 4.55751 15.8117 4.30362C16.0433 4.04972 16.4487 2.72945 16.275 2.27244C16.1592 1.71386 15.8696 1.51074 15.4063 1.51074Z" fill="currentColor"/>
<path d="M22.4662 5.16621C22.2346 5.06465 21.5396 4.65841 20.8447 5.31855C20.1498 5.9279 19.5706 7.29895 19.7444 7.40051C19.7444 7.40051 19.1653 7.50207 18.6441 8.26376C17.8333 9.43169 18.007 9.58403 17.8912 9.73637C17.8912 9.73637 17.2542 9.8887 16.9646 10.2949C16.6172 10.6504 16.096 11.3613 16.2118 11.8183C16.3276 12.2753 16.5013 12.58 17.0225 12.3769C17.5437 12.2246 18.5861 11.1074 18.8757 10.8027C18.9915 10.6504 18.9915 10.4981 18.9915 10.4981C18.9915 10.4981 19.2232 10.4981 19.7444 9.93948C20.2656 9.38091 20.7289 8.87311 20.7868 8.77155C21.0184 8.4161 21.1922 8.00986 21.1922 8.00986C21.1922 8.00986 22.4083 6.94349 22.582 6.08024C22.6979 5.21699 22.4662 5.16621 22.4662 5.16621Z" fill="currentColor"/>
<path d="M19.6319 14.4087C19.6319 14.4087 19.3423 14.7134 18.9949 14.9673C18.7053 15.2212 18.3578 15.8813 18.3578 16.1352C18.2999 16.3383 18.6474 16.643 19.2265 16.3891C20.7901 15.6274 20.9059 15.3227 20.9059 15.3227C20.9059 15.3227 21.3113 15.3735 22.4696 14.4087C22.817 14.104 22.9328 13.8501 22.9328 13.8501C22.9328 13.8501 23.1645 13.5962 23.5119 13.2915C23.8594 12.9869 24.4385 12.1744 24.4965 11.5143C24.5544 10.8541 24.4385 10.194 23.8594 10.2955C23.2803 10.3971 22.6433 11.4127 22.3537 11.7174C22.0642 12.0221 21.8904 12.5806 21.8904 12.5806C21.8904 12.5806 21.7167 12.6822 21.3692 12.9869C21.0218 13.2915 20.2689 14.0532 20.2689 14.0532C20.2689 14.0532 20.0952 14.0532 19.6319 14.4087Z" fill="currentColor"/>
<path d="M4.57716 16.846C4.92462 16.5921 5.44583 15.1702 6.95153 15.4241C7.58856 15.5257 8.8626 15.9319 9.3259 16.4397C9.55754 16.6936 9.21008 18.217 9.44173 19.0295C9.78919 20.0958 10.6579 21.0099 11.2949 20.7052C11.7582 20.4513 12.3952 20.2482 12.8585 19.6388C13.6693 18.674 14.1326 17.303 13.3218 16.9475C12.1057 16.3889 9.67337 15.9827 7.76229 14.8148C5.85121 13.6468 6.77779 11.0063 8.63096 11.4633C8.97843 11.5649 11.5265 10.9048 12.0477 11.5649C12.6269 12.4281 13.2639 12.6313 13.7851 12.7328C14.4221 12.8852 14.5379 12.4281 15.5803 13.0883C16.0436 13.3929 17.0281 15.8304 17.5493 16.135C18.0705 16.4397 18.1864 17.9631 16.8544 19.4865C15.5224 21.0099 15.2908 22.0255 14.7117 22.8379C14.1326 23.7012 12.511 24.9707 11.0053 24.8183C9.49964 24.6152 8.16767 24.1582 7.99394 23.6504C7.87812 23.1426 7.8202 22.6348 7.06735 22.7872C6.3145 22.9395 4.34552 21.6192 3.65058 20.4005C3.36102 19.8927 3.24519 17.8615 4.57716 16.846Z" fill="currentColor"/>
<path d="M2.3745 10.3453C3.01153 10.65 3.30109 11.4117 3.24318 12.3257C3.18527 12.9351 3.01153 13.2397 3.12735 13.3413C3.24317 13.4428 3.30109 13.4936 3.359 13.646C3.53273 14.2553 3.64855 14.8139 3.70647 15.2709C3.70647 15.3725 3.70647 15.474 3.70647 15.6264C3.70647 15.7279 3.82229 15.8295 3.82229 15.8803C3.8802 17.2513 3.18526 17.4037 2.77988 16.7943C2.77988 16.7943 2.77988 16.7435 2.72197 16.7435C2.14286 16.0326 2.31659 15.2201 1.91121 14.56C1.3321 13.4428 0.926718 12.8843 0.57925 12.3765C0.347604 12.021 0.231778 11.4117 0.173867 11.107C0.115955 10.0406 1.3321 9.8375 2.3745 10.3453Z" fill="currentColor"/>
</svg>
