<svg width="25" height="25" viewBox="0 0 25 25" fill="none" xmlns="http://www.w3.org/2000/svg">
<path d="M7.64416 0.494712C7.3546 0.494712 6.37011 0.64705 6.54384 2.17044C6.65967 3.64304 6.94922 4.04928 7.06504 4.35396C7.12296 4.45551 6.8334 4.60785 6.94922 5.36955C7.00713 6.08046 7.18087 7.09605 7.41252 7.40073C7.41252 7.40073 7.29669 7.75618 7.47042 8.16242C7.64416 8.51788 7.81789 9.78736 7.93372 10.092C8.04954 10.3967 8.62865 10.4983 8.80239 10.3967C8.97612 10.2952 9.3236 9.99048 9.14986 9.02567C9.03404 8.06086 9.14986 7.40073 8.97612 7.34995C8.74448 7.24839 8.91821 7.29917 9.03403 6.84215C9.09194 6.38514 9.03404 4.55707 8.8603 4.35396C8.74448 4.20162 9.09195 4.04928 8.80239 2.77979C8.51283 1.40874 8.3391 0.443932 7.64416 0.494712Z" fill="#EC1E66"/>
<path d="M15.4063 1.51062C15.0588 1.51062 14.5376 2.0692 14.306 2.72933C14.1323 3.38946 13.8427 3.74492 14.3639 3.89726C14.3639 3.89726 14.0743 3.84648 13.8427 4.30349C13.669 4.76051 13.3794 6.03 13.2636 6.38546C13.1478 6.74091 13.1478 6.94403 13.4373 7.14715C13.4373 7.14715 13.0899 7.24871 12.9161 7.60416C12.7424 7.95962 12.2791 8.82287 12.1633 9.07677C12.0474 9.27989 12.2791 9.78768 12.5687 10.0416C12.8003 10.2955 13.2636 10.0416 13.4373 9.94002C13.6111 9.83846 14.1323 9.02599 14.3639 8.56898C14.4797 8.31508 14.7114 7.65494 14.7693 7.55338C14.8272 7.45183 15.4063 6.18234 15.4642 5.72532C15.5221 5.31909 15.58 4.81129 15.58 4.81129C15.58 4.81129 15.58 4.55739 15.8117 4.30349C16.0433 4.0496 16.4487 2.72933 16.275 2.27231C16.1592 1.71374 15.8696 1.51062 15.4063 1.51062Z" fill="#EC1E66"/>
<path d="M22.4662 5.16621C22.2346 5.06465 21.5396 4.65841 20.8447 5.31855C20.1498 5.9279 19.5706 7.29895 19.7444 7.40051C19.7444 7.40051 19.1653 7.50207 18.6441 8.26376C17.8333 9.43169 18.007 9.58403 17.8912 9.73637C17.8912 9.73637 17.2542 9.8887 16.9646 10.2949C16.6172 10.6504 16.096 11.3613 16.2118 11.8183C16.3276 12.2753 16.5013 12.58 17.0225 12.3769C17.5437 12.2246 18.5861 11.1074 18.8757 10.8027C18.9915 10.6504 18.9915 10.4981 18.9915 10.4981C18.9915 10.4981 19.2232 10.4981 19.7444 9.93948C20.2656 9.38091 20.7289 8.87311 20.7868 8.77155C21.0184 8.4161 21.1922 8.00986 21.1922 8.00986C21.1922 8.00986 22.4083 6.94349 22.582 6.08024C22.6979 5.21699 22.4662 5.16621 22.4662 5.16621Z" fill="#EC1E66"/>
<path d="M19.6319 14.4086C19.6319 14.4086 19.3423 14.7132 18.9949 14.9671C18.7053 15.221 18.3578 15.8812 18.3578 16.1351C18.2999 16.3382 18.6474 16.6429 19.2265 16.389C20.7901 15.6273 20.9059 15.3226 20.9059 15.3226C20.9059 15.3226 21.3113 15.3734 22.4696 14.4086C22.817 14.1039 22.9328 13.85 22.9328 13.85C22.9328 13.85 23.1645 13.5961 23.5119 13.2914C23.8594 12.9867 24.4385 12.1743 24.4965 11.5141C24.5544 10.854 24.4385 10.1939 23.8594 10.2954C23.2803 10.397 22.6433 11.4126 22.3537 11.7173C22.0642 12.0219 21.8904 12.5805 21.8904 12.5805C21.8904 12.5805 21.7167 12.6821 21.3692 12.9867C21.0218 13.2914 20.2689 14.0531 20.2689 14.0531C20.2689 14.0531 20.0952 14.0531 19.6319 14.4086Z" fill="#EC1E66"/>
<path d="M4.57716 16.8458C4.92462 16.5919 5.44583 15.1701 6.95153 15.424C7.58856 15.5256 8.8626 15.9318 9.3259 16.4396C9.55754 16.6935 9.21008 18.2169 9.44173 19.0294C9.78919 20.0957 10.6579 21.0098 11.2949 20.7051C11.7582 20.4512 12.3952 20.2481 12.8585 19.6387C13.6693 18.6739 14.1326 17.3028 13.3218 16.9474C12.1057 16.3888 9.67337 15.9826 7.76229 14.8147C5.85121 13.6467 6.77779 11.0062 8.63096 11.4632C8.97843 11.5648 11.5265 10.9046 12.0477 11.5648C12.6269 12.428 13.2639 12.6311 13.7851 12.7327C14.4221 12.885 14.5379 12.428 15.5803 13.0882C16.0436 13.3928 17.0281 15.8302 17.5493 16.1349C18.0705 16.4396 18.1864 17.963 16.8544 19.4864C15.5224 21.0098 15.2908 22.0253 14.7117 22.8378C14.1326 23.7011 12.511 24.9706 11.0053 24.8182C9.49964 24.6151 8.16767 24.1581 7.99394 23.6503C7.87812 23.1425 7.8202 22.6347 7.06735 22.787C6.3145 22.9394 4.34552 21.6191 3.65058 20.4004C3.36102 19.8926 3.24519 17.8614 4.57716 16.8458Z" fill="#EC1E66"/>
<path d="M2.3745 10.3453C3.01153 10.65 3.30109 11.4117 3.24318 12.3257C3.18527 12.9351 3.01153 13.2397 3.12735 13.3413C3.24317 13.4428 3.30109 13.4936 3.359 13.646C3.53273 14.2553 3.64855 14.8139 3.70647 15.2709C3.70647 15.3725 3.70647 15.474 3.70647 15.6264C3.70647 15.7279 3.82229 15.8295 3.82229 15.8803C3.8802 17.2513 3.18526 17.4037 2.77988 16.7943C2.77988 16.7943 2.77988 16.7435 2.72197 16.7435C2.14286 16.0326 2.31659 15.2201 1.91121 14.56C1.3321 13.4428 0.926718 12.8843 0.57925 12.3765C0.347604 12.021 0.231778 11.4117 0.173867 11.107C0.115955 10.0406 1.3321 9.8375 2.3745 10.3453Z" fill="#EC1E66"/>
</svg>
