<svg width="215" height="117" viewBox="0 0 215 117" fill="none" xmlns="http://www.w3.org/2000/svg">
<path d="M95.5566 13.7156C100.174 11.3725 100.2 3.54848 103.335 1.69491C105.56 0.298043 108.174 2.39268 108.309 4.67171C108.653 10.2434 101.871 14.0497 95.5566 13.7156Z" fill="#FBBF24"/>
<path d="M61.4107 38.3369C55.0046 28.6793 48.6179 34.3429 44.7387 29.65C41.2416 25.3631 48.9575 18.9151 56.7389 28.8137C58.8275 31.4406 60.7227 35.1641 61.4107 38.3369Z" fill="#00AEEF"/>
<path d="M161.318 50.9103C161.498 47.1256 161.602 44.0043 158.019 40.5115C155.565 38.0272 150.283 36.9077 149.803 32.9166C148.999 25.7332 161.415 25.3347 162.978 38.4387C163.459 42.4298 162.737 46.6074 161.318 50.9103Z" fill="#EB1D66"/>
<path d="M193.98 61.7495C193.574 61.3515 191.958 60.5619 190.047 63.1444C188.135 65.7269 188.063 66.7705 187.906 67.2531C187.827 67.4944 187.343 67.3378 186.387 68.629C185.673 69.9986 184.56 71.7725 184.325 72.4964C184.325 72.4964 183.605 73.0637 183.369 73.7877C183.133 74.5116 181.542 76.9311 181.385 77.4138C181.149 78.1377 181.719 78.8553 182.203 79.012C182.687 79.1686 183.571 78.921 184.683 77.1471C185.796 75.3732 186.916 74.4016 186.674 74.3233C186.51 74.0036 186.674 74.3233 187.472 73.5147C188.192 72.9474 190.503 69.9606 190.497 69.1583C190.575 68.917 191.38 68.9106 192.408 66.5758C193.999 64.1563 195.112 62.3824 193.98 61.7495Z" fill="#00AEEF"/>
<path d="M208.829 86.8264C208.744 86.2654 208.09 84.9868 206.401 85.2409C204.713 85.4949 201.827 86.9618 201.99 87.2814C201.99 87.2814 201.1 86.7268 199.255 87.4635C196.525 88.4478 196.689 88.7674 196.368 88.9304C196.368 88.9304 195.158 88.5388 194.274 88.7864C193.391 89.0341 191.623 89.5294 191.067 90.4163C190.511 91.3033 190.595 91.8642 191.485 92.4189C192.375 92.9735 195.347 92.0675 196.151 92.0612C196.472 91.8982 196.793 91.7352 196.793 91.7352C196.793 91.7352 197.035 91.8135 198.645 91.8008C200.091 91.4685 201.538 91.1362 201.78 91.2145C202.663 90.9668 203.383 90.3995 203.383 90.3995C203.383 90.3995 206.44 90.0545 207.88 88.9199C209.071 86.9047 208.829 86.8264 208.829 86.8264Z" fill="#00AEEF"/>
<path d="M203.566 72.5842C203.16 72.1863 201.471 72.4403 200.431 73.1706C199.311 74.1422 198.506 74.1485 198.997 75.1074C198.997 75.1074 198.591 74.7095 197.629 75.1985C196.667 75.6874 194.749 77.4677 194.108 77.7936C193.466 78.1196 193.309 78.6023 193.316 79.4045C193.316 79.4045 192.589 79.1695 191.948 79.4955C191.306 79.8215 189.382 80.7995 188.819 80.8841C188.499 81.0471 188.106 82.2537 188.191 82.8147C188.276 83.3756 189.244 83.6889 189.565 83.5259C189.807 83.6043 191.895 82.9459 192.615 82.3786C193.256 82.0527 194.297 81.3224 194.618 81.1594C194.938 80.9964 197.262 79.6141 197.982 79.0468C198.702 78.4795 199.5 77.6709 199.5 77.6709C199.5 77.6709 199.9 77.2666 200.463 77.1819C201.025 77.0973 203.427 75.4737 203.742 74.5084C204.54 73.6998 204.213 73.0605 203.566 72.5842Z" fill="#00AEEF"/>
<path d="M192.498 98.3475C192.498 98.3475 191.693 98.3538 190.809 98.6015C190.004 98.6078 188.643 99.5011 188.322 99.6641C188.001 99.8271 188.171 100.949 189.218 101.021C192.523 101.557 193.165 101.231 193.165 101.231C193.165 101.231 193.57 101.629 196.548 101.525C197.353 101.519 197.994 101.193 197.994 101.193C197.994 101.193 198.557 101.108 199.683 100.939C200.488 100.932 202.575 100.274 203.453 99.2239C204.33 98.174 205.207 97.1241 204.075 96.4911C203.185 95.9365 201.019 96.8362 200.135 97.0838C199.252 97.3315 198.289 97.8205 198.289 97.8205C198.289 97.8205 197.805 97.6638 196.922 97.9115C196.117 97.9178 193.865 98.2565 193.865 98.2565C193.865 98.2565 193.623 98.1782 192.498 98.3475Z" fill="#00AEEF"/>
<path d="M167.839 84.4998C168.644 84.4934 171.366 82.7069 173.237 85.1793C173.97 86.2166 175.193 88.2127 175.285 89.576C175.291 90.3782 172.81 92.2431 172.018 93.854C171.069 95.9475 171.088 98.3544 172.298 98.746C173.346 98.818 174.556 99.2096 176.002 98.8773C178.332 98.2973 180.977 96.752 180.159 95.1538C179.093 92.675 176.168 89.3283 175.089 85.245C174.011 81.1616 178.815 77.9144 180.771 80.9479C181.098 81.5871 185.62 83.3166 185.554 85.1625C185.409 87.2497 185.9 88.2086 186.39 89.1675C187.123 90.2048 187.843 89.6375 188.504 91.7183C188.752 92.5989 187.023 97.9079 187.193 99.0298C187.363 100.152 185.694 102.813 181.675 103.647C177.657 104.481 176.138 105.856 174.05 106.515C172.205 107.251 168.102 107.524 166.152 105.293C164.124 103.303 163.057 100.825 163.372 99.8594C163.928 98.9724 164.485 98.0855 163.111 97.3742C161.736 96.663 160.736 92.3383 161.359 89.6055C162.072 88.2359 164.54 84.7665 167.839 84.4998Z" fill="#00AEEF"/>
<path d="M173.372 71.6185C173.784 72.8187 173.234 74.508 171.958 75.9622C171.081 77.0121 170.276 77.0185 170.439 77.3381C170.603 77.6577 170.524 77.8991 170.203 78.0621C169.568 79.1903 169.175 80.3969 168.455 80.9642C168.377 81.2055 168.056 81.3685 167.978 81.6098C167.899 81.8511 167.82 82.0925 167.82 82.0925C166.066 84.1923 164.855 83.8007 165.085 82.2745C165.151 80.4286 166.591 79.294 166.82 77.7678C167.364 75.2763 167.515 73.9914 167.908 72.7848C167.98 71.7412 168.778 70.9326 169.014 70.2087C170.69 68.3501 172.47 69.4593 173.372 71.6185Z" fill="#00AEEF"/>
<path d="M21.873 60.5915C22.2802 60.1921 23.9026 59.3995 25.8214 61.9918C27.7402 64.5841 27.8127 65.6317 27.9705 66.1161C28.0494 66.3584 28.5354 66.2011 29.4948 67.4973C30.2112 68.8721 31.3284 70.6527 31.565 71.3794C31.565 71.3794 32.2878 71.9489 32.5244 72.6756C32.7611 73.4023 34.358 75.831 34.5157 76.3154C34.7524 77.0421 34.181 77.7625 33.695 77.9197C33.2089 78.077 32.322 77.8284 31.2048 76.0477C30.0876 74.2671 28.9641 73.2918 29.2071 73.2132C29.3713 72.8923 29.2071 73.2132 28.4055 72.4015C27.6828 71.832 25.3632 68.8339 25.3695 68.0285C25.2906 67.7863 24.4826 67.7799 23.4507 65.4362C21.8539 63.0075 20.7367 61.2269 21.873 60.5915Z" fill="#FBBF24"/>
<path d="M12.2537 71.4675C12.6609 71.068 14.3558 71.323 15.4005 72.0561C16.524 73.0314 17.332 73.0377 16.8395 74.0003C16.8395 74.0003 17.2467 73.6008 18.2125 74.0917C19.1783 74.5825 21.1035 76.3695 21.7473 76.6967C22.3912 77.0239 22.549 77.5084 22.5426 78.3137C22.5426 78.3137 23.2717 78.0779 23.9155 78.4051C24.5594 78.7323 26.491 79.714 27.0559 79.799C27.3778 79.9626 27.7723 81.1738 27.687 81.7368C27.6018 82.2999 26.6296 82.6144 26.3077 82.4508C26.0646 82.5294 23.9689 81.8686 23.2462 81.2992C22.6023 80.9719 21.5577 80.2389 21.2357 80.0753C20.9138 79.9116 18.5814 78.5241 17.8587 77.9547C17.1359 77.3852 16.3343 76.5735 16.3343 76.5735C16.3343 76.5735 15.9335 76.1677 15.3685 76.0827C14.8036 75.9977 12.3923 74.3679 12.0768 73.399C11.2751 72.5873 11.6034 71.9456 12.2537 71.4675Z" fill="#FBBF24"/>
<path d="M6.96824 85.7636C7.05351 85.2005 7.71013 83.9171 9.40503 84.172C11.0999 84.427 13.9973 85.8995 13.8331 86.2204C13.8331 86.2204 14.7264 85.6637 16.5791 86.4031C19.3186 87.3911 19.1545 87.712 19.4764 87.8756C19.4764 87.8756 20.6916 87.4825 21.5785 87.7311C22.4654 87.9797 24.2392 88.4769 24.7978 89.3672C25.3563 90.2575 25.2711 90.8206 24.3778 91.3773C23.4845 91.9341 20.5019 91.0247 19.6939 91.0183C19.372 90.8547 19.0501 90.691 19.0501 90.691C19.0501 90.691 18.807 90.7697 17.191 90.7569C15.7391 90.4234 14.2873 90.0898 14.0443 90.1684C13.1574 89.9198 12.4346 89.3503 12.4346 89.3503C12.4346 89.3503 9.36675 89.004 7.92127 87.8651C6.72521 85.8422 6.96824 85.7636 6.96824 85.7636Z" fill="#FBBF24"/>
<path d="M23.3638 97.3286C23.3638 97.3286 24.1719 97.335 25.0588 97.5836C25.8668 97.59 27.2333 98.4866 27.5553 98.6502C27.8772 98.8139 27.7067 99.94 26.6556 100.012C23.3383 100.55 22.6945 100.223 22.6945 100.223C22.6945 100.223 22.2873 100.622 19.2983 100.518C18.4903 100.512 17.8464 100.184 17.8464 100.184C17.8464 100.184 17.2815 100.1 16.1515 99.9295C15.3435 99.9232 13.2478 99.2623 12.3673 98.2084C11.4868 97.1545 10.6063 96.1006 11.7426 95.4652C12.6359 94.9085 14.8105 95.8115 15.6974 96.0601C16.5842 96.3087 17.55 96.7996 17.55 96.7996C17.55 96.7996 18.0361 96.6423 18.923 96.8909C19.731 96.8973 21.9909 97.2373 21.9909 97.2373C21.9909 97.2373 22.2339 97.1586 23.3638 97.3286Z" fill="#FBBF24"/>
<path d="M48.1163 83.4287C47.3083 83.4223 44.5751 81.6289 42.6969 84.1108C41.9614 85.152 40.7334 87.1558 40.6418 88.5242C40.6354 89.3295 43.1255 91.2015 43.9208 92.8185C44.8738 94.92 44.8547 97.336 43.6395 97.7291C42.5884 97.8013 41.3732 98.1944 39.9214 97.8609C37.5826 97.2787 34.9283 95.7275 35.7491 94.1232C36.8193 91.635 39.7549 88.2756 40.8378 84.1767C41.9208 80.0778 37.0983 76.8183 35.1348 79.8633C34.8065 80.505 30.2676 82.241 30.3337 84.0939C30.4788 86.189 29.9863 87.1516 29.4938 88.1142C28.7583 89.1554 28.0356 88.5859 27.3726 90.6747C27.1232 91.5586 28.8587 96.8878 28.6881 98.0139C28.5176 99.1401 30.1934 101.811 34.227 102.648C38.2607 103.485 39.785 104.867 41.8808 105.527C43.7334 106.267 47.8523 106.541 49.8094 104.301C51.8454 102.304 52.9156 99.8156 52.6 98.8467C52.0415 97.9564 51.4829 97.0661 52.8622 96.3521C54.2416 95.6381 55.2456 91.297 54.6209 88.5538C53.9046 87.179 51.4272 83.6964 48.1163 83.4287Z" fill="#FBBF24"/>
<path d="M42.5625 70.4982C42.1489 71.703 42.7011 73.3986 43.9824 74.8584C44.8629 75.9123 45.6709 75.9187 45.5068 76.2395C45.3426 76.5604 45.4215 76.8026 45.7435 76.9663C46.3809 78.0988 46.7754 79.31 47.4981 79.8794C47.577 80.1217 47.8989 80.2853 47.9778 80.5275C48.0567 80.7697 48.1356 81.012 48.1356 81.012C49.8966 83.1198 51.1118 82.7267 50.8815 81.1947C50.8154 79.3418 49.3699 78.2029 49.1396 76.6709C48.5938 74.1699 48.4424 72.8801 48.048 71.6689C47.9755 70.6214 47.1738 69.8097 46.9372 69.083C45.2551 67.2174 43.4685 68.3308 42.5625 70.4982Z" fill="#FBBF24"/>
</svg>
