<svg width="416" height="216" viewBox="0 0 416 216" fill="none" xmlns="http://www.w3.org/2000/svg">
<path d="M189.389 25.2899C197.874 20.9699 197.922 6.54492 203.684 3.12752C207.773 0.552145 212.577 4.41398 212.825 8.61578C213.457 18.8882 200.993 25.9058 189.389 25.2899Z" fill="#FBBF24"/>
<path d="M114.106 62.9625C100.146 41.8503 86.2294 54.2314 77.7764 43.9723C70.1558 34.601 86.9695 20.505 103.926 42.144C108.477 47.8866 112.607 56.0265 114.106 62.9625Z" fill="#00AEEF"/>
<path d="M307.851 86.0075C308.174 79.1861 308.362 73.5606 301.924 67.2653C297.516 62.7878 288.027 60.7701 287.163 53.5768C285.72 40.63 308.026 39.9117 310.834 63.5295C311.697 70.7228 310.401 78.2522 307.851 86.0075Z" fill="#EB1D66"/>
<path d="M375.858 111.373C375.093 110.62 372.046 109.127 368.443 114.011C364.84 118.895 364.703 120.868 364.407 121.781C364.259 122.237 363.346 121.941 361.545 124.383C360.199 126.973 358.101 130.328 357.657 131.697C357.657 131.697 356.3 132.77 355.855 134.139C355.411 135.508 352.412 140.084 352.116 140.996C351.671 142.365 352.744 143.722 353.657 144.019C354.57 144.315 356.235 143.847 358.333 140.492C360.431 137.137 362.541 135.3 362.085 135.152C361.777 134.547 362.085 135.152 363.59 133.623C364.947 132.55 369.304 126.901 369.292 125.384C369.44 124.928 370.957 124.916 372.895 120.5C375.894 115.925 377.992 112.57 375.858 111.373Z" fill="#00AEEF"/>
<path d="M403.851 158.797C403.691 157.736 402.458 155.318 399.275 155.798C396.092 156.279 390.651 159.053 390.959 159.657C390.959 159.657 389.282 158.608 385.803 160.001C380.658 161.863 380.966 162.467 380.362 162.776C380.362 162.776 378.079 162.035 376.414 162.503C374.748 162.972 371.417 163.908 370.368 165.586C369.319 167.263 369.48 168.324 371.157 169.373C372.835 170.422 378.436 168.708 379.953 168.696C380.558 168.388 381.162 168.08 381.162 168.08C381.162 168.08 381.619 168.228 384.653 168.204C387.38 167.575 390.106 166.947 390.563 167.095C392.228 166.627 393.586 165.554 393.586 165.554C393.586 165.554 399.347 164.902 402.061 162.756C404.307 158.945 403.851 158.797 403.851 158.797Z" fill="#00AEEF"/>
<path d="M393.928 131.863C393.163 131.11 389.98 131.591 388.018 132.972C385.908 134.809 384.391 134.821 385.316 136.635C385.316 136.635 384.551 135.882 382.738 136.807C380.924 137.731 377.309 141.098 376.099 141.715C374.89 142.331 374.594 143.244 374.606 144.761C374.606 144.761 373.237 144.317 372.028 144.933C370.819 145.55 367.191 147.399 366.13 147.559C365.526 147.867 364.785 150.149 364.945 151.21C365.105 152.271 366.931 152.863 367.536 152.555C367.992 152.703 371.928 151.458 373.285 150.385C374.494 149.769 376.456 148.388 377.06 148.08C377.665 147.771 382.045 145.157 383.402 144.085C384.759 143.012 386.265 141.482 386.265 141.482C386.265 141.482 387.017 140.718 388.078 140.558C389.139 140.398 393.668 137.327 394.26 135.502C395.765 133.973 395.149 132.764 393.928 131.863Z" fill="#00AEEF"/>
<path d="M373.065 180.584C373.065 180.584 371.547 180.596 369.882 181.065C368.364 181.077 365.798 182.766 365.193 183.074C364.589 183.382 364.909 185.504 366.883 185.64C373.113 186.653 374.322 186.037 374.322 186.037C374.322 186.037 375.086 186.789 380.699 186.593C382.217 186.581 383.426 185.965 383.426 185.965C383.426 185.965 384.487 185.805 386.609 185.484C388.126 185.472 392.062 184.228 393.715 182.242C395.369 180.256 397.022 178.271 394.889 177.074C393.211 176.025 389.127 177.726 387.462 178.195C385.796 178.663 383.983 179.588 383.983 179.588C383.983 179.588 383.07 179.291 381.404 179.76C379.887 179.772 375.643 180.412 375.643 180.412C375.643 180.412 375.187 180.264 373.065 180.584Z" fill="#00AEEF"/>
<path d="M326.577 154.397C328.095 154.385 333.227 151.006 336.755 155.682C338.136 157.643 340.442 161.418 340.614 163.996C340.626 165.514 335.95 169.04 334.456 172.087C332.667 176.046 332.703 180.598 334.985 181.338C336.958 181.474 339.241 182.215 341.967 181.586C346.359 180.49 351.344 177.567 349.802 174.545C347.792 169.857 342.28 163.528 340.246 155.806C338.212 148.084 347.268 141.943 350.956 147.68C351.572 148.889 360.096 152.159 359.972 155.65C359.699 159.597 360.624 161.411 361.549 163.224C362.93 165.186 364.288 164.113 365.533 168.048C366.001 169.713 362.742 179.753 363.062 181.875C363.382 183.997 360.236 189.029 352.661 190.606C345.086 192.183 342.223 194.785 338.287 196.03C334.808 197.423 327.073 197.939 323.398 193.72C319.575 189.957 317.565 185.269 318.157 183.444C319.206 181.766 320.255 180.089 317.665 178.744C315.075 177.399 313.189 169.22 314.362 164.052C315.707 161.462 320.36 154.901 326.577 154.397Z" fill="#00AEEF"/>
<path d="M337.011 130.037C337.787 132.307 336.75 135.501 334.344 138.251C332.69 140.237 331.173 140.249 331.481 140.853C331.79 141.458 331.642 141.914 331.037 142.222C329.84 144.356 329.099 146.638 327.742 147.711C327.594 148.167 326.989 148.475 326.841 148.932C326.693 149.388 326.545 149.844 326.545 149.844C323.238 153.816 320.956 153.075 321.388 150.189C321.512 146.698 324.227 144.552 324.659 141.666C325.684 136.954 325.968 134.524 326.709 132.242C326.845 130.269 328.351 128.74 328.795 127.371C331.954 123.856 335.309 125.953 337.011 130.037Z" fill="#00AEEF"/>
<path d="M39.7693 110.373C40.534 109.62 43.5808 108.127 47.1841 113.011C50.7874 117.894 50.9236 119.868 51.2198 120.781C51.368 121.237 52.2808 120.941 54.0825 123.383C55.4277 125.973 57.5257 129.327 57.9701 130.697C57.9701 130.697 59.3274 131.769 59.7718 133.138C60.2162 134.507 63.215 139.083 63.5113 139.996C63.9557 141.365 62.8827 142.722 61.9699 143.018C61.0571 143.314 59.3916 142.846 57.2936 139.491C55.1957 136.137 53.0857 134.299 53.5421 134.151C53.8504 133.547 53.5421 134.151 52.0368 132.622C50.6795 131.549 46.3235 125.901 46.3355 124.384C46.1873 123.927 44.67 123.915 42.7322 119.5C39.7334 114.924 37.6354 111.57 39.7693 110.373Z" fill="#FBBF24"/>
<path d="M21.6992 130.863C22.4639 130.11 25.6468 130.59 27.6086 131.971C29.7186 133.809 31.2359 133.821 30.3111 135.634C30.3111 135.634 31.0758 134.882 32.8895 135.806C34.7031 136.731 38.3184 140.098 39.5275 140.714C40.7367 141.331 41.0329 142.243 41.0209 143.76C41.0209 143.76 42.3902 143.316 43.5993 143.933C44.8084 144.549 48.4357 146.398 49.4966 146.559C50.1012 146.867 50.8419 149.149 50.6818 150.209C50.5216 151.27 48.696 151.863 48.0915 151.555C47.635 151.703 43.6995 150.458 42.3422 149.385C41.1331 148.768 39.1713 147.387 38.5668 147.079C37.9622 146.771 33.5822 144.157 32.225 143.084C30.8677 142.011 29.3623 140.482 29.3623 140.482C29.3623 140.482 28.6096 139.717 27.5487 139.557C26.4877 139.397 21.9596 136.327 21.367 134.501C19.8616 132.972 20.4781 131.763 21.6992 130.863Z" fill="#FBBF24"/>
<path d="M11.7761 157.796C11.9363 156.735 13.1693 154.317 16.3522 154.798C19.5351 155.278 24.9761 158.052 24.6678 158.657C24.6678 158.657 26.3453 157.608 29.8245 159.001C34.9692 160.862 34.6609 161.467 35.2655 161.775C35.2655 161.775 37.5475 161.034 39.213 161.503C40.8786 161.971 44.2096 162.908 45.2586 164.585C46.3075 166.263 46.1474 167.323 44.4699 168.372C42.7924 169.421 37.1913 167.708 35.6739 167.696C35.0694 167.388 34.4648 167.079 34.4648 167.079C34.4648 167.079 34.0084 167.227 30.9737 167.203C28.2472 166.575 25.5207 165.947 25.0643 166.095C23.3988 165.626 22.0415 164.553 22.0415 164.553C22.0415 164.553 16.2803 163.901 13.5658 161.755C11.3197 157.944 11.7761 157.796 11.7761 157.796Z" fill="#FBBF24"/>
<path d="M42.5604 179.584C42.5604 179.584 44.0778 179.596 45.7433 180.064C47.2607 180.076 49.8271 181.766 50.4316 182.074C51.0362 182.382 50.7159 184.504 48.7421 184.64C42.5125 185.653 41.3034 185.036 41.3034 185.036C41.3034 185.036 40.5387 185.789 34.9256 185.593C33.4082 185.581 32.1991 184.964 32.1991 184.964C32.1991 184.964 31.1382 184.804 29.0162 184.484C27.4989 184.472 23.5633 183.227 21.9097 181.241C20.2562 179.256 18.6027 177.27 20.7366 176.073C22.4141 175.025 26.4978 176.726 28.1634 177.194C29.8289 177.663 31.6425 178.587 31.6425 178.587C31.6425 178.587 32.5554 178.291 34.2209 178.759C35.7383 178.771 39.9821 179.412 39.9821 179.412C39.9821 179.412 40.4385 179.264 42.5604 179.584Z" fill="#FBBF24"/>
<path d="M89.0477 153.397C87.5303 153.385 82.3976 150.006 78.8705 154.682C77.4893 156.643 75.1832 160.418 75.0111 162.997C74.9991 164.514 79.6754 168.04 81.1688 171.087C82.9585 175.046 82.9225 179.598 80.6404 180.338C78.6667 180.474 76.3846 181.215 73.6581 180.587C69.2661 179.49 64.2816 176.567 65.8229 173.545C67.8327 168.857 73.3456 162.528 75.3793 154.806C77.4131 147.084 68.3568 140.943 64.6695 146.68C64.053 147.889 55.5293 151.159 55.6534 154.65C55.9257 158.597 55.0009 160.411 54.0761 162.224C52.6949 164.186 51.3376 163.113 50.0926 167.048C49.6242 168.713 52.8833 178.753 52.563 180.875C52.2427 182.997 55.3897 188.029 62.9646 189.606C70.5394 191.183 73.4021 193.785 77.3377 195.03C80.8168 196.423 88.5518 196.939 92.2271 192.72C96.0505 188.957 98.0603 184.269 97.4677 182.444C96.4187 180.766 95.3698 179.089 97.9601 177.744C100.55 176.399 102.436 168.22 101.263 163.052C99.9176 160.462 95.2653 153.901 89.0477 153.397Z" fill="#FBBF24"/>
<path d="M78.6164 129.036C77.8398 131.306 78.8768 134.501 81.283 137.251C82.9365 139.236 84.4539 139.248 84.1456 139.853C83.8373 140.457 83.9855 140.914 84.59 141.222C85.7871 143.356 86.5278 145.637 87.8851 146.71C88.0332 147.167 88.6378 147.475 88.7859 147.931C88.9341 148.388 89.0822 148.844 89.0822 148.844C92.3893 152.815 94.6713 152.074 94.2389 149.188C94.1147 145.697 91.4002 143.552 90.9678 140.665C89.9428 135.954 89.6585 133.524 88.9178 131.242C88.7817 129.268 87.2763 127.739 86.8319 126.37C83.6729 122.855 80.3179 124.953 78.6164 129.036Z" fill="#FBBF24"/>
</svg>
