<svg width="320" height="766" viewBox="0 0 320 766" fill="none" xmlns="http://www.w3.org/2000/svg">
<path d="M123.985 72.5796C123.747 72.0643 123.508 70.2611 126.371 69.2307C129.234 68.2003 130.188 68.4579 130.665 68.4579C130.904 68.4579 130.904 67.9427 132.335 67.4275C133.766 67.1699 135.675 66.6547 136.391 66.6547C136.391 66.6547 137.106 66.1395 137.822 66.1395C138.538 66.1395 141.162 65.3667 141.639 65.3667C142.355 65.3667 142.832 66.1395 142.832 66.6547C142.832 67.1699 142.355 67.9427 140.446 68.4579C138.538 68.9731 137.345 69.7459 137.345 69.4883C137.106 69.2307 137.345 69.4883 136.391 70.0035C135.675 70.5187 132.335 71.8067 131.619 71.5491C131.381 71.5491 131.142 72.322 128.757 72.5796C126.132 73.3524 124.224 73.8676 123.985 72.5796Z" fill="#00AEEF"/>
<path d="M130.893 85.3619C130.656 84.8374 131.369 83.2639 132.319 82.4771C133.507 81.6904 133.745 80.9037 134.458 81.6904C134.458 81.6904 134.22 81.1659 134.933 80.3792C135.646 79.5924 137.785 78.2812 138.26 77.7567C138.735 77.2322 139.21 77.2322 139.923 77.4944C139.923 77.4944 139.923 76.7077 140.399 76.1832C140.874 75.6587 142.3 74.0852 142.537 73.5607C142.775 73.2985 143.963 73.2985 144.438 73.5607C144.914 73.8229 144.914 74.8719 144.676 75.1342C144.676 75.3964 143.488 77.2322 142.775 77.7567C142.3 78.2812 141.349 79.0679 141.111 79.3302C140.874 79.5924 138.973 81.4282 138.26 81.9527C137.547 82.4772 136.597 83.0016 136.597 83.0016C136.597 83.0016 136.121 83.2639 135.884 83.7884C135.646 84.3129 133.507 86.1486 132.557 86.1486C131.606 86.6731 131.131 86.1486 130.893 85.3619Z" fill="#00AEEF"/>
<path d="M141.896 96.2886C141.377 96.0172 140.339 94.9315 141.117 93.3029C141.896 91.6743 144.232 89.2315 144.492 89.5029C144.492 89.5029 144.232 88.4172 145.53 86.7886C147.348 84.3457 147.607 84.6171 147.867 84.3457C147.867 84.3457 147.867 82.9886 148.386 82.1743C148.905 81.36 149.943 79.7314 150.982 79.46C152.02 79.1885 152.539 79.46 152.799 80.5457C153.059 81.6314 151.241 84.3457 150.982 85.16C150.722 85.4314 150.463 85.7029 150.463 85.7029C150.463 85.7029 150.463 85.9743 149.943 87.6029C149.165 88.96 148.386 90.3172 148.386 90.5886C147.867 91.4029 147.088 91.9458 147.088 91.9458C147.088 91.9458 145.79 94.9315 144.232 96.0172C141.896 96.5601 141.896 96.2886 141.896 96.2886Z" fill="#00AEEF"/>
<path d="M157.604 83.2667C157.604 83.2667 157.831 82.4449 158.284 81.6232C158.511 80.8014 159.644 79.7058 159.87 79.4319C160.097 79.1579 161.003 79.7058 160.776 80.8014C160.323 84.3624 159.87 84.9102 159.87 84.9102C159.87 84.9102 160.097 85.458 159.19 88.4711C158.964 89.2928 158.511 89.8407 158.511 89.8407C158.511 89.8407 158.284 90.3885 157.831 91.4842C157.604 92.3059 156.472 94.2233 155.339 94.7712C154.206 95.319 153.073 95.8668 152.847 94.4972C152.62 93.4016 153.979 91.4842 154.433 90.6624C154.886 89.8407 155.565 89.0189 155.565 89.0189C155.565 89.0189 155.565 88.4711 156.018 87.6493C156.245 86.8276 157.151 84.6363 157.151 84.6363C157.151 84.6363 157.151 84.3624 157.604 83.2667Z" fill="#00AEEF"/>
<path d="M151.821 55.0127C151.567 55.7862 149.024 57.8489 150.804 60.4273C151.567 61.4587 153.093 63.2636 154.364 63.7793C155.127 64.0371 157.669 62.2322 159.449 61.9744C161.738 61.7165 164.026 62.4901 164.026 63.7793C163.772 64.8106 163.772 66.0998 163.009 67.389C161.738 69.4517 159.449 71.5145 158.178 70.2253C156.144 68.4204 153.855 64.5528 150.296 62.2322C146.736 59.9117 142.159 63.5214 144.448 66.3577C144.956 66.8733 145.21 71.7723 146.99 72.288C149.024 72.8036 149.787 73.5772 150.55 74.3507C151.313 75.382 150.55 75.8977 152.33 77.1869C153.093 77.7026 158.686 77.7026 159.703 78.2183C160.72 78.734 163.772 77.9604 165.806 74.3507C167.84 70.7409 169.62 69.7096 170.891 67.9047C172.162 66.3576 173.688 62.4901 172.162 59.9117C170.891 57.3333 168.857 55.5284 167.84 55.5284C166.823 55.7862 165.806 56.0441 165.551 54.497C165.297 52.95 161.483 50.6294 158.686 50.3716C157.161 50.6294 153.093 51.9186 151.821 55.0127Z" fill="#00AEEF"/>
<path d="M134.611 56.1883C135.816 57.1484 137.924 57.1484 140.033 56.1883C141.539 55.5482 141.84 54.5881 142.142 54.9082C142.443 55.2282 142.744 55.2282 143.045 54.9082C144.552 54.5881 146.058 54.5881 146.962 53.9481C147.263 53.9481 147.564 53.628 147.865 53.628C148.167 53.628 148.468 53.628 148.468 53.628C151.48 52.3479 151.48 50.7477 149.673 50.4277C147.564 49.7876 145.757 51.0678 143.949 50.7477C140.937 50.4277 139.431 50.1077 137.924 50.1077C136.719 49.7876 135.514 50.4277 134.611 50.4277C131.9 51.7078 132.502 54.2681 134.611 56.1883Z" fill="#00AEEF"/>
<path d="M328.636 246.337C328.154 245.312 325.981 241.465 319.706 244.799C313.43 248.132 311.982 249.927 311.016 250.953C310.775 251.21 309.568 250.697 306.43 252.235C303.292 253.774 299.189 256.338 298.224 257.877C298.224 257.877 296.534 258.133 295.086 259.415C293.638 260.697 288.569 263.775 287.362 264.8C286.155 265.826 286.638 268.39 287.362 268.903C288.086 269.416 289.776 270.185 293.879 267.877C297.982 265.57 301.12 264.8 301.12 264.031C301.12 262.749 301.362 263.775 303.292 263.262C305.223 262.749 313.189 259.159 313.913 258.133C314.396 257.364 315.602 258.646 320.671 255.056C325.74 251.722 329.602 249.158 328.636 246.337Z" fill="#EB1D66"/>
<path d="M335.641 280.186C335.158 278.903 331.779 277.621 328.641 278.134C325.503 278.647 323.572 278.134 323.572 280.442C323.572 280.442 323.331 279.16 320.917 279.16C318.503 279.16 312.711 280.442 311.021 280.698C309.331 280.955 308.366 281.211 307.883 283.006C307.883 283.006 306.918 281.724 305.228 281.724C303.297 281.724 298.711 281.211 297.504 281.211C296.297 281.211 294.608 283.006 293.884 284.545C293.159 286.083 295.09 287.366 295.815 287.878C296.539 288.391 300.883 289.161 303.297 289.161C304.745 289.161 307.883 288.904 308.366 288.904C309.09 288.904 315.366 288.904 317.297 288.391C319.228 287.878 321.4 287.109 321.4 287.109C321.4 287.109 322.365 286.853 324.055 287.109C325.503 287.622 331.779 286.853 333.71 285.314C336.124 283.519 336.365 281.981 335.641 280.186Z" fill="#EB1D66"/>
<path d="M330.329 315.573C330.571 314.291 331.053 310.958 327.191 309.163C323.329 307.624 316.571 307.368 316.33 308.65C316.33 308.65 315.123 306.342 311.02 305.573C304.744 304.547 304.261 305.316 303.537 305.316C303.537 305.316 301.847 303.265 299.675 302.495C297.503 301.726 293.641 300.957 291.951 302.239C290.262 303.521 289.055 304.803 290.744 306.598C292.193 308.393 298.71 310.445 300.399 311.214C301.123 311.47 301.847 311.214 301.847 311.214C301.847 311.214 302.33 311.983 305.468 313.265C308.606 314.548 311.744 315.317 312.226 315.317C314.157 315.573 316.088 315.573 316.088 315.573C316.088 315.573 322.605 318.65 326.467 317.625C330.571 316.599 330.329 315.573 330.329 315.573Z" fill="#EB1D66"/>
<path d="M285.683 320.958C285.683 320.958 283.994 320.189 282.304 319.419C280.614 318.65 277.235 318.65 276.27 318.907C275.304 319.163 274.58 321.214 276.511 322.753C282.304 327.882 283.752 327.625 283.752 327.625C283.752 327.625 283.994 329.42 290.269 332.241C291.959 333.01 293.407 333.01 293.407 333.01C293.407 333.01 294.855 333.523 296.786 334.549C298.717 335.574 303.062 336.344 306.2 335.318C309.096 334.292 311.993 332.754 310.544 330.446C309.096 328.394 304.027 327.625 301.855 326.856C300.166 326.343 297.269 326.599 297.269 326.599C297.269 326.599 296.545 326.087 294.855 325.061C292.924 324.035 288.58 322.497 288.58 322.497C288.58 322.497 287.856 321.984 285.683 320.958Z" fill="#EB1D66"/>
<path d="M252.127 263.774C253.817 264.8 260.816 264.287 262.023 270.954C262.506 273.775 262.747 279.673 261.058 282.493C260.334 283.775 253.093 285.057 249.955 287.622C245.851 290.955 243.196 296.084 245.369 298.135C247.058 299.674 248.989 301.725 252.368 302.494C257.679 304.033 264.437 303.263 264.92 299.674C265.644 293.519 263.713 283.006 265.885 273.005C268.058 263.005 281.092 261.979 281.816 270.441C282.057 271.98 288.816 281.211 286.402 284.545C283.505 288.647 283.505 291.468 283.747 293.776C283.988 296.596 286.402 296.34 284.954 301.725C284.471 304.033 275.057 312.751 274.575 315.315C274.092 317.88 267.575 321.213 258.886 318.649C250.196 316.085 245.61 316.854 241.024 316.085C236.438 315.315 228.231 311.213 226.783 304.546C225.335 298.135 225.335 291.724 227.266 290.186C229.197 288.647 231.611 287.622 229.68 284.801C227.749 281.98 230.645 271.467 234.99 266.595C237.162 264.544 245.851 260.441 252.127 263.774Z" fill="#EB1D66"/>
<path d="M277.464 243.005C276.981 246.082 274.326 248.903 269.982 250.185C267.327 251.211 265.637 250.954 265.396 251.467C265.154 251.98 264.913 252.493 264.43 253.006C262.016 254.801 259.844 256.339 257.913 257.365C257.43 257.621 256.948 257.621 256.465 258.134C255.982 258.391 255.741 258.903 255.499 258.903C249.706 261.468 247.775 259.16 249.948 256.339C249.948 256.339 249.948 256.083 250.189 256.083C252.361 252.493 256.223 251.467 258.396 248.903C262.258 244.287 264.189 241.723 265.878 239.415C267.085 237.62 269.499 236.081 270.706 235.568C275.533 233.261 278.188 237.876 277.464 243.005Z" fill="#EB1D66"/>
<path d="M284.669 534.76C284.987 534.547 286.159 533.63 284.734 531.704C283.31 529.777 282.64 529.384 282.25 529.113C282.152 529.046 282.263 528.618 281.593 527.648C280.923 526.678 279.864 525.438 279.303 525.193C279.303 525.193 279.133 524.642 278.634 524.223C278.134 523.805 276.856 522.268 276.453 521.917C276.051 521.565 275.222 521.855 275.087 522.122C274.952 522.389 274.781 522.991 275.755 524.245C276.729 525.498 277.142 526.506 277.399 526.467C277.826 526.403 277.496 526.535 277.764 527.153C278.031 527.772 279.626 530.249 280.003 530.439C280.284 530.562 279.917 531.028 281.367 532.539C282.731 534.063 283.778 535.223 284.669 534.76Z" fill="#EB1D66"/>
<path d="M273.749 538.791C274.151 538.566 274.409 537.374 274.081 536.353C273.753 535.332 273.827 534.663 273.059 534.778C273.059 534.778 273.474 534.634 273.353 533.828C273.232 533.023 272.515 531.155 272.345 530.604C272.175 530.054 272.041 529.744 271.419 529.673C271.419 529.673 271.798 529.287 271.713 528.724C271.617 528.079 271.558 526.524 271.497 526.121C271.437 525.719 270.755 525.245 270.206 525.081C269.657 524.916 269.327 525.625 269.192 525.892C269.058 526.159 269.019 527.647 269.14 528.452C269.212 528.935 269.455 529.969 269.479 530.13C269.515 530.371 269.83 532.465 270.097 533.083C270.365 533.701 270.73 534.387 270.73 534.387C270.73 534.387 270.863 534.697 270.863 535.273C270.764 535.782 271.335 537.837 271.944 538.404C272.662 539.119 273.187 539.122 273.749 538.791Z" fill="#EB1D66"/>
<path d="M261.698 538.79C262.137 538.806 263.271 538.8 263.676 537.422C263.995 536.057 263.742 533.79 263.303 533.774C263.303 533.774 264.011 533.256 264.062 531.848C264.089 529.704 263.809 529.581 263.772 529.34C263.772 529.34 264.371 528.673 264.518 527.91C264.666 527.147 264.729 525.82 264.217 525.321C263.705 524.822 263.218 524.483 262.705 525.137C262.179 525.71 261.823 527.986 261.651 528.588C261.602 528.843 261.723 529.071 261.723 529.071C261.723 529.071 261.491 529.271 261.222 530.382C260.952 531.493 260.853 532.578 260.877 532.739C260.888 533.396 260.985 534.04 260.985 534.04C260.985 534.04 260.286 536.368 260.821 537.605C261.368 538.922 261.698 538.79 261.698 538.79Z" fill="#EB1D66"/>
<path d="M257.67 524.169C257.67 524.169 257.841 523.567 258.013 522.964C258.184 522.362 258.015 521.235 257.881 520.926C257.748 520.617 257.028 520.478 256.612 521.199C255.194 523.388 255.352 523.858 255.352 523.858C255.352 523.858 254.767 524.029 254.141 526.263C253.97 526.865 254.042 527.349 254.042 527.349C254.042 527.349 253.944 527.857 253.699 528.553C253.454 529.248 253.416 530.736 253.914 531.731C254.401 532.646 255.058 533.535 255.754 532.936C256.365 532.351 256.368 530.621 256.515 529.858C256.601 529.269 256.371 528.316 256.371 528.316C256.371 528.316 256.505 528.049 256.762 527.434C257.007 526.738 257.302 525.212 257.302 525.212C257.302 525.212 257.437 524.945 257.67 524.169Z" fill="#EB1D66"/>
<path d="M275.033 510.112C274.776 510.727 275.298 513.036 273.138 513.772C272.222 514.075 270.27 514.45 269.246 514.028C268.783 513.851 267.993 511.499 266.982 510.581C265.667 509.379 263.826 508.751 263.251 509.578C262.823 510.219 262.237 510.965 262.15 512.131C261.903 513.979 262.498 516.195 263.718 516.176C265.804 516.11 269.208 514.939 272.648 515.163C276.087 515.387 277.081 519.683 274.299 520.349C273.799 520.506 271.063 523.223 269.832 522.584C268.32 521.824 267.381 521.965 266.625 522.161C265.697 522.383 265.903 523.175 264.038 522.962C263.245 522.916 259.87 520.213 258.992 520.18C258.113 520.147 256.677 518.14 257.096 515.114C257.515 512.087 257.029 510.596 257.055 509.027C257.082 507.459 258.038 504.516 260.185 503.699C262.248 502.895 264.383 502.574 264.992 503.142C265.601 503.709 266.064 504.462 266.906 503.677C267.749 502.892 271.396 503.331 273.236 504.537C274.028 505.159 275.829 507.852 275.033 510.112Z" fill="#EB1D66"/>
<path d="M283.216 517.525C282.167 517.518 281.095 516.773 280.45 515.388C279.976 514.554 279.977 513.978 279.794 513.923C279.611 513.868 279.428 513.813 279.233 513.678C278.514 512.963 277.893 512.315 277.455 511.722C277.345 511.574 277.321 511.413 277.126 511.278C277.017 511.13 276.834 511.075 276.822 510.994C275.678 509.19 276.349 508.431 277.398 509.014C277.398 509.014 277.483 509.001 277.495 509.082C278.8 509.627 279.335 510.863 280.297 511.46C282.028 512.517 282.979 513.032 283.832 513.48C284.49 513.793 285.123 514.521 285.355 514.898C286.365 516.393 284.961 517.509 283.216 517.525Z" fill="#EB1D66"/>
<path d="M281.427 106.219C280.824 105.899 278.113 105.259 276.306 110.059C274.498 114.86 274.8 116.46 274.498 117.42C274.498 117.74 273.595 118.06 272.691 120.3C271.787 122.54 270.883 126.061 271.185 127.341C271.185 127.341 270.281 128.301 270.281 129.901C270.281 131.181 269.076 135.342 268.775 136.622C268.775 137.582 269.98 138.862 270.582 138.542C271.185 138.542 272.39 137.902 273.293 134.702C274.197 131.501 275.402 129.581 275.101 129.261C274.498 128.621 275.101 128.941 276.004 127.661C276.908 126.381 279.318 120.62 279.017 119.66C279.017 119.02 279.921 119.02 281.126 114.86C282.331 110.059 282.933 106.859 281.427 106.219Z" fill="#FBBF24"/>
<path d="M299.786 119.34C298.882 119.02 296.774 119.98 295.268 121.581C293.761 123.501 292.858 124.141 293.761 125.421C293.761 125.421 293.159 124.781 291.954 126.061C290.749 127.341 288.339 130.862 287.737 131.822C287.134 132.782 286.833 133.422 287.134 134.382C287.134 134.382 286.23 134.062 285.025 135.022C284.122 135.982 281.712 137.902 281.109 138.542C280.507 139.182 280.507 141.103 280.808 142.063C281.109 143.023 282.615 143.023 283.218 142.703C283.82 142.703 286.23 140.783 287.435 139.502C288.038 138.862 289.544 136.942 289.845 136.942C290.146 136.622 293.46 133.422 294.063 132.142C294.966 130.862 295.569 129.261 295.569 129.261C295.569 129.261 295.87 128.621 296.774 127.981C297.677 127.341 300.389 123.821 300.69 122.221C301.594 120.941 300.991 119.98 299.786 119.34Z" fill="#FBBF24"/>
<path d="M313.045 140.141C312.743 139.501 311.237 137.261 308.827 138.541C306.116 139.501 302.803 143.021 303.104 143.661C303.104 143.661 301.296 143.021 299.188 144.941C295.573 147.502 295.874 148.142 295.271 148.462C295.271 148.462 293.464 148.142 292.259 149.102C291.054 149.742 288.644 151.342 288.343 152.942C288.042 154.542 288.042 155.502 289.548 155.822C291.054 155.822 295.271 153.902 296.476 153.262C297.079 152.942 297.38 152.622 297.38 152.622C297.38 152.622 297.983 152.942 300.091 151.662C302.2 150.702 304.007 149.422 304.309 149.422C305.514 148.462 306.417 147.502 306.417 147.502C306.417 147.502 310.936 145.901 312.442 143.341C313.647 140.461 313.045 140.141 313.045 140.141Z" fill="#FBBF24"/>
<path d="M292.861 165.423C292.861 165.423 291.656 165.743 290.451 166.383C289.246 166.703 287.439 168.624 287.138 169.264C286.837 169.904 287.138 171.184 288.945 171.184C294.066 170.864 294.669 169.904 294.669 169.904C294.669 169.904 295.572 170.544 300.091 168.944C301.296 168.624 301.899 167.664 301.899 167.664C301.899 167.664 302.802 167.343 304.308 166.703C305.513 166.383 308.225 164.463 309.43 162.223C310.635 160.303 311.237 158.063 309.43 157.743C307.923 157.422 304.911 159.663 303.405 160.303C302.2 160.943 300.995 162.543 300.995 162.543C300.995 162.543 300.392 162.543 299.187 163.183C297.982 163.823 294.97 165.103 294.97 165.103C294.97 165.103 294.669 164.783 292.861 165.423Z" fill="#FBBF24"/>
<path d="M250.686 153.264C251.891 152.944 255.205 149.103 258.82 151.984C260.326 153.264 263.037 156.144 263.64 158.064C263.941 159.024 260.928 163.505 260.326 166.385C259.723 170.225 260.627 174.066 262.736 174.066C264.242 174.066 266.049 174.066 268.158 172.786C271.472 170.866 274.484 167.025 273.279 165.105C270.869 161.585 265.146 157.424 261.832 151.344C258.518 145.263 264.543 138.222 268.761 142.063C269.664 142.703 277.195 143.983 277.497 146.863C277.798 150.383 279.003 151.664 280.208 152.624C281.714 153.904 282.618 152.624 284.425 155.824C285.329 157.424 284.425 166.385 285.329 167.985C286.233 169.585 284.425 174.386 279.003 177.586C273.58 180.787 271.472 183.347 268.761 185.267C266.049 187.187 260.025 189.107 256.41 186.547C252.795 183.987 250.084 180.787 250.385 178.866C250.686 177.266 251.289 175.346 249.18 175.026C247.071 174.706 243.758 167.985 243.758 163.185C243.456 161.265 245.866 154.864 250.686 153.264Z" fill="#FBBF24"/>
<path d="M253.999 130.22C255.204 132.14 254.902 134.7 253.396 137.58C252.492 139.501 251.589 140.141 251.589 140.461C251.89 140.781 251.89 141.101 251.589 141.741C251.288 143.981 250.685 145.901 250.384 147.181C250.384 147.501 250.083 147.821 250.083 148.142C250.083 148.462 250.083 148.782 250.083 149.102C248.275 153.262 246.468 153.262 246.166 150.702C246.166 150.702 246.166 150.702 246.166 150.382C245.564 147.501 247.07 145.261 247.07 142.701C247.07 138.541 246.769 136.3 246.769 134.06C246.769 132.46 247.07 130.54 247.371 129.58C248.576 126.379 252.191 127.339 253.999 130.22Z" fill="#FBBF24"/>
<path d="M228.805 382.043C228.437 381.848 226.78 381.456 225.676 384.39C224.571 387.324 224.755 388.302 224.571 388.889C224.571 389.085 224.018 389.28 223.466 390.65C222.914 392.019 222.361 394.17 222.546 394.953C222.546 394.953 221.993 395.54 221.993 396.518C221.993 397.3 221.257 399.843 221.073 400.625C221.073 401.212 221.809 401.994 222.177 401.799C222.546 401.799 223.282 401.408 223.834 399.452C224.387 397.496 225.123 396.322 224.939 396.126C224.571 395.735 224.939 395.931 225.491 395.148C226.044 394.366 227.517 390.845 227.333 390.258C227.333 389.867 227.885 389.867 228.621 387.324C229.358 384.39 229.726 382.434 228.805 382.043Z" fill="#FBBF24"/>
<path d="M240.029 390.063C239.477 389.867 238.188 390.454 237.268 391.432C236.347 392.606 235.795 392.997 236.347 393.779C236.347 393.779 235.979 393.388 235.242 394.17C234.506 394.953 233.033 397.104 232.665 397.691C232.297 398.278 232.112 398.669 232.297 399.256C232.297 399.256 231.744 399.06 231.008 399.647C230.455 400.234 228.982 401.408 228.614 401.799C228.246 402.19 228.246 403.364 228.43 403.95C228.614 404.537 229.535 404.537 229.903 404.342C230.271 404.342 231.744 403.168 232.481 402.386C232.849 401.994 233.769 400.821 233.954 400.821C234.138 400.625 236.163 398.669 236.531 397.887C237.084 397.104 237.452 396.126 237.452 396.126C237.452 396.126 237.636 395.735 238.188 395.344C238.741 394.953 240.398 392.801 240.582 391.823C241.134 391.041 240.766 390.454 240.029 390.063Z" fill="#FBBF24"/>
<path d="M248.131 402.776C247.946 402.385 247.026 401.016 245.553 401.798C243.896 402.385 241.871 404.537 242.055 404.928C242.055 404.928 240.95 404.537 239.661 405.71C237.452 407.275 237.636 407.666 237.268 407.862C237.268 407.862 236.163 407.666 235.427 408.253C234.69 408.644 233.217 409.622 233.033 410.6C232.849 411.578 232.849 412.165 233.77 412.361C234.69 412.361 237.268 411.187 238.004 410.796C238.373 410.6 238.557 410.405 238.557 410.405C238.557 410.405 238.925 410.6 240.214 409.818C241.502 409.231 242.607 408.449 242.791 408.449C243.528 407.862 244.08 407.275 244.08 407.275C244.08 407.275 246.842 406.297 247.762 404.732C248.499 402.972 248.131 402.776 248.131 402.776Z" fill="#FBBF24"/>
<path d="M235.794 418.228C235.794 418.228 235.057 418.424 234.321 418.815C233.584 419.011 232.48 420.184 232.296 420.575C232.111 420.967 232.296 421.749 233.4 421.749C236.53 421.553 236.898 420.967 236.898 420.967C236.898 420.967 237.451 421.358 240.212 420.38C240.949 420.184 241.317 419.597 241.317 419.597C241.317 419.597 241.869 419.402 242.79 419.011C243.526 418.815 245.184 417.641 245.92 416.272C246.656 415.099 247.025 413.73 245.92 413.534C244.999 413.338 243.158 414.708 242.238 415.099C241.501 415.49 240.765 416.468 240.765 416.468C240.765 416.468 240.397 416.468 239.66 416.859C238.924 417.25 237.082 418.033 237.082 418.033C237.082 418.033 236.898 417.837 235.794 418.228Z" fill="#FBBF24"/>
<path d="M210.019 410.796C210.756 410.601 212.781 408.254 214.99 410.014C215.911 410.796 217.568 412.557 217.936 413.73C218.12 414.317 216.279 417.056 215.911 418.816C215.543 421.163 216.095 423.51 217.384 423.51C218.304 423.51 219.409 423.51 220.698 422.728C222.723 421.554 224.564 419.207 223.828 418.034C222.355 415.882 218.857 413.339 216.832 409.623C214.806 405.906 218.489 401.603 221.066 403.95C221.619 404.342 226.221 405.124 226.406 406.884C226.59 409.036 227.326 409.818 228.063 410.405C228.983 411.188 229.535 410.405 230.64 412.361C231.192 413.339 230.64 418.816 231.192 419.794C231.745 420.772 230.64 423.706 227.326 425.662C224.012 427.618 222.723 429.183 221.066 430.356C219.409 431.53 215.727 432.704 213.517 431.139C211.308 429.574 209.651 427.618 209.835 426.444C210.019 425.466 210.388 424.293 209.099 424.097C207.81 423.902 205.785 419.794 205.785 416.86C205.601 415.686 207.073 411.774 210.019 410.796Z" fill="#FBBF24"/>
<path d="M212.042 396.712C212.778 397.886 212.594 399.451 211.673 401.211C211.121 402.385 210.569 402.776 210.569 402.972C210.753 403.167 210.753 403.363 210.569 403.754C210.385 405.123 210.016 406.297 209.832 407.079C209.832 407.275 209.648 407.47 209.648 407.666C209.648 407.862 209.648 408.057 209.648 408.253C208.543 410.796 207.439 410.796 207.255 409.231C207.255 409.231 207.255 409.231 207.255 409.035C206.886 407.275 207.807 405.906 207.807 404.341C207.807 401.798 207.623 400.429 207.623 399.06C207.623 398.082 207.807 396.908 207.991 396.321C208.728 394.365 210.937 394.952 212.042 396.712Z" fill="#FBBF24"/>
<path d="M303.574 427.895C297.25 404.611 282.728 412.198 278.278 400.426C274.296 389.7 291.629 381.328 300.295 405.919C302.637 412.46 304.043 421.093 303.574 427.895Z" fill="#EB1D66"/>
<path d="M249.999 9.57373C260.717 6.61472 272.008 19.4371 279.664 17.859C285.214 16.8726 286.362 9.57373 283.3 5.62839C275.836 -4.0377 259.568 -0.289624 249.999 9.57373Z" fill="#00AEEF"/>
<path d="M186.529 19.9797C181.984 20.9988 176.29 20.2399 171.586 18.0759C167.961 16.2752 163.372 12.8749 163.68 8.45875C163.857 4.92515 167.773 1.95594 171.345 2.69555C174.918 3.43515 176.881 7.34177 178.623 10.3626C180.94 14.2724 182.886 17.8254 186.529 19.9797Z" fill="#FBBF24"/>
<path d="M47.272 36.0255C51.1881 28.9848 54.5017 23.2242 65.3464 20.6639C72.8774 18.7438 84.3246 22.2641 89.7469 15.5434C99.3866 3.3822 75.8898 -10.3792 58.1166 11.703C52.6943 18.4237 49.3806 26.7446 47.272 36.0255Z" fill="#EB1D66"/>
<path d="M218.526 607.448C218.225 608.088 217.924 610.328 221.539 611.608C225.154 612.888 226.358 612.568 226.961 612.568C227.262 612.568 227.262 613.208 229.07 613.848C230.877 614.168 233.287 614.809 234.191 614.809C234.191 614.809 235.094 615.449 235.998 615.449C236.902 615.449 240.216 616.409 240.818 616.409C241.722 616.409 242.324 615.449 242.324 614.809C242.324 614.168 241.722 613.208 239.312 612.568C236.902 611.928 235.396 610.968 235.396 611.288C235.094 611.608 235.396 611.288 234.191 610.648C233.287 610.008 229.07 608.408 228.166 608.728C227.865 608.728 227.563 607.768 224.551 607.448C221.237 606.488 218.827 605.848 218.526 607.448Z" fill="#00AEEF"/>
<path d="M227.248 591.766C226.947 592.406 227.851 594.326 229.056 595.287C230.562 596.247 230.863 597.207 231.767 596.247C231.767 596.247 231.466 596.887 232.369 597.847C233.273 598.807 235.984 600.407 236.587 601.047C237.189 601.687 237.792 601.687 238.695 601.367C238.695 601.367 238.695 602.327 239.298 602.967C239.9 603.607 241.708 605.528 242.009 606.168C242.31 606.488 243.816 606.488 244.419 606.168C245.021 605.848 245.021 604.568 244.72 604.248C244.72 603.927 243.214 601.687 242.31 601.047C241.708 600.407 240.503 599.447 240.201 599.127C239.9 598.807 237.49 596.567 236.587 595.927C235.683 595.287 234.478 594.647 234.478 594.647C234.478 594.647 233.875 594.326 233.574 593.686C233.273 593.046 230.562 590.806 229.357 590.806C228.152 590.166 227.549 590.806 227.248 591.766Z" fill="#00AEEF"/>
<path d="M241.412 579.924C240.81 580.244 239.605 581.525 240.509 583.445C241.412 585.365 244.123 588.245 244.425 587.925C244.425 587.925 244.123 589.205 245.63 591.126C247.738 594.006 248.04 593.686 248.341 594.006C248.341 594.006 248.341 595.606 248.943 596.566C249.546 597.526 250.751 599.446 251.956 599.766C253.161 600.086 253.763 599.766 254.064 598.486C254.366 597.206 252.257 594.006 251.956 593.046C251.654 592.726 251.353 592.406 251.353 592.406C251.353 592.406 251.353 592.086 250.751 590.165C249.847 588.565 248.943 586.965 248.943 586.645C248.341 585.685 247.437 585.045 247.437 585.045C247.437 585.045 245.931 581.525 244.123 580.244C241.412 579.604 241.412 579.924 241.412 579.924Z" fill="#00AEEF"/>
<path d="M260.395 594.967C260.395 594.967 260.696 595.927 261.299 596.887C261.6 597.847 263.106 599.127 263.407 599.447C263.708 599.768 264.913 599.127 264.612 597.847C264.01 593.687 263.407 593.047 263.407 593.047C263.407 593.047 263.709 592.407 262.504 588.886C262.202 587.926 261.6 587.286 261.6 587.286C261.6 587.286 261.299 586.646 260.696 585.366C260.395 584.406 258.889 582.166 257.382 581.526C255.876 580.886 254.37 580.246 254.069 581.846C253.768 583.126 255.575 585.366 256.177 586.326C256.78 587.286 257.684 588.246 257.684 588.246C257.684 588.246 257.684 588.886 258.286 589.847C258.587 590.807 259.792 593.367 259.792 593.367C259.792 593.367 259.792 593.687 260.395 594.967Z" fill="#00AEEF"/>
<path d="M253.765 629.849C253.464 628.889 250.452 626.329 252.56 623.129C253.464 621.848 255.272 619.608 256.778 618.968C257.682 618.648 260.694 620.888 262.803 621.208C265.514 621.528 268.225 620.568 268.225 618.968C267.924 617.688 267.924 616.088 267.02 614.488C265.514 611.927 262.803 609.367 261.296 610.967C258.886 613.208 256.175 618.008 251.958 620.888C247.741 623.769 242.318 619.288 245.029 615.768C245.632 615.128 245.933 609.047 248.042 608.407C250.452 607.767 251.355 606.807 252.259 605.847C253.163 604.567 252.259 603.927 254.368 602.327C255.272 601.686 261.899 601.686 263.104 601.046C264.309 600.406 267.924 601.366 270.334 605.847C272.744 610.327 274.852 611.607 276.358 613.848C277.865 615.768 279.672 620.568 277.865 623.769C276.358 626.969 273.949 629.209 272.744 629.209C271.539 628.889 270.334 628.569 270.032 630.489C269.731 632.41 265.213 635.29 261.899 635.61C260.091 635.29 255.272 633.69 253.765 629.849Z" fill="#00AEEF"/>
<path d="M237.193 628.249C238.398 627.289 240.506 627.289 242.615 628.249C244.121 628.889 244.423 629.849 244.724 629.529C245.025 629.209 245.326 629.209 245.627 629.529C247.134 629.849 248.64 629.849 249.544 630.489C249.845 630.489 250.146 630.809 250.447 630.809C250.749 630.809 251.05 630.809 251.05 630.809C254.062 632.089 254.062 633.689 252.255 634.009C250.146 634.649 248.339 633.369 246.531 633.689C243.519 634.009 242.013 634.329 240.506 634.329C239.301 634.649 238.096 634.009 237.193 634.009C234.482 632.729 235.084 630.169 237.193 628.249Z" fill="#00AEEF"/>
<path d="M304.383 650.972C299.563 654.172 295.345 659.932 293.237 666.013C291.731 670.814 290.827 677.854 295.044 681.375C298.358 684.255 304.383 683.295 306.793 679.454C309.203 675.614 307.395 670.493 306.19 666.333C304.684 660.893 303.178 656.092 304.383 650.972Z" fill="#FBBF24"/>
<path d="M190.292 732.092C188.384 726.84 184.149 721.774 179.257 718.734C175.366 716.489 169.425 714.483 165.615 718.076C162.522 720.881 162.27 726.965 165.166 729.946C168.062 732.928 172.826 731.961 176.65 731.435C181.637 730.815 186.07 730.094 190.292 732.092Z" fill="#FBBF24"/>
<path d="M149.85 641.052C153.766 648.093 157.08 653.853 167.925 656.414C175.456 658.334 186.903 654.814 192.325 661.534C201.965 673.695 178.468 687.457 160.695 665.375C155.272 658.654 151.959 650.333 149.85 641.052Z" fill="#EB1D66"/>
<path d="M67.0306 713.337C50.1611 708.537 32.3879 729.339 20.3383 726.779C11.6023 725.179 9.79485 713.337 14.6147 706.937C26.3631 691.255 51.9686 697.336 67.0306 713.337Z" fill="#00AEEF"/>
<path d="M250.365 692.681C244.997 704.618 258.408 719.997 255.215 728.617C253.088 734.894 244.162 734.946 239.965 730.693C229.676 720.318 236.935 702.069 250.365 692.681Z" fill="#00AEEF"/>
<path d="M282.129 451.706C272.083 448.457 260.946 460.591 253.752 458.793C248.531 457.643 247.697 450.481 250.733 446.734C258.136 437.551 273.41 441.758 282.129 451.706Z" fill="#00AEEF"/>
<path d="M213.36 755.986C216.318 759.604 223.365 757.763 225.61 760.157C227.276 761.837 225.871 764.701 223.844 765.366C218.892 767.005 214.22 761.777 213.36 755.986Z" fill="#E11D48"/>
<path d="M132.944 748.819C128.814 751.685 130.193 759.399 127.435 761.604C125.493 763.249 122.541 761.5 121.999 759.271C120.659 753.821 126.661 749.252 132.944 748.819Z" fill="#0EA5E9"/>
<path d="M35.813 730.139C35.6036 729.943 34.5738 729.388 33.3179 731.135C32.062 732.882 32.0099 733.564 31.7832 733.92C31.7483 734.049 31.347 734.08 30.7364 734.889C30.1259 735.698 29.376 737.025 29.3587 737.577C29.3587 737.577 28.8876 737.867 28.7133 738.515C28.5739 739.034 27.6321 740.588 27.3705 741.074C27.2659 741.463 27.6151 742.113 27.8943 742.049C28.1386 742.115 28.697 741.987 29.4121 740.79C30.1272 739.592 30.825 738.946 30.7377 738.783C30.5631 738.458 30.7726 738.653 31.2785 738.233C31.7844 737.814 33.3892 735.743 33.3716 735.321C33.4413 735.062 33.8078 735.161 34.7497 733.607C35.7612 731.794 36.3541 730.563 35.813 730.139Z" fill="#FBBF24"/>
<path d="M41.8293 737.461C41.4976 737.232 40.5379 737.391 39.7528 737.874C38.9328 738.487 38.4966 738.648 38.7237 739.265C38.7237 739.265 38.549 738.94 37.921 739.327C37.2929 739.714 35.9321 740.877 35.5832 741.2C35.2343 741.523 35.0424 741.75 35.06 742.171C35.06 742.171 34.7283 741.943 34.1351 742.2C33.664 742.49 32.4776 743.005 32.1635 743.198C31.8495 743.392 31.6403 744.17 31.6579 744.592C31.6755 745.014 32.2863 745.178 32.5655 745.115C32.8098 745.18 33.9963 744.666 34.6244 744.279C34.9384 744.085 35.7584 743.472 35.8806 743.505C36.0376 743.408 37.73 742.474 38.1138 742.021C38.6197 741.601 39.0383 741.019 39.0383 741.019C39.0383 741.019 39.2302 740.793 39.6664 740.632C40.1026 740.472 41.5856 739.342 41.882 738.726C42.388 738.306 42.2482 737.852 41.8293 737.461Z" fill="#FBBF24"/>
<path d="M44.9411 747.339C44.8886 747.046 44.5218 745.974 43.4051 746.229C42.201 746.322 40.4737 747.386 40.5262 747.678C40.5262 747.678 39.8629 747.221 38.7986 747.769C37.0538 748.411 37.1062 748.703 36.827 748.767C36.827 748.767 36.1289 748.439 35.5357 748.697C34.9773 748.824 33.8257 749.209 33.5292 749.825C33.2327 750.44 33.1282 750.829 33.7041 751.123C34.315 751.288 36.2344 750.971 36.7928 750.843C37.072 750.78 37.229 750.683 37.229 750.683C37.229 750.683 37.4385 750.878 38.4331 750.59C39.3928 750.432 40.2652 750.111 40.3874 750.144C40.9806 749.886 41.4517 749.596 41.4517 749.596C41.4517 749.596 43.4584 749.442 44.3481 748.569C45.1505 747.534 44.9411 747.339 44.9411 747.339Z" fill="#FBBF24"/>
<path d="M34.0018 755.376C34.0018 755.376 33.4783 755.374 32.9199 755.502C32.3964 755.499 31.4542 756.08 31.2623 756.306C31.0705 756.533 31.0532 757.084 31.7862 757.282C33.8978 757.712 34.2467 757.389 34.2467 757.389C34.2467 757.389 34.5435 757.747 36.5503 757.593C37.0738 757.595 37.4227 757.272 37.4227 757.272C37.4227 757.272 37.824 757.241 38.5046 757.146C39.0281 757.148 40.3367 756.667 41.0694 755.891C41.7672 755.244 42.2556 754.403 41.5574 754.075C40.9815 753.781 39.5158 754.359 38.8353 754.454C38.2769 754.582 37.6139 755.098 37.6139 755.098C37.6139 755.098 37.3696 755.032 36.8112 755.16C36.2529 755.288 34.8918 755.477 34.8918 755.477C34.8918 755.477 34.8045 755.314 34.0018 755.376Z" fill="#FBBF24"/>
<path d="M18.2212 745.837C18.7447 745.839 20.5068 744.646 21.659 746.208C22.1304 746.891 22.9162 748.354 22.9513 749.198C22.9689 749.62 21.2592 751.106 20.7012 752.207C20.0385 753.697 19.9867 755.352 20.8419 755.582C21.4527 755.747 22.1857 755.945 23.1803 755.657C24.7332 755.241 26.3732 754.014 26.0937 753.105C25.4998 751.415 23.6319 749.104 22.9504 746.278C22.2689 743.452 25.4791 741.258 26.7711 743.275C27.0679 743.633 29.9825 744.975 29.791 746.175C29.5297 747.634 29.8789 748.284 30.263 748.805C30.7344 749.488 31.2403 749.069 31.6247 750.563C31.8169 751.31 30.4743 754.842 30.6665 755.589C30.8587 756.336 29.6028 758.083 27.0553 758.787C24.5077 759.491 23.3737 760.298 22.0651 760.779C20.7564 761.261 18.104 761.38 16.9169 759.948C15.7298 758.515 14.9789 756.922 15.3102 756.177C15.6067 755.562 16.0602 754.85 15.2399 754.489C14.4196 754.129 13.8078 751.044 14.3307 749.099C14.4177 748.288 16.0922 745.959 18.2212 745.837Z" fill="#FBBF24"/>
<path d="M22.075 736.864C22.3546 737.773 21.9535 738.778 21.0288 739.78C20.453 740.459 20.0167 740.62 19.9819 740.749C20.0692 740.912 20.0343 741.042 19.8424 741.268C19.4762 742.143 19.0226 742.855 18.761 743.341C18.7261 743.47 18.5691 743.567 18.5342 743.697C18.4994 743.827 18.4645 743.956 18.4296 744.086C17.2433 745.574 16.5101 745.376 16.6669 744.306C16.6669 744.306 16.6669 744.306 16.7017 744.176C16.7711 742.943 17.6261 742.2 17.905 741.163C18.3582 739.477 18.48 738.537 18.7241 737.629C18.8984 736.981 19.2297 736.236 19.4565 735.88C20.2939 734.715 21.6556 735.499 22.075 736.864Z" fill="#FBBF24"/>
</svg>
