<svg width="187" height="187" viewBox="0 0 187 187" fill="none" xmlns="http://www.w3.org/2000/svg">
<path d="M95.0902 27.4219C94.9741 27.1897 94.858 26.3772 96.2509 25.9129C97.6437 25.4487 98.108 25.5647 98.3402 25.5647C98.4562 25.5647 98.4562 25.3326 99.1527 25.1004C99.8491 24.9844 100.778 24.7522 101.126 24.7522C101.126 24.7522 101.474 24.5201 101.822 24.5201C102.17 24.5201 103.447 24.1719 103.679 24.1719C104.028 24.1719 104.26 24.5201 104.26 24.7522C104.26 24.9844 104.028 25.3326 103.099 25.5647C102.17 25.7969 101.59 26.1451 101.59 26.029C101.474 25.9129 101.59 26.029 101.126 26.2611C100.778 26.4933 99.1527 27.0736 98.8044 26.9576C98.6884 26.9576 98.5723 27.3058 97.4116 27.4219C96.1348 27.7701 95.2062 28.0022 95.0902 27.4219Z" fill="#00AEEF"/>
<path d="M98.4573 33.1091C98.3412 32.8769 98.6894 32.1805 99.1537 31.8323C99.7341 31.4841 99.8501 31.1359 100.198 31.4841C100.198 31.4841 100.082 31.2519 100.43 30.9037C100.779 30.5555 101.823 29.9752 102.055 29.743C102.288 29.5109 102.52 29.5109 102.868 29.6269C102.868 29.6269 102.868 29.2787 103.1 29.0466C103.332 28.8144 104.029 28.118 104.145 27.8859C104.261 27.7698 104.841 27.7698 105.073 27.8859C105.305 28.002 105.305 28.4662 105.189 28.5823C105.189 28.6984 104.609 29.5109 104.261 29.743C104.029 29.9752 103.564 30.3234 103.448 30.4394C103.332 30.5555 102.404 31.368 102.055 31.6001C101.707 31.8323 101.243 32.0644 101.243 32.0644C101.243 32.0644 101.011 32.1805 100.895 32.4126C100.779 32.6448 99.7341 33.4573 99.2698 33.4573C98.8055 33.6894 98.5733 33.4573 98.4573 33.1091Z" fill="#00AEEF"/>
<path d="M103.913 37.4038C103.68 37.2877 103.216 36.8234 103.564 36.127C103.913 35.4306 104.957 34.3859 105.073 34.502C105.073 34.502 104.957 34.0377 105.538 33.3413C106.35 32.2967 106.466 32.4127 106.582 32.2967C106.582 32.2967 106.582 31.7163 106.814 31.3681C107.046 31.0199 107.511 30.3235 107.975 30.2074C108.439 30.0913 108.671 30.2074 108.788 30.6717C108.904 31.136 108.091 32.2967 107.975 32.6449C107.859 32.7609 107.743 32.877 107.743 32.877C107.743 32.877 107.743 32.9931 107.511 33.6895C107.163 34.2699 106.814 34.8502 106.814 34.9663C106.582 35.3145 106.234 35.5467 106.234 35.5467C106.234 35.5467 105.654 36.8234 104.957 37.2877C103.913 37.5199 103.913 37.4038 103.913 37.4038Z" fill="#00AEEF"/>
<path d="M111.226 31.9485C111.226 31.9485 111.342 31.6003 111.574 31.2521C111.69 30.9039 112.27 30.4396 112.386 30.3235C112.502 30.2075 112.967 30.4396 112.851 30.9039C112.619 32.4128 112.386 32.6449 112.386 32.6449C112.386 32.6449 112.502 32.8771 112.038 34.1539C111.922 34.5021 111.69 34.7342 111.69 34.7342C111.69 34.7342 111.574 34.9664 111.342 35.4306C111.226 35.7789 110.645 36.5914 110.065 36.8235C109.485 37.0556 108.904 37.2878 108.788 36.7074C108.672 36.2431 109.369 35.4306 109.601 35.0824C109.833 34.7342 110.181 34.386 110.181 34.386C110.181 34.386 110.181 34.1539 110.413 33.8056C110.529 33.4574 110.994 32.5289 110.994 32.5289C110.994 32.5289 110.994 32.4128 111.226 31.9485Z" fill="#00AEEF"/>
<path d="M108.671 19.2968C108.555 19.645 107.394 20.5736 108.207 21.7343C108.555 22.1986 109.251 23.0111 109.832 23.2432C110.18 23.3593 111.341 22.5468 112.153 22.4307C113.198 22.3146 114.242 22.6629 114.242 23.2432C114.126 23.7075 114.126 24.2878 113.778 24.8682C113.198 25.7968 112.153 26.7253 111.573 26.145C110.644 25.3325 109.599 23.5914 107.974 22.5468C106.349 21.5021 104.26 23.1271 105.305 24.4039C105.537 24.6361 105.653 26.8414 106.466 27.0735C107.394 27.3057 107.742 27.6539 108.091 28.0021C108.439 28.4664 108.091 28.6985 108.903 29.2789C109.251 29.511 111.805 29.511 112.269 29.7432C112.733 29.9753 114.126 29.6271 115.055 28.0021C115.983 26.3771 116.796 25.9128 117.376 25.1003C117.957 24.4039 118.653 22.6629 117.957 21.5021C117.376 20.3414 116.448 19.5289 115.983 19.5289C115.519 19.645 115.055 19.7611 114.939 19.0647C114.823 18.3682 113.082 17.3236 111.805 17.2075C111.108 17.3236 109.251 17.9039 108.671 19.2968Z" fill="#00AEEF"/>
<path d="M102.288 19.877C102.752 20.2252 103.564 20.2252 104.377 19.877C104.957 19.6449 105.073 19.2967 105.189 19.4127C105.305 19.5288 105.421 19.5288 105.538 19.4127C106.118 19.2967 106.698 19.2967 107.046 19.0645C107.163 19.0645 107.279 18.9484 107.395 18.9484C107.511 18.9484 107.627 18.9484 107.627 18.9484C108.788 18.4842 108.788 17.9038 108.091 17.7877C107.279 17.5556 106.582 18.0199 105.886 17.9038C104.725 17.7877 104.145 17.6717 103.564 17.6717C103.1 17.5556 102.636 17.7877 102.288 17.7877C101.243 18.252 101.475 19.1806 102.288 19.877Z" fill="#00AEEF"/>
<path d="M182.491 101.591C182.259 101.126 181.214 99.3853 178.196 100.894C175.179 102.403 174.482 103.216 174.018 103.68C173.902 103.796 173.321 103.564 171.812 104.26C170.304 104.957 168.33 106.117 167.866 106.814C167.866 106.814 167.054 106.93 166.357 107.51C165.661 108.091 163.223 109.483 162.643 109.948C162.063 110.412 162.295 111.573 162.643 111.805C162.991 112.037 163.804 112.385 165.777 111.341C167.75 110.296 169.259 109.948 169.259 109.6C169.259 109.019 169.375 109.483 170.304 109.251C171.232 109.019 175.062 107.394 175.411 106.93C175.643 106.582 176.223 107.162 178.661 105.537C181.098 104.028 182.955 102.867 182.491 101.591Z" fill="#EB1D66"/>
<path d="M185.859 116.912C185.626 116.332 184.001 115.751 182.492 115.984C180.984 116.216 180.055 115.984 180.055 117.028C180.055 117.028 179.939 116.448 178.778 116.448C177.617 116.448 174.832 117.028 174.019 117.144C173.207 117.26 172.743 117.376 172.51 118.189C172.51 118.189 172.046 117.609 171.234 117.609C170.305 117.609 168.1 117.376 167.519 117.376C166.939 117.376 166.126 118.189 165.778 118.885C165.43 119.582 166.359 120.162 166.707 120.394C167.055 120.626 169.144 120.975 170.305 120.975C171.001 120.975 172.51 120.859 172.743 120.859C173.091 120.859 176.109 120.859 177.037 120.626C177.966 120.394 179.01 120.046 179.01 120.046C179.01 120.046 179.475 119.93 180.287 120.046C180.984 120.278 184.001 119.93 184.93 119.234C186.091 118.421 186.207 117.725 185.859 116.912Z" fill="#EB1D66"/>
<path d="M183.304 132.93C183.42 132.35 183.653 130.841 181.795 130.028C179.938 129.332 176.688 129.216 176.572 129.796C176.572 129.796 175.992 128.752 174.019 128.403C171.001 127.939 170.769 128.287 170.421 128.287C170.421 128.287 169.608 127.359 168.563 127.01C167.519 126.662 165.662 126.314 164.849 126.894C164.037 127.475 163.456 128.055 164.269 128.868C164.965 129.68 168.099 130.609 168.912 130.957C169.26 131.073 169.608 130.957 169.608 130.957C169.608 130.957 169.84 131.305 171.349 131.885C172.858 132.466 174.367 132.814 174.599 132.814C175.528 132.93 176.456 132.93 176.456 132.93C176.456 132.93 179.59 134.323 181.447 133.859C183.42 133.394 183.304 132.93 183.304 132.93Z" fill="#EB1D66"/>
<path d="M161.832 135.367C161.832 135.367 161.02 135.019 160.207 134.671C159.395 134.322 157.77 134.322 157.305 134.439C156.841 134.555 156.493 135.483 157.421 136.18C160.207 138.501 160.904 138.385 160.904 138.385C160.904 138.385 161.02 139.197 164.037 140.474C164.85 140.822 165.546 140.822 165.546 140.822C165.546 140.822 166.243 141.055 167.171 141.519C168.1 141.983 170.189 142.331 171.698 141.867C173.091 141.403 174.484 140.706 173.787 139.662C173.091 138.733 170.654 138.385 169.609 138.037C168.796 137.805 167.404 137.921 167.404 137.921C167.404 137.921 167.055 137.689 166.243 137.224C165.314 136.76 163.225 136.064 163.225 136.064C163.225 136.064 162.877 135.831 161.832 135.367Z" fill="#EB1D66"/>
<path d="M145.698 109.484C146.51 109.948 149.876 109.716 150.456 112.734C150.689 114.01 150.805 116.68 149.992 117.957C149.644 118.537 146.162 119.118 144.653 120.278C142.68 121.787 141.403 124.109 142.448 125.037C143.26 125.734 144.189 126.662 145.814 127.01C148.367 127.707 151.617 127.359 151.849 125.734C152.198 122.948 151.269 118.189 152.314 113.662C153.358 109.135 159.626 108.671 159.974 112.502C160.09 113.198 163.34 117.377 162.18 118.885C160.787 120.743 160.787 122.019 160.903 123.064C161.019 124.341 162.18 124.225 161.483 126.662C161.251 127.707 156.724 131.653 156.492 132.814C156.26 133.975 153.126 135.484 148.948 134.323C144.769 133.162 142.564 133.51 140.358 133.162C138.153 132.814 134.207 130.957 133.51 127.939C132.814 125.037 132.814 122.135 133.742 121.439C134.671 120.743 135.832 120.278 134.903 119.002C133.974 117.725 135.367 112.966 137.457 110.76C138.501 109.832 142.68 107.975 145.698 109.484Z" fill="#EB1D66"/>
<path d="M157.885 100.082C157.653 101.475 156.376 102.752 154.287 103.332C153.01 103.796 152.197 103.68 152.081 103.912C151.965 104.144 151.849 104.377 151.617 104.609C150.456 105.421 149.412 106.118 148.483 106.582C148.251 106.698 148.019 106.698 147.787 106.93C147.554 107.046 147.438 107.278 147.322 107.278C144.537 108.439 143.608 107.394 144.653 106.118C144.653 106.118 144.653 106.002 144.769 106.002C145.813 104.377 147.67 103.912 148.715 102.752C150.572 100.662 151.501 99.5016 152.313 98.457C152.894 97.6445 154.054 96.948 154.635 96.7159C156.956 95.6713 158.233 97.7605 157.885 100.082Z" fill="#EB1D66"/>
<path d="M155.794 18.1356C155.562 18.0195 154.518 17.7873 153.821 19.5284C153.125 21.2695 153.241 21.8498 153.125 22.198C153.125 22.3141 152.777 22.4302 152.428 23.2427C152.08 24.0552 151.732 25.3319 151.848 25.7962C151.848 25.7962 151.5 26.1444 151.5 26.7248C151.5 27.1891 151.035 28.698 150.919 29.1623C150.919 29.5105 151.384 29.9748 151.616 29.8587C151.848 29.8587 152.312 29.6266 152.66 28.4659C153.009 27.3052 153.473 26.6087 153.357 26.4927C153.125 26.2605 153.357 26.3766 153.705 25.9123C154.053 25.448 154.982 23.3587 154.866 23.0105C154.866 22.7784 155.214 22.7784 155.678 21.2695C156.143 19.5284 156.375 18.3677 155.794 18.1356Z" fill="#FEBF29"/>
<path d="M162.877 22.8948C162.528 22.7787 161.716 23.1269 161.136 23.7073C160.555 24.4037 160.207 24.6359 160.555 25.1001C160.555 25.1001 160.323 24.868 159.859 25.3323C159.395 25.7966 158.466 27.0733 158.234 27.4216C158.002 27.7698 157.886 28.0019 158.002 28.3501C158.002 28.3501 157.654 28.2341 157.189 28.5823C156.841 28.9305 155.912 29.6269 155.68 29.8591C155.448 30.0912 155.448 30.7876 155.564 31.1358C155.68 31.484 156.261 31.484 156.493 31.368C156.725 31.368 157.654 30.6715 158.118 30.2073C158.35 29.9751 158.93 29.2787 159.046 29.2787C159.162 29.1626 160.439 28.0019 160.671 27.5376C161.02 27.0733 161.252 26.493 161.252 26.493C161.252 26.493 161.368 26.2609 161.716 26.0287C162.064 25.7966 163.109 24.5198 163.225 23.9394C163.573 23.4752 163.341 23.1269 162.877 22.8948Z" fill="#FEBF29"/>
<path d="M167.981 30.439C167.865 30.2068 167.285 29.3944 166.356 29.8586C165.311 30.2068 164.035 31.4836 164.151 31.7158C164.151 31.7158 163.454 31.4836 162.642 32.1801C161.249 33.1086 161.365 33.3408 161.133 33.4568C161.133 33.4568 160.436 33.3408 159.972 33.689C159.508 33.9211 158.579 34.5015 158.463 35.0818C158.347 35.6622 158.347 36.0104 158.927 36.1265C159.508 36.1265 161.133 35.43 161.597 35.1979C161.829 35.0818 161.945 34.9658 161.945 34.9658C161.945 34.9658 162.177 35.0818 162.99 34.6175C163.802 34.2693 164.499 33.805 164.615 33.805C165.079 33.4568 165.427 33.1086 165.427 33.1086C165.427 33.1086 167.169 32.5283 167.749 31.5997C168.213 30.5551 167.981 30.439 167.981 30.439Z" fill="#FEBF29"/>
<path d="M160.204 39.6085C160.204 39.6085 159.74 39.7246 159.275 39.9567C158.811 40.0728 158.115 40.7692 157.999 41.0014C157.882 41.2335 157.999 41.6978 158.695 41.6978C160.668 41.5817 160.9 41.2335 160.9 41.2335C160.9 41.2335 161.249 41.4656 162.99 40.8853C163.454 40.7692 163.686 40.421 163.686 40.421C163.686 40.421 164.034 40.3049 164.615 40.0728C165.079 39.9567 166.124 39.2603 166.588 38.4478C167.052 37.7514 167.284 36.9389 166.588 36.8228C166.007 36.7067 164.847 37.5192 164.266 37.7514C163.802 37.9835 163.338 38.5639 163.338 38.5639C163.338 38.5639 163.106 38.5639 162.641 38.796C162.177 39.0281 161.016 39.4924 161.016 39.4924C161.016 39.4924 160.9 39.3764 160.204 39.6085Z" fill="#FEBF29"/>
<path d="M143.955 35.1978C144.419 35.0817 145.696 33.6889 147.089 34.7335C147.669 35.1978 148.714 36.2424 148.946 36.9389C149.062 37.2871 147.901 38.9121 147.669 39.9567C147.437 41.3495 147.785 42.7424 148.598 42.7424C149.178 42.7424 149.875 42.7424 150.687 42.2781C151.964 41.5817 153.125 40.1888 152.66 39.4924C151.732 38.2156 149.526 36.7067 148.25 34.5014C146.973 32.296 149.294 29.7425 150.919 31.1353C151.267 31.3675 154.169 31.8317 154.285 32.8764C154.401 34.1532 154.866 34.6174 155.33 34.9657C155.91 35.4299 156.259 34.9657 156.955 36.1264C157.303 36.7067 156.955 39.9567 157.303 40.5371C157.651 41.1174 156.955 42.8585 154.866 44.0192C152.776 45.1799 151.964 46.1085 150.919 46.8049C149.875 47.5013 147.553 48.1977 146.16 47.2692C144.768 46.3406 143.723 45.1799 143.839 44.4835C143.955 43.9031 144.187 43.2067 143.375 43.0906C142.562 42.9745 141.285 40.5371 141.285 38.796C141.169 38.0996 142.098 35.7781 143.955 35.1978Z" fill="#FEBF29"/>
<path d="M145.233 26.841C145.697 27.5374 145.581 28.466 145.001 29.5106C144.653 30.207 144.304 30.4392 144.304 30.5552C144.421 30.6713 144.421 30.7874 144.304 31.0195C144.188 31.832 143.956 32.5284 143.84 32.9927C143.84 33.1088 143.724 33.2249 143.724 33.3409C143.724 33.457 143.724 33.5731 143.724 33.6891C143.028 35.1981 142.331 35.1981 142.215 34.2695C142.215 34.2695 142.215 34.2695 142.215 34.1534C141.983 33.1088 142.563 32.2963 142.563 31.3677C142.563 29.8588 142.447 29.0463 142.447 28.2338C142.447 27.6535 142.563 26.957 142.679 26.6088C143.144 25.4481 144.537 25.7963 145.233 26.841Z" fill="#FEBF29"/>
<path d="M33.2266 80.6979C32.298 79.4212 31.3694 78.7247 29.8605 78.3765C28.0034 78.0283 25.4498 77.7962 24.173 76.2872C23.1284 75.0105 23.5927 72.9212 25.5659 72.573C27.8873 72.2248 32.7623 74.6623 33.2266 80.6979Z" fill="#FEBF29"/>
<path d="M165.081 67.4661C171.581 65.7251 178.43 73.2697 183.072 72.3411C186.438 71.7608 187.135 67.4661 185.278 65.1447C180.751 59.4572 170.885 61.6626 165.081 67.4661Z" fill="#00AEEF"/>
<path d="M128.172 11.6361C126.315 10.4754 124.69 8.3861 123.878 6.18075C123.297 4.43969 122.949 1.88613 124.574 0.609352C125.851 -0.435286 128.172 -0.0870731 129.101 1.30578C130.029 2.69863 129.333 4.55576 128.869 6.06468C128.288 8.03789 127.708 9.77895 128.172 11.6361Z" fill="#FEBF29"/>
<path d="M132 58.645C128.867 48.3146 121.67 51.6807 119.465 46.4575C117.492 41.6986 126.081 37.9843 130.375 48.895C131.536 51.7968 132.233 55.6271 132 58.645Z" fill="#EB1D66"/>
<path d="M106.928 130.028C108.669 128.751 110.642 127.707 112.847 127.591C114.937 127.475 117.258 128.751 119.115 127.591C121.669 125.966 120.044 122.716 117.49 122.135C114.937 121.671 112.383 122.6 110.526 124.108C108.437 125.733 107.392 128.055 106.464 130.492" fill="#00AEEF"/>
<path d="M68.6278 15.2339C70.1367 12.6803 71.4135 10.591 75.5921 9.66247C78.4938 8.96604 82.9045 10.2428 84.9938 7.80533C88.7081 3.39464 79.6545 -1.59641 72.8064 6.41248C70.7171 8.84997 69.4403 11.8678 68.6278 15.2339Z" fill="#EB1D66"/>
<path d="M118.536 152.082C117.607 152.43 115.634 152.662 113.545 153.359C112.268 153.823 111.223 154.287 110.411 154.519L110.643 154.752C110.643 154.752 112.268 160.787 114.938 163.341L115.286 164.153C117.143 163.805 119.58 162.064 122.482 159.859C125.036 157.885 128.75 152.082 128.75 152.082C128.75 152.082 123.875 149.993 118.536 152.082Z" fill="#F9A01B"/>
<g opacity="0.2">
<path d="M116.098 153.01C115.285 153.359 113.428 153.475 111.687 154.171C110.527 154.519 109.598 154.984 108.902 155.216L109.134 155.448C109.134 155.448 110.527 161.019 112.964 163.341L113.196 164.153C114.821 163.805 117.143 162.18 119.812 160.207C122.134 158.466 125.268 153.01 125.268 153.01C125.268 153.01 120.741 151.153 116.098 153.01Z" fill="white"/>
</g>
<path d="M80.8139 148.832C82.7871 148.6 84.7603 148.832 86.1532 148.948C87.3139 149.064 89.8674 149.528 90.0996 151.501C90.4478 154.635 88.0103 159.626 85.1085 158.466C82.2068 157.305 78.9568 152.778 78.3764 149.644" fill="#F9A01B"/>
<g opacity="0.2">
<path d="M79.6539 150.805C81.3949 150.573 83.136 150.805 84.4128 150.921C85.4574 151.037 87.7788 151.501 87.8949 153.242C88.2431 156.028 85.9217 160.555 83.3681 159.51C80.8146 158.466 77.7968 154.403 77.3325 151.617" fill="white"/>
</g>
<path d="M64.6806 167.867C67.1181 168.332 70.252 167.635 72.2252 167.287C79.0734 166.126 82.9038 160.671 82.9038 160.671C82.9038 160.671 86.2698 163.805 88.7073 164.617C91.2609 165.43 93.2341 164.733 95.5555 166.01L96.8323 168.332C97.2965 170.885 95.5555 175.992 93.6983 177.849C91.8412 179.707 88.0109 183.537 86.0377 183.537C84.877 183.537 78.377 180.751 77.1002 180.171C67.2342 175.992 63.1717 170.769 63.1717 170.537C63.8681 173.323 62.5914 174.483 60.8503 175.18C58.8771 175.992 55.1628 175.992 53.5378 174.948C51.9128 173.903 48.0825 171.233 46.4575 168.099C45.0646 165.198 44.4843 157.189 42.7432 154.635C49.3593 163.921 57.6003 166.591 64.6806 167.867Z" fill="#00AEEF"/>
<g opacity="0.4">
<path d="M62.2437 167.983C64.4491 168.331 67.2348 167.751 68.8598 167.403C74.8954 166.358 78.3776 161.599 78.3776 161.599C78.3776 161.599 81.2793 164.385 83.6008 165.081C85.8061 165.778 87.5472 165.197 89.6364 166.358L90.7972 168.447C91.1454 170.653 89.6364 175.179 88.0114 176.804C86.3865 178.429 83.0204 181.912 81.1633 181.912C80.1186 181.912 74.3151 179.474 73.2705 179.01C64.5651 175.296 60.8509 170.653 60.9669 170.421C61.5473 172.858 60.3866 173.903 58.8777 174.599C57.1366 175.296 53.7705 175.412 52.3777 174.367C50.8688 173.438 47.5027 171.117 46.1099 168.331C44.8331 165.778 44.3688 158.697 42.7438 156.376C48.6634 164.501 55.9759 166.938 62.2437 167.983Z" fill="#AEC7BA"/>
</g>
<path d="M89.4029 109.251C91.4922 109.948 93.5815 110.644 95.0904 112.153C96.5993 113.662 97.4118 117.608 96.3672 119.465C90.3315 121.439 84.644 123.992 79.0726 127.01C77.3316 127.939 76.9834 129.099 76.1709 130.956C75.5905 132.233 74.1977 135.251 74.0816 136.644C73.8494 140.706 73.6173 143.144 74.0816 147.206C74.5459 151.385 77.2155 154.983 79.7691 158.233C72.4566 166.822 57.5995 164.617 49.2424 158.697C47.1532 157.188 43.671 155.331 42.8585 152.894C42.2782 151.269 42.2782 146.394 42.1621 144.653C42.046 138.733 42.046 132.581 43.7871 126.894C44.9478 123.064 46.921 119.349 46.5728 115.403C46.2246 111.457 43.671 109.599 41.8139 106.001C38.5639 99.5012 38.0996 99.153 43.2067 93.2334C44.1353 92.1888 47.0371 91.4924 48.3139 91.9566C49.1264 92.1888 49.8228 94.3941 50.2871 95.0906C54.4656 99.9655 55.162 103.448 59.6888 107.858C65.1441 113.082 73.7334 114.823 80.6976 112.037C83.4833 110.992 86.153 109.251 89.1708 109.367" fill="#EB1D66"/>
<g opacity="0.2">
<path d="M83.9483 112.85C85.8054 113.43 87.6626 114.127 89.0554 115.404C90.4483 116.68 89.6358 118.77 88.7072 120.395C83.3679 122.136 79.7697 124.457 74.8948 127.127C73.3859 127.939 73.0376 130.493 72.3412 132.118C71.8769 133.279 70.6001 135.948 70.4841 137.109C70.2519 140.707 70.0198 142.912 70.4841 146.511C70.9484 150.225 73.2698 153.359 75.5912 156.261C69.0912 163.805 55.8591 160.439 48.5467 155.216C46.6895 153.939 43.6717 150.689 42.8592 148.6C42.2789 147.091 42.2789 144.305 42.2789 142.796C42.1628 137.457 42.1628 133.627 43.6717 128.52C44.7163 125.154 46.4574 121.788 46.1092 118.305C45.761 114.823 43.5556 113.082 41.9306 109.948C39.0289 104.261 38.5646 103.797 43.2074 98.5734C44.0199 97.6448 46.5735 97.0645 47.7342 97.4127C48.4306 97.6448 49.011 99.502 49.4753 100.198C53.1895 104.609 53.7699 107.627 57.8323 111.573C62.5913 116.216 70.2519 117.725 76.5198 115.288C78.9573 114.359 81.3947 112.734 84.0644 112.966" fill="#F09BA7"/>
</g>
<path d="M67.2347 56.7876C59.1097 63.4036 50.9847 73.85 51.2169 84.1803C51.449 94.5106 58.9936 104.377 69.0918 106.698C75.7078 108.207 82.556 106.582 88.8238 104.145C93.6988 102.287 100.083 98.2249 103.797 94.5106C107.511 90.7964 109.949 85.5732 109.484 80.2339C108.788 72.6893 102.52 66.8858 95.7881 63.4036C87.1988 58.5287 77.1007 56.3233 67.2347 56.7876Z" fill="#FFE1BD"/>
<path d="M58.4124 65.8407C54.6981 71.7603 50.9838 77.796 50.7517 84.9924C50.4035 93.2334 55.1624 100.662 62.0106 104.957C73.1534 112.037 86.6176 108.439 97.2961 102.403C97.9925 101.939 98.689 102.983 98.2247 103.564C93.93 108.323 85.1087 110.412 78.9569 110.876C71.7605 111.34 64.332 109.599 58.5284 104.957C45.6446 94.6263 47.3856 76.8674 58.2963 65.7246C58.4124 65.7246 58.5284 65.8407 58.4124 65.8407Z" fill="black"/>
<path d="M81.626 76.8681C84.876 73.8502 92.0724 74.4306 93.0009 79.6538C93.117 80.2341 93.0009 81.2788 92.1884 81.3949C91.1438 81.5109 90.9117 80.2341 90.5635 79.5377C88.9385 76.4038 85.2242 76.752 82.4385 77.9127C81.7421 78.0288 81.0456 77.3324 81.626 76.8681Z" fill="black"/>
<path d="M69.6722 74.5468C68.7436 73.7343 68.3954 72.8057 66.8865 72.5736C65.7258 72.4575 64.5651 72.8057 63.6365 73.5022C62.4758 74.1986 61.4312 72.4575 62.5919 71.645C64.1008 70.7165 65.9579 70.2522 67.8151 70.9486C69.2079 71.4129 70.8329 72.6897 70.6007 74.3146C70.4847 74.7789 69.9043 74.7789 69.6722 74.5468Z" fill="black"/>
<path d="M92.1875 87.5466C91.7232 88.3591 85.2232 98.4573 75.5894 98.6894C71.759 98.8055 68.393 97.2966 67.4644 96.8323C65.7233 96.0198 62.4734 94.5109 62.1251 91.9573C62.0091 91.1448 62.2412 90.4484 62.4734 89.8681C63.0537 88.0109 63.8662 85.2252 64.3305 81.2788" fill="white"/>
<path d="M64.4478 80.6987C68.6264 79.8862 73.0371 81.8594 76.8674 83.3683C79.0727 84.1808 81.2781 85.1093 83.4834 85.6897C86.2691 86.3861 89.0548 86.154 91.7245 86.8504C92.0727 86.9665 92.1887 87.5468 91.8405 87.779C88.2423 89.6361 83.5995 87.8951 80.0013 86.6183C74.7781 84.6451 69.671 83.0201 64.4478 81.3951C64.2157 81.1629 64.2157 80.6987 64.4478 80.6987Z" fill="black"/>
<path d="M92.5376 87.6626C91.2608 91.2608 88.7072 94.5108 85.5733 96.7162C82.9037 98.5733 78.6091 100.547 75.4751 98.9215C75.243 98.8054 75.3591 98.4572 75.5912 98.3412C78.8412 97.1804 81.859 97.4126 84.8769 95.4394C87.8947 93.3501 89.8679 90.3323 91.8411 87.4305C92.0733 87.0823 92.6536 87.1983 92.5376 87.6626Z" fill="black"/>
<path d="M67.4667 96.9479C66.1899 96.4836 64.681 96.3676 63.5203 95.5551C62.3596 94.7426 61.5471 93.5819 61.431 92.189C61.315 91.2604 62.5917 91.2604 62.9399 91.9569C63.4042 93.1176 63.8685 93.9301 64.9132 94.6265C65.8417 95.3229 66.6542 96.0194 67.5828 96.5997C67.6989 96.8318 67.5828 96.9479 67.4667 96.9479Z" fill="black"/>
<path d="M62.3578 89.8678C62.0096 88.7071 62.3578 87.3143 62.5899 86.1536C62.9382 84.5286 63.4024 82.9036 63.5185 81.1625C63.6346 80.0018 65.4917 80.0018 65.3756 81.1625C65.2596 82.7875 64.9114 84.1804 64.331 85.6893C63.8667 87.0821 63.4024 88.5911 62.706 89.8678C62.5899 90.1 62.3578 90.1 62.3578 89.8678Z" fill="black"/>
<path d="M64.3324 99.5015C65.8413 100.662 67.6984 101.359 69.5556 101.823C70.7163 102.055 72.6895 101.939 73.3859 102.984C73.502 103.1 73.3859 103.332 73.3859 103.448C72.3413 104.725 69.5556 103.796 68.3949 103.332C66.5377 102.635 65.0288 101.475 64.2163 99.7336C64.1002 99.6175 64.2163 99.5015 64.3324 99.5015Z" fill="black"/>
<path d="M90.7974 86.3853C91.3778 86.2693 91.9582 86.2693 92.5385 86.5014C93.1189 86.7335 93.6992 87.1978 93.6992 87.8942C93.6992 88.4746 93.1189 88.8228 92.6546 88.4746C92.3064 88.2425 92.1903 87.8943 91.8421 87.7782C91.4939 87.6621 91.1457 87.546 90.7974 87.43C90.2171 87.3139 90.2171 86.5014 90.7974 86.3853Z" fill="black"/>
<path d="M58.9929 64.3325C60.85 57.8325 67.35 52.6094 73.6178 50.6361C73.966 50.5201 74.0821 50.9844 73.8499 51.1004C71.0642 52.9576 68.1625 54.5826 65.6089 56.7879C63.0553 58.9932 61.0821 61.6629 59.225 64.4486C59.1089 64.5647 58.8768 64.5647 58.9929 64.3325Z" fill="black"/>
<path d="M33.8026 6.41258C34.3829 6.41258 36.3561 6.76079 36.0079 10.2429C35.7758 13.609 35.1954 14.5375 34.9633 15.234C34.8472 15.4661 35.4276 15.8143 35.1954 17.5554C35.0794 19.1804 34.7311 21.5018 34.2669 22.1982C34.2669 22.1982 34.499 23.0107 34.1508 23.9393C33.8026 24.7518 33.4544 27.6535 33.2222 28.35C32.9901 29.0464 31.8294 29.2785 31.4812 29.0464C31.133 28.8143 30.4365 28.1178 30.7847 25.9125C31.0169 23.7071 30.7847 22.1982 31.133 22.0821C31.5972 21.85 31.249 21.9661 31.0169 20.9214C30.9008 19.8768 31.0169 15.6982 31.3651 15.234C31.5972 14.8857 30.9008 14.5375 31.4812 11.6358C32.0615 8.50185 32.4097 6.29651 33.8026 6.41258Z" fill="#EC1E66"/>
<path d="M18.2515 8.73438C18.9479 8.73438 19.9925 10.0112 20.4568 11.5201C20.805 13.029 21.3854 13.8415 20.3408 14.1897C20.3408 14.1897 20.9211 14.0736 21.3854 15.1183C21.7336 16.1629 22.314 19.0647 22.5461 19.8772C22.7783 20.6897 22.7782 21.154 22.1979 21.6182C22.1979 21.6182 22.8943 21.8504 23.2425 22.6629C23.5907 23.4754 24.5193 25.4486 24.7515 26.0289C24.9836 26.4932 24.5193 27.6539 23.939 28.2343C23.4747 28.8146 22.5461 28.2343 22.1979 28.0021C21.8497 27.77 20.805 25.9129 20.3408 24.8682C20.1086 24.2879 19.6443 22.779 19.5283 22.5468C19.4122 22.3147 18.2515 19.4129 18.1354 18.3683C18.0193 17.4397 17.9033 16.279 17.9033 16.279C17.9033 16.279 17.9033 15.6986 17.439 15.1183C16.9747 14.5379 16.1622 11.5201 16.5104 10.4754C16.7426 9.19866 17.3229 8.73438 18.2515 8.73438Z" fill="#EC1E66"/>
<path d="M4.0915 17.0911C4.55579 16.859 5.94864 15.9304 7.34149 17.4393C8.73434 18.8322 9.89506 21.9661 9.54685 22.1983C9.54685 22.1983 10.7075 22.4304 11.7522 24.1715C13.3772 26.8411 13.029 27.1893 13.2611 27.5375C13.2611 27.5375 14.5379 27.8857 15.1182 28.8143C15.8147 29.6268 16.8593 31.2518 16.6272 32.2964C16.395 33.3411 16.0468 34.0375 15.0022 33.5732C13.9575 33.225 11.8683 30.6714 11.2879 29.975C11.0558 29.6268 11.0558 29.2786 11.0558 29.2786C11.0558 29.2786 10.5915 29.2786 9.54685 28.0018C8.50221 26.725 7.57364 25.5643 7.45757 25.3322C6.99328 24.5197 6.64508 23.5911 6.64508 23.5911C6.64508 23.5911 4.20758 21.1536 3.85936 19.1804C3.62722 17.2072 4.0915 17.0911 4.0915 17.0911Z" fill="#EC1E66"/>
<path d="M9.77763 38.216C9.77763 38.216 10.358 38.9125 11.0544 39.4928C11.6348 40.0732 12.3312 41.5821 12.3312 42.1624C12.4473 42.6267 11.7508 43.3231 10.5901 42.7428C7.45621 41.0017 7.22407 40.3053 7.22407 40.3053C7.22407 40.3053 6.41156 40.4214 4.09015 38.216C3.39372 37.5196 3.16159 36.9392 3.16159 36.9392C3.16159 36.9392 2.69731 36.3589 2.00088 35.6625C1.30446 34.966 0.143736 33.1089 0.0276651 31.6C-0.0884056 30.0911 0.143744 28.5821 1.30445 28.8143C2.46516 29.0464 3.74195 31.3678 4.3223 32.0643C4.90266 32.7607 5.25085 34.0375 5.25085 34.0375C5.25085 34.0375 5.59908 34.2696 6.2955 34.966C6.99193 35.6625 8.50084 37.4035 8.50084 37.4035C8.50084 37.4035 8.84906 37.4035 9.77763 38.216Z" fill="#EC1E66"/>
<path d="M39.9562 43.7876C39.2597 43.2072 38.2151 39.9572 35.1972 40.5376C33.9205 40.7697 31.3669 41.6983 30.4384 42.859C29.9741 43.4394 30.6705 46.9215 30.2062 48.7786C29.5098 51.2161 27.7687 53.3054 26.4919 52.609C25.5634 52.0286 24.2866 51.5643 23.358 50.1715C21.733 47.9661 20.8045 44.8322 22.4295 44.0197C24.8669 42.7429 29.7419 41.8144 33.5723 39.1447C37.4026 36.4751 35.5455 30.4394 31.8312 31.4841C31.1348 31.7162 26.0276 30.2073 24.983 31.7162C23.8223 33.6894 22.5455 34.1537 21.5009 34.3858C20.2241 34.734 19.992 33.6894 17.9027 35.1983C16.9741 35.8948 15.0009 41.4662 13.9563 42.1626C12.9116 42.859 12.6795 46.3411 15.3491 49.8233C18.0188 53.3054 18.483 55.6268 19.6438 57.4839C20.8045 59.4571 24.0544 62.3589 27.0723 62.0107C30.0901 61.5464 32.7598 60.5018 33.108 59.3411C33.3401 58.1804 33.4562 57.0197 34.9651 57.3679C36.474 57.7161 40.4204 54.6982 41.8133 51.9125C42.3936 50.7518 42.6258 46.109 39.9562 43.7876Z" fill="#EC1E66"/>
<path d="M44.3666 28.93C43.0898 29.6265 42.5094 31.3675 42.6255 33.4568C42.7416 34.8496 43.0898 35.5461 42.8576 35.7782C42.6255 36.0104 42.5094 36.1264 42.3934 36.4746C42.0451 37.8675 41.813 39.1443 41.6969 40.1889C41.6969 40.421 41.6969 40.6532 41.6969 41.0014C41.6969 41.2335 41.4648 41.4657 41.4648 41.5818C41.3487 44.7157 42.7416 45.0639 43.5541 43.671C43.5541 43.671 43.5541 43.555 43.6701 43.555C44.8308 41.93 44.4826 40.0728 45.2951 38.5639C46.4558 36.0104 47.2683 34.7336 47.9648 33.5729C48.429 32.7604 48.6612 31.3675 48.7773 30.6711C48.8933 28.2336 46.4558 27.7693 44.3666 28.93Z" fill="#EC1E66"/>
<path d="M45.7604 91.3763C45.2961 83.5996 47.6175 75.9389 50.2871 68.7425C52.7246 62.0104 55.3942 53.7694 59.8049 48.0819C60.1531 47.7337 60.6174 48.0819 60.5014 48.5462C58.9924 55.6265 54.5817 62.4747 52.0282 69.2068C49.3585 76.4032 47.3853 83.7156 46.5728 91.2603C46.4568 91.9567 45.7604 91.9567 45.7604 91.3763Z" fill="black"/>
<path d="M95.2061 109.832C101.242 106.582 107.161 103.1 113.313 99.8501C118.42 97.2965 125.268 92.6537 131.188 92.8858C131.536 92.8858 131.652 93.3501 131.42 93.5823C125.036 96.6001 118.536 99.0376 112.269 102.288C106.813 105.189 101.358 108.323 95.5543 110.413C95.0901 110.761 94.7418 110.064 95.2061 109.832Z" fill="black"/>
<path d="M89.5192 106.698C92.6531 106.466 96.1352 108.904 97.9923 111.109C99.9655 113.431 102.055 118.886 98.4566 120.743C98.2245 120.859 97.9923 120.743 97.9923 120.511C97.6441 119.002 98.2245 117.493 97.9923 115.984C97.7602 114.359 96.8316 112.966 95.787 111.806C94.0459 110.065 91.7245 108.672 89.4031 108.091C88.5906 107.859 88.8227 106.698 89.5192 106.698Z" fill="black"/>
<path d="M50.8671 92.1891C48.5457 91.9569 46.6885 91.9569 44.5993 93.0016C43.5546 93.5819 42.626 94.1623 41.8135 95.0908C41.2332 95.6712 40.7689 96.3676 40.0725 96.5998C39.8403 96.7158 39.4921 96.5998 39.3761 96.3676C38.6796 94.0462 42.51 91.8409 44.251 91.1444C46.3403 90.3319 49.7064 89.5194 51.0992 91.7248C51.2153 91.9569 50.9831 92.1891 50.8671 92.1891Z" fill="black"/>
<path d="M78.6094 130.144C75.4755 138.966 76.0559 150.573 83.2523 156.841C83.6005 157.073 83.3683 157.769 82.9041 157.769C78.1451 157.305 76.1719 151.037 75.5916 146.975C74.663 141.171 75.4755 135.251 78.1451 130.028C78.3773 129.68 78.7255 129.912 78.6094 130.144Z" fill="black"/>
<path d="M47.2693 114.359C40.6532 126.778 39.7247 139.198 42.8586 152.778C42.9747 153.126 42.3943 153.475 42.1622 153.01C35.5461 140.475 39.8407 125.385 47.0371 114.127C47.0371 114.011 47.3854 114.127 47.2693 114.359Z" fill="black"/>
<path d="M42.0452 152.778C47.9648 158.581 54.9291 164.037 63.5183 164.849C66.7683 165.197 70.0183 164.965 73.1522 163.921C77.679 162.528 79.304 159.626 82.7861 156.84C83.0182 156.724 83.4825 156.724 83.3664 157.072C82.4379 164.733 71.179 166.938 64.9112 166.59C55.2773 166.126 47.2684 160.555 42.0452 152.778C41.9291 152.894 42.0452 152.778 42.0452 152.778Z" fill="black"/>
<path d="M39.3765 97.0641C37.9837 104.493 43.7872 110.296 46.1086 116.796C46.2247 117.144 45.7604 117.377 45.5283 117.144C41.3497 113.082 35.7783 102.752 39.3765 97.0641C39.3765 96.948 39.3765 96.948 39.3765 97.0641Z" fill="black"/>
<path d="M97.9912 123.18C96.9465 123.76 95.5537 123.876 94.393 124.225C92.0715 124.921 89.8662 125.733 87.6609 126.778C84.7591 128.055 81.5091 130.144 78.3752 130.492C78.027 130.492 77.9109 130.144 78.143 129.912C80.6966 127.242 85.1073 125.85 88.4734 124.573C91.0269 123.528 95.3215 121.207 97.9912 122.483C98.3394 122.483 98.2233 122.948 97.9912 123.18Z" fill="black"/>
<path d="M62.5911 170.653C67.8143 177.733 77.7964 182.608 85.9213 184.813C86.3856 184.929 86.3856 185.626 85.9213 185.742C81.2785 187.019 75.7071 183.304 71.9928 180.867C68.0464 178.313 64.1 175.179 62.3589 170.653C62.475 170.653 62.5911 170.537 62.5911 170.653Z" fill="black"/>
<path d="M88.242 183.189C90.0991 181.912 92.0723 180.984 93.5812 179.242C94.858 177.734 95.7866 176.109 96.483 174.367C97.0634 172.975 97.5276 171.35 97.5276 169.841C97.5276 168.1 96.7151 167.171 95.9027 165.778C95.7866 165.546 95.9026 165.198 96.1348 165.082C101.126 163.573 99.8491 171.93 99.1526 174.251C97.6437 178.662 93.6973 184.698 88.242 183.885C88.0098 184.001 88.0098 183.421 88.242 183.189Z" fill="black"/>
<path d="M95.2073 165.082C93.002 165.546 90.3323 164.385 88.3591 163.457C86.6181 162.644 83.7163 161.483 83.3681 159.394C83.3681 159.162 83.4842 158.814 83.8324 158.93C84.7609 159.162 85.4574 159.742 86.1538 160.207C87.3145 161.019 88.5913 161.599 89.9841 162.064C91.7252 162.76 94.0466 163.224 95.4395 164.501C95.4395 164.849 95.3234 165.082 95.2073 165.082Z" fill="black"/>
<path d="M42.2788 154.751C43.4395 157.537 43.6716 160.555 44.4841 163.457C44.8323 164.966 45.2966 166.475 46.1091 167.751C46.8055 169.028 47.3859 169.26 47.502 170.653C47.502 170.769 47.3859 170.885 47.2698 170.885C44.8323 170.653 43.9037 167.171 43.3234 165.198C42.3948 161.832 42.1627 158.234 42.2788 154.751C42.1627 154.751 42.2788 154.751 42.2788 154.751Z" fill="black"/>
<path d="M48.082 171.814C52.957 175.18 58.9927 179.01 63.7516 173.555C64.3319 172.858 65.2605 173.787 64.9123 174.483C61.6623 181.099 50.8677 176.689 47.8499 171.93C47.8499 171.814 47.9659 171.698 48.082 171.814Z" fill="black"/>
<path d="M96.3669 177.501C98.224 177.037 100.081 177.385 101.938 177.037C104.144 176.573 106.117 175.296 107.858 173.903C110.992 171.233 111.92 168.099 113.778 164.617C114.01 164.269 114.59 164.269 114.706 164.733C115.635 168.912 111.804 173.555 108.786 175.876C105.769 178.198 99.6169 181.099 96.2508 177.965C96.0187 177.849 96.1348 177.501 96.3669 177.501Z" fill="black"/>
<path d="M114.359 165.314C112.386 165.198 110.761 162.644 109.949 160.903C108.904 158.814 108.556 156.493 109.252 154.171C109.368 153.939 109.716 153.939 109.832 154.171C110.529 156.144 110.761 158.234 111.69 160.207C112.038 161.019 112.618 161.832 113.198 162.644C113.779 163.457 114.475 163.805 114.707 164.734C114.823 165.082 114.591 165.314 114.359 165.314Z" fill="black"/>
<path d="M114.59 165.546C115.867 164.617 117.608 164.385 119.001 163.573C120.626 162.76 122.019 161.715 123.412 160.555C124.921 159.162 126.314 157.769 127.474 156.028C128.519 154.403 129.099 152.546 130.144 151.037C130.376 150.689 130.956 150.805 130.956 151.269C131.421 155.68 127.01 160.555 123.76 163.108C121.903 164.501 116.68 168.331 114.59 165.778C114.474 165.662 114.59 165.662 114.59 165.546Z" fill="black"/>
<path d="M109.715 154.171C114.358 148.368 124.456 147.671 130.723 150.689C131.188 150.921 130.956 151.618 130.491 151.618C123.179 150.689 116.447 150.805 109.831 154.287C109.715 154.403 109.599 154.287 109.715 154.171Z" fill="black"/>
<path d="M76.9845 149.993C76.8684 144.653 91.1451 146.046 91.9576 150.457C92.0737 151.269 91.2612 151.734 90.5648 151.269C88.7076 149.644 86.7344 149.064 84.2969 148.832C82.3237 148.716 79.4219 148.484 78.1452 150.341C77.913 150.921 76.9845 150.689 76.9845 149.993Z" fill="black"/>
<path d="M92.0719 151.27C92.6523 153.011 91.4916 155.564 90.6791 157.073C89.7505 158.93 88.3577 160.903 86.2684 161.368C85.3398 161.6 84.6434 160.091 85.572 159.743C87.4291 158.93 88.5898 157.537 89.5184 155.796C90.3309 154.287 90.563 152.662 91.1434 151.153C91.2594 150.689 91.9559 150.805 92.0719 151.27Z" fill="black"/>
<path d="M86.0388 68.7427C87.5477 67.9302 89.521 67.6981 91.262 68.2784C92.6549 68.7427 94.512 69.5552 94.7441 71.1802C94.7441 71.4123 94.3959 71.6445 94.2799 71.5284C93.1191 70.7159 92.3067 69.9034 90.7977 69.4391C89.2888 69.0909 87.7799 68.8588 86.387 69.4391C85.9228 69.5552 85.6906 68.9749 86.0388 68.7427Z" fill="black"/>
<path d="M75.3589 66.1892C74.4303 65.1446 72.9214 64.4482 71.5286 64.1C70.7161 63.8678 69.9036 63.8678 69.0911 63.9839C68.5107 64.1 68.0464 64.3321 67.4661 64.3321C67.2339 64.3321 67.0018 64.1 67.1179 63.8678C67.8143 62.2428 70.3678 62.475 71.7607 62.7071C73.6178 63.0553 75.475 64.1 75.7071 65.9571C75.8232 66.1892 75.475 66.4214 75.3589 66.1892Z" fill="black"/>
<path d="M100.893 99.7335C101.241 99.5014 101.473 99.2693 101.706 98.9211C102.054 98.3407 103.098 98.9211 102.75 99.5014C102.402 99.9657 102.054 100.43 101.473 100.662C100.777 101.126 100.197 100.082 100.893 99.7335Z" fill="black"/>
<path d="M105.653 97.8765C104.957 97.8765 104.957 96.7158 105.653 96.7158C106.35 96.7158 106.35 97.8765 105.653 97.8765Z" fill="black"/>
<path d="M79.8839 52.8414C83.7143 50.7521 87.8928 49.8236 92.1875 49.1271C93.8125 48.895 95.4374 48.6629 97.1785 49.0111C100.08 49.5914 102.053 51.5646 105.42 50.4039C106.464 50.0557 106.928 51.6807 105.884 52.0289C102.518 53.1896 100.08 51.3325 96.8303 50.7521C91.9553 49.9396 85.2232 51.9128 80.9286 54.2343C79.7679 54.8146 78.9554 53.3057 79.8839 52.8414Z" fill="black"/>
<path d="M70.1356 53.0735C70.7159 51.7967 71.5284 51.2164 72.9213 50.8682C75.2427 50.4039 75.707 51.4485 78.1445 48.6628C78.6087 48.1985 78.8409 47.386 79.3052 46.9217C82.323 43.5557 86.5016 47.0378 89.9837 45.0646C90.9123 44.4843 91.8408 45.9932 90.9122 46.5735C87.198 48.7789 83.1355 45.2968 80.0016 49.1271C79.1891 50.0557 78.8409 51.2164 77.6802 51.9128C75.823 52.9574 72.6891 51.5646 71.7606 53.886C71.1802 55.0467 69.7874 54.1181 70.1356 53.0735Z" fill="black"/>
<path d="M93.8142 56.2074C100.082 55.0467 103.912 59.8056 109.948 59.3413C113.082 59.1092 116.332 58.761 117.725 62.127C118.189 63.1717 116.68 63.9842 116.216 63.0556C114.475 58.877 108.555 62.127 105.189 61.0824C101.127 59.8056 99.1535 57.0199 94.2785 57.9485C93.2339 58.0645 92.7696 56.3235 93.8142 56.2074Z" fill="black"/>
<path d="M104.957 63.8679C106.93 63.0555 109.252 62.0108 111.457 62.7072C114.011 63.5197 114.591 66.1894 116.68 67.5822C119.93 69.6715 127.591 68.7429 126.43 74.8947C126.198 75.9393 124.573 75.475 124.805 74.4304C125.037 73.1536 122.368 71.1804 121.323 70.8322C120.627 70.6001 119.698 70.6001 119.002 70.484C117.725 70.2518 116.448 70.0197 115.403 69.2072C114.475 68.5108 114.127 67.8144 113.546 67.0019C111.573 63.984 109.484 63.8679 106.002 65.3769C104.841 65.8412 103.912 64.3322 104.957 63.8679Z" fill="black"/>
<path d="M113.081 73.9662C115.634 79.3055 125.732 75.7073 126.313 83.1358C126.429 84.2965 124.688 84.1804 124.572 83.1358C124.224 78.9572 118.652 79.3055 115.75 78.2608C113.893 77.6805 112.384 76.5198 111.572 74.7787C111.108 73.8501 112.616 73.0376 113.081 73.9662Z" fill="black"/>
<path d="M114.242 82.3231C116.099 82.091 117.724 82.5553 119.233 83.8321C121.439 85.6892 123.76 90.7963 127.358 89.1713C128.403 88.707 129.215 90.216 128.287 90.6802C126.314 91.4927 124.456 91.2606 122.715 89.9838C120.162 88.1267 118.421 83.4838 114.706 83.9481C113.546 84.0642 113.081 82.4392 114.242 82.3231Z" fill="black"/>
<path d="M110.411 90.3321C112.268 91.6089 114.589 91.8411 116.679 90.7964C117.723 90.3321 118.536 91.8411 117.607 92.3053C114.937 93.5821 112.036 93.4661 109.598 91.8411C108.67 91.1446 109.482 89.6357 110.411 90.3321Z" fill="black"/>
<path d="M146.858 70.5998C146.626 70.4837 145.697 70.1355 145.001 71.6444C144.304 73.1534 143.956 74.0819 143.608 74.7783C143.26 75.4748 142.563 77.2158 142.563 77.6801C142.563 78.1444 141.983 79.4212 141.867 79.7694C141.751 80.1176 142.215 80.4658 142.447 80.4658C142.679 80.4658 143.028 80.3498 143.492 79.3051C143.956 78.3765 144.304 77.564 144.537 77.2158C144.885 76.8676 146.162 74.6623 146.51 73.2694C147.09 71.8766 147.438 70.948 146.858 70.5998Z" fill="black"/>
<path d="M152.66 75.243C152.428 75.1269 151.615 75.359 151.151 75.8233C150.687 76.4037 150.338 76.7519 149.99 77.1001C149.526 77.4483 148.713 78.4929 148.365 78.7251C148.133 78.9572 147.785 79.4215 147.437 79.7697C147.088 80.0019 145.696 81.5108 145.812 81.859C145.928 82.2072 146.392 82.2072 146.624 82.2072C146.74 82.2072 147.669 81.7429 148.133 81.2786C148.365 81.0465 148.946 80.5822 149.062 80.4661C149.178 80.3501 150.338 79.4215 150.571 79.0733C150.803 78.7251 153.008 76.7519 153.124 76.2876C153.24 75.8233 153.008 75.4751 152.66 75.243Z" fill="black"/>
<path d="M156.491 82.0906C156.375 81.8585 156.027 81.1621 155.098 81.5103C154.17 81.7424 152.545 82.7871 151.732 83.2513C150.456 83.9478 149.759 84.1799 149.295 84.296C148.831 84.5281 148.018 84.8763 147.902 85.3406C147.786 85.8049 150.223 85.8049 150.572 85.6888C150.804 85.5728 151.036 85.5728 151.732 85.2245C152.429 84.9924 153.125 84.6442 153.241 84.6442C153.589 84.412 155.563 83.7156 156.143 82.9031C156.723 82.2067 156.491 82.0906 156.491 82.0906Z" fill="black"/>
<path d="M149.178 89.4036C149.178 89.4036 148.714 89.5196 148.366 89.6357C148.018 89.7518 147.321 90.2161 147.205 90.4482C147.089 90.6803 147.205 91.0286 147.786 91.0286C149.527 91.0286 149.991 91.0286 151.5 90.6803C151.964 90.5643 152.544 90.2161 153.009 90.1C153.473 89.9839 154.402 89.5196 154.866 88.9393C155.33 88.3589 155.562 87.6625 154.982 87.5464C154.402 87.4304 153.357 88.0107 153.009 88.2429C152.66 88.3589 151.964 88.8232 151.5 88.9393C151.035 89.0554 149.991 89.4036 149.991 89.4036C149.991 89.4036 149.759 89.2875 149.178 89.4036Z" fill="black"/>
<path d="M135.485 84.5286C135.949 84.4125 137.11 83.3679 138.27 84.2964C138.735 84.6446 139.547 85.6893 139.663 86.3857C139.663 86.7339 140.244 86.1536 139.315 84.0643C138.386 82.0911 140.592 80.0018 141.869 81.2786C142.101 81.5107 144.538 82.0911 144.654 83.0196C144.654 84.0643 145.119 84.6446 145.467 84.9928C145.931 85.4571 146.279 85.1089 146.744 86.1536C146.976 86.6178 146.511 89.4035 146.744 89.9839C146.976 90.4482 146.279 91.9571 144.306 92.7696C142.333 93.5821 141.636 94.3946 140.708 94.9749C139.779 95.4392 137.69 96.0196 136.645 95.091C135.485 94.1624 134.672 93.1178 134.788 92.5375C134.904 91.9571 135.136 91.4928 134.44 91.2607C133.744 91.0285 132.815 88.8232 132.931 87.4303C132.815 86.85 133.86 84.8768 135.485 84.5286Z" fill="black"/>
<path d="M137.109 77.4479C137.457 78.0283 137.341 78.8407 136.761 79.7693C136.412 80.3497 136.18 80.93 136.064 81.0461C135.832 81.7425 135.252 83.2514 135.252 83.3675C134.555 84.6443 133.975 84.5282 133.859 83.7157C133.743 82.7872 134.439 79.305 134.439 78.6086C134.439 78.1443 134.671 77.564 134.787 77.2157C135.484 76.055 136.528 76.4033 137.109 77.4479Z" fill="black"/>
<path d="M75.8226 29.279C75.9387 29.395 76.519 30.0915 75.4744 31.02C74.4298 31.9486 73.7333 32.5289 73.2691 32.9932C72.8048 33.4575 71.528 34.5021 71.1798 34.6182C70.8316 34.7343 69.903 35.5468 69.6709 35.6629C69.4387 35.7789 68.9744 35.5468 68.9744 35.4307C68.9744 35.3146 68.9744 34.8504 69.6709 34.27C70.3673 33.6896 70.8316 33.1093 71.0637 32.7611C71.2958 32.4129 72.8048 30.7879 73.7333 30.0914C74.778 29.5111 75.4744 28.9307 75.8226 29.279Z" fill="black"/>
<path d="M70.3675 25.7969C70.5996 26.029 70.5997 26.7255 70.2514 27.1898C69.9032 27.7701 69.6711 28.1183 69.555 28.5826C69.3229 29.0469 68.7425 30.0915 68.6264 30.3237C68.5104 30.6719 68.1622 31.0201 68.0461 31.3683C67.93 31.7165 67.0015 33.2254 66.7693 33.2254C66.4211 33.2254 66.305 32.7612 66.305 32.6451C66.305 32.529 66.4211 31.6004 66.6532 31.1362C66.7693 30.904 67.0015 30.3237 67.0015 30.2076C67.0015 30.0915 67.4657 28.9308 67.6979 28.5826C67.93 28.2344 68.9747 25.913 69.3229 25.6808C69.7872 25.4487 70.1354 25.4487 70.3675 25.7969Z" fill="black"/>
<path d="M63.7511 24.404C63.9833 24.404 64.6797 24.5201 64.6797 25.3326C64.6797 26.1451 64.3315 27.7701 64.2154 28.5826C63.9833 29.8593 63.9833 30.4397 63.9833 30.904C63.9833 31.3683 63.8672 32.1808 63.519 32.4129C63.1708 32.645 62.9386 32.7611 62.7065 32.4129C62.4743 31.9486 62.5904 30.6718 62.5904 30.3236C62.5904 30.0915 62.5904 29.8593 62.5904 29.1629C62.5904 28.4665 62.7065 27.8861 62.7065 27.7701C62.8226 27.4218 62.8226 25.5647 63.2868 24.8683C63.6351 24.2879 63.7511 24.404 63.7511 24.404Z" fill="black"/>
<path d="M59.6898 32.4129C59.6898 32.4129 59.6898 32.7611 59.6898 33.1093C59.6898 33.4576 59.4576 34.154 59.3416 34.2701C59.2255 34.5022 58.8773 34.5022 58.6452 33.9218C58.1809 32.529 58.0648 32.0647 57.9487 30.7879C57.9487 30.4397 58.0648 29.8594 58.0648 29.3951C58.0648 28.9308 58.1809 28.1183 58.5291 27.5379C58.8773 27.0737 59.4577 26.6094 59.6898 27.0737C59.9219 27.4219 59.6898 28.4665 59.6898 28.9308C59.6898 29.279 59.4576 29.9754 59.5737 30.3236C59.6898 30.904 59.6898 31.9486 59.6898 32.4129Z" fill="black"/>
<path d="M67.4647 42.5105C67.4647 42.1623 67.929 40.8855 66.8843 40.1891C66.4201 39.9569 64.9111 39.0284 66.7683 39.2605C68.6254 39.4926 69.7861 37.1712 68.3933 36.4748C68.1611 36.3587 67.0004 34.5016 66.1879 34.6177C65.2594 34.8498 64.7951 34.7337 64.4469 34.5016C63.9826 34.2695 64.2147 33.8052 63.1701 33.8052C62.7058 33.8052 60.5004 34.9659 60.0362 34.8498C59.5719 34.7337 58.5272 35.7784 58.4112 37.6355C58.2951 39.4926 57.7148 40.3051 57.5987 41.1176C57.3665 42.0462 57.5987 43.7873 58.6433 44.4837C59.688 45.1801 60.8487 45.6444 61.1969 45.2962C61.5451 44.948 63.2861 46.2248 65.8397 45.4123C66.304 45.2962 67.5808 43.9033 67.4647 42.5105Z" fill="black"/>
<path d="M72.8048 39.1446C72.2244 39.0285 71.528 39.3767 71.0637 40.0731C70.7155 40.5374 69.3227 41.582 68.9744 41.9303C68.8584 41.9303 68.6262 42.2785 68.5102 42.2785C67.5816 43.207 67.9298 43.6713 68.5102 43.4392C69.3227 43.3231 69.6709 42.6267 70.3673 42.3945C71.4119 41.9303 71.9923 41.8142 72.5726 41.582C72.9209 41.466 73.3851 41.1178 73.6173 40.8856C74.4298 40.1892 73.8494 39.3767 72.8048 39.1446Z" fill="black"/>
</svg>
